<svg width="56" height="56" viewBox="0 0 56 56" fill="none" xmlns="http://www.w3.org/2000/svg">
<rect x="0.5" y="0.5" width="55" height="55" rx="27.5" fill="white"/>
<rect x="0.5" y="0.5" width="55" height="55" rx="27.5" stroke="#E2E8ED"/>
<path d="M33.5172 28.5555C33.5078 26.957 34.232 25.7523 35.6945 24.8641C34.8766 23.6922 33.6391 23.0477 32.0078 22.9234C30.4633 22.8016 28.7734 23.8234 28.1547 23.8234C27.5008 23.8234 26.0055 22.9656 24.8289 22.9656C22.4008 23.0031 19.8203 24.9016 19.8203 28.7641C19.8203 29.9055 20.0289 31.0844 20.4461 32.2984C21.0039 33.8969 23.0148 37.8133 25.1125 37.75C26.2094 37.7242 26.9852 36.9719 28.4125 36.9719C29.7977 36.9719 30.5148 37.75 31.7383 37.75C33.8547 37.7195 35.6734 34.1594 36.2031 32.5563C33.3648 31.218 33.5172 28.6375 33.5172 28.5555ZM31.0539 21.407C32.2422 19.9961 32.1344 18.7117 32.0992 18.25C31.0492 18.3109 29.8352 18.9648 29.1437 19.7688C28.382 20.6313 27.9344 21.6977 28.0305 22.9C29.1648 22.9867 30.2008 22.4031 31.0539 21.407Z" fill="black"/>
</svg>
