<svg width="350" height="354" viewBox="0 0 350 354" fill="none" xmlns="http://www.w3.org/2000/svg">
<g opacity="0.41">
<path d="M209.015 280.865C286.574 280.865 349.448 217.991 349.448 140.432C349.448 62.8737 286.574 0 209.015 0C131.457 0 68.5829 62.8737 68.5829 140.432C68.5829 217.991 131.457 280.865 209.015 280.865Z" fill="url(#paint0_linear_1_41581)"/>
</g>
<g opacity="0.41">
<path d="M144.169 353.937C221.728 353.937 284.602 291.063 284.602 213.505C284.602 135.946 221.728 73.0723 144.169 73.0723C66.6106 73.0723 3.73688 135.946 3.73688 213.505C3.73688 291.063 66.6106 353.937 144.169 353.937Z" fill="url(#paint1_linear_1_41581)"/>
</g>
<path d="M214.68 122.743C214.64 122.743 214.601 122.741 214.562 122.738C213.643 122.673 212.953 121.879 213.016 120.96C213.044 120.538 215.716 78.72 194.988 76.5694C188.143 75.8586 182.85 77.3114 178.806 81.0061C172.159 87.0805 169.055 99.211 169.313 118.09C169.326 119.009 168.589 119.767 167.67 119.778C166.761 119.764 165.993 119.054 165.98 118.135C165.704 97.9743 169.066 85.3932 176.556 78.5456C181.277 74.2313 187.591 72.4504 195.329 73.2523C205.379 74.2938 212.19 83.05 215.026 98.5705C217.096 109.894 216.369 120.733 216.338 121.189C216.278 122.071 215.547 122.743 214.68 122.743Z" fill="#FFBD1A"/>
<path d="M241.818 113.44L161.979 111.133L157.032 232.798L241.969 234.801C245.836 234.722 248.913 231.541 248.866 227.677L247.512 119.228C247.471 116.083 244.958 113.529 241.818 113.44Z" fill="#FBFF4C"/>
<path d="M131.008 213.521L147.422 109.621C147.841 106.707 150.536 104.26 153.374 105.041L165.239 109.532C167.47 110.147 168.967 112.243 168.821 114.555L161.659 228.083C161.424 231.814 157.258 233.91 154.121 231.879L133.19 218.319C131.589 217.28 130.737 215.408 131.008 213.521Z" fill="#FFCF4C"/>
<path d="M213 112.586L244.776 114.604L237.259 109.985L238.597 107.884C238.873 107.222 238.399 106.491 237.683 106.47L151.59 104.91C151.033 104.903 150.887 105.678 151.41 105.874L158.729 108.553L158.714 110.274C158.708 110.959 159.253 111.521 159.937 111.534L213 112.586Z" fill="#FFBD1A"/>
<path d="M158.342 108.493L147.348 211.624L148.177 211.713L159.17 108.581L158.342 108.493Z" fill="#FFBD1A"/>
<path d="M225.742 127.089C225.703 127.089 225.664 127.086 225.625 127.083C224.706 127.021 224.016 126.224 224.079 125.305C224.107 124.883 226.779 83.0656 206.051 80.915C199.203 80.2042 193.912 81.657 189.869 85.3542C183.222 91.4286 180.118 103.562 180.378 122.439C180.391 123.358 179.654 124.115 178.735 124.128C178.728 124.128 178.72 124.128 178.712 124.128C177.803 124.128 177.059 123.397 177.046 122.485C176.77 102.325 180.131 89.7441 187.622 82.8964C192.342 78.5821 198.659 76.8011 206.394 77.6031C216.444 78.6445 223.253 87.4007 226.091 102.921C228.161 114.245 227.435 125.084 227.403 125.54C227.341 126.417 226.609 127.089 225.742 127.089Z" fill="#FFBD1A"/>
<path d="M130.992 213.752L147.653 209.115L154.12 231.879L133.189 218.319C131.653 217.325 130.82 215.562 130.992 213.752Z" fill="#FFBD1A"/>
<path d="M158.711 110.277L154.121 231.879C154.121 231.879 146.076 211.815 146.024 209.253L158.711 110.277Z" fill="#FFBD1A"/>
<path d="M122.999 151.959C122.231 151.959 121.541 151.425 121.372 150.642C121.288 150.254 119.338 141.037 119.731 131.062C120.27 117.317 125.092 108.918 133.677 106.775C140.266 105.127 145.953 105.892 150.577 109.05C157.883 114.039 162.325 124.449 164.556 141.813C164.673 142.726 164.028 143.56 163.116 143.677C162.195 143.794 161.369 143.148 161.252 142.237C159.18 126.11 155.074 116.156 148.697 111.802C144.841 109.17 140.191 108.582 134.484 110.009C117.211 114.325 124.553 149.59 124.629 149.946C124.821 150.845 124.249 151.733 123.348 151.925C123.233 151.949 123.113 151.959 122.999 151.959Z" fill="#4C9B9B"/>
<path d="M98.8341 147.064L166.905 135.35L185.982 238.909L113.509 250.983C110.189 251.389 107.166 249.04 106.734 245.723L94.6656 152.712C94.3194 150.017 96.1575 147.525 98.8341 147.064Z" fill="#66BFC1"/>
<path d="M205.908 219.231L179.184 132.281C178.47 129.836 175.864 128.07 173.529 129.086L163.918 134.379C162.083 135.178 161.057 137.155 161.463 139.115L181.441 235.436C182.097 238.602 185.92 239.888 188.357 237.766L204.622 223.605C205.872 222.522 206.372 220.814 205.908 219.231Z" fill="#66BFC1"/>
<path d="M123.403 142.82L96.4467 148.423L102.318 143.552L100.917 141.916C100.6 141.383 100.917 140.698 101.529 140.594L175.047 128.757C175.523 128.685 175.742 129.33 175.317 129.559L169.379 132.744L169.602 134.215C169.691 134.801 169.293 135.347 168.709 135.444L123.403 142.82Z" fill="#4C9B9B"/>
<path d="M169.541 132.61L168.733 132.816L190.958 219.74L191.765 219.533L169.541 132.61Z" fill="#4C9B9B"/>
<path d="M114.058 157.031C113.29 157.031 112.6 156.497 112.43 155.714C112.347 155.326 110.397 146.109 110.79 136.134C111.329 122.389 116.151 113.992 124.735 111.847C131.325 110.199 137.012 110.964 141.636 114.12C148.942 119.108 153.384 129.518 155.615 146.879C155.732 147.793 155.086 148.626 154.175 148.744C153.266 148.863 152.428 148.218 152.311 147.304C150.238 131.177 146.132 121.223 139.759 116.869C135.903 114.237 131.252 113.651 125.545 115.075C108.272 119.392 115.615 154.657 115.69 155.011C115.883 155.912 115.31 156.797 114.412 156.989C114.289 157.018 114.172 157.031 114.058 157.031Z" fill="#4C9B9B"/>
<path d="M205.952 219.428L191.121 217.491L188.361 237.769L204.627 223.607C205.819 222.566 206.319 220.954 205.952 219.428Z" fill="#4C9B9B"/>
<path d="M191.121 217.491L169.599 134.22L188.361 237.769C188.361 237.769 191.655 221.897 191.387 219.694" fill="#4C9B9B"/>
<path d="M125.197 327.767C125.197 334.6 119.659 340.138 112.827 340.138C105.995 340.138 100.457 334.6 100.457 327.767C100.457 320.935 105.995 315.397 112.827 315.397C119.659 315.397 125.197 320.935 125.197 327.767Z" fill="#66BFC1"/>
<path d="M113.609 264.332C107.267 264.332 101.375 260.587 98.7631 254.654C67.2038 182.961 46.4863 136.522 44.6246 133.278C43.5832 131.82 37.2901 128.497 31.0699 126.125L33.6944 119.233C36.975 120.483 47.9027 124.896 50.785 129.221C51.4281 130.184 54.8753 137.647 60.0514 149.134L250.912 158.804C254.825 159.044 258.476 160.89 260.96 163.874C263.443 166.857 264.607 170.776 264.144 174.632L257.239 232.163C256.468 238.589 251.459 243.749 245.061 244.713L116.015 264.152C115.211 264.272 114.406 264.332 113.609 264.332ZM63.4467 156.693C74.4915 181.339 90.9363 218.572 105.512 251.683C107.113 255.323 110.977 257.453 114.916 256.859L243.963 237.422C247.092 236.951 249.54 234.426 249.917 231.286L256.82 173.755C257.044 171.88 256.502 170.05 255.294 168.599C254.086 167.149 252.38 166.287 250.495 166.17L63.4467 156.693Z" fill="#2B3868"/>
<path d="M83.1027 152.417L77.3882 154.676L118.286 258.143L124 255.885L83.1027 152.417Z" fill="#2B3868"/>
<path d="M111.378 153.808L105.534 155.708L137.845 255.083L143.688 253.184L111.378 153.808Z" fill="#2B3868"/>
<path d="M135.163 155.122L129.262 156.837L157.076 252.537L162.977 250.822L135.163 155.122Z" fill="#2B3868"/>
<path d="M162.926 158.162L156.942 159.556L177.798 249.115L183.782 247.721L162.926 158.162Z" fill="#2B3868"/>
<path d="M190.772 160.459L184.701 161.406L197.785 245.239L203.856 244.292L190.772 160.459Z" fill="#2B3868"/>
<path d="M215.801 161.428L209.676 161.926L216.224 242.491L222.348 241.993L215.801 161.428Z" fill="#2B3868"/>
<path d="M241.159 164.189H235.014V240.664H241.159V164.189Z" fill="#2B3868"/>
<path d="M249.949 309.685H96.8626C92.5926 309.685 88.7938 307.295 86.9426 303.446C85.094 299.598 85.6017 295.138 88.2679 291.805L108.556 266.443C110.256 264.318 112.672 262.904 115.357 262.459L157.281 255.536C159.458 255.172 161.515 256.65 161.874 258.827C162.233 261.004 160.76 263.061 158.583 263.42L116.658 270.343C115.922 270.466 115.26 270.854 114.794 271.434L94.5037 296.797C93.4336 298.132 93.8945 299.473 94.1418 299.986C94.3892 300.499 95.1494 301.694 96.86 301.694H249.946C252.152 301.694 253.94 303.483 253.94 305.688C253.943 307.896 252.154 309.685 249.949 309.685Z" fill="#2B3868"/>
<path d="M102.909 303.946C102.909 303.946 108.02 309.875 108.226 314.374C108.429 318.873 106.794 325.211 106.794 325.211C106.794 325.211 105.976 331.754 110.678 332.571C115.38 333.389 118.039 329.504 119.062 327.255C120.085 325.005 127.855 304.15 127.855 304.15L102.909 303.946Z" fill="#2B3868"/>
<path d="M230.746 327.767C230.746 334.6 225.208 340.138 218.376 340.138C211.544 340.138 206.006 334.6 206.006 327.767C206.006 320.935 211.544 315.397 218.376 315.397C225.208 315.397 230.746 320.935 230.746 327.767Z" fill="#66BFC1"/>
<path d="M208.46 303.946C208.46 303.946 213.571 309.875 213.776 314.374C213.982 318.873 212.344 325.211 212.344 325.211C212.344 325.211 211.527 331.754 216.229 332.571C220.931 333.389 223.59 329.504 224.613 327.255C225.636 325.005 233.406 304.15 233.406 304.15L208.46 303.946Z" fill="#2B3868"/>
<path d="M257.515 188.926H73.4814V195.071H257.515V188.926Z" fill="#2B3868"/>
<path d="M257.214 216.202L92.6289 230.409L93.1574 236.531L257.742 222.324L257.214 216.202Z" fill="#2B3868"/>
<path d="M36.1581 132.385H4.44782C2.28416 132.385 0.510986 130.614 0.510986 128.448V121.337C0.510986 119.173 2.28155 117.4 4.44782 117.4H36.1581C38.3217 117.4 40.0948 119.171 40.0948 121.337V128.448C40.0948 130.614 38.3243 132.385 36.1581 132.385Z" fill="#2B3868"/>
<defs>
<linearGradient id="paint0_linear_1_41581" x1="349.448" y1="139.581" x2="68.5829" y2="139.581" gradientUnits="userSpaceOnUse">
<stop stop-color="#FF2D08"/>
<stop offset="1" stop-color="#CF240A"/>
</linearGradient>
<linearGradient id="paint1_linear_1_41581" x1="284.602" y1="212.653" x2="3.73688" y2="212.653" gradientUnits="userSpaceOnUse">
<stop stop-color="#FF2D08"/>
<stop offset="1" stop-color="#CF240A"/>
</linearGradient>
</defs>
</svg>
