<svg width="29" height="29" viewBox="0 0 29 29" fill="none" xmlns="http://www.w3.org/2000/svg">
<path fill-rule="evenodd" clip-rule="evenodd" d="M12.953 23.5972C13.5574 24.2704 14.3332 24.6402 15.1382 24.6402H15.1394C15.9479 24.6402 16.7272 24.2704 17.3327 23.5961C17.657 23.2379 18.21 23.2087 18.5682 23.5319C18.9275 23.8551 18.9567 24.4092 18.6335 24.7674C17.6909 25.8139 16.4507 26.3902 15.1394 26.3902H15.137C13.8292 26.3891 12.5914 25.8127 11.6522 24.7662C11.329 24.4081 11.3582 23.8539 11.7175 23.5319C12.0769 23.2076 12.6299 23.2367 12.953 23.5972ZM15.1963 1.30688C20.3821 1.30688 23.8658 5.34589 23.8658 9.11772C23.8658 11.0579 24.3593 11.8804 24.8831 12.7531C25.4011 13.6141 25.988 14.5917 25.988 16.4397C25.5808 21.1612 20.6516 21.5462 15.1963 21.5462C9.74098 21.5462 4.81064 21.1612 4.40813 16.5144C4.40464 14.5917 4.99148 13.6141 5.50948 12.7531L5.69234 12.4452C6.1426 11.6714 6.52681 10.8296 6.52681 9.11772C6.52681 5.34589 10.0105 1.30688 15.1963 1.30688ZM15.1963 3.05688C11.1188 3.05688 8.27681 6.25122 8.27681 9.11772C8.27681 11.5432 7.60364 12.6644 7.00864 13.6537C6.53148 14.4482 6.15464 15.0759 6.15464 16.4397C6.34948 18.6401 7.80198 19.7962 15.1963 19.7962C22.5498 19.7962 24.0478 18.5887 24.2415 16.3639C24.238 15.0759 23.8611 14.4482 23.384 13.6537C22.789 12.6644 22.1158 11.5432 22.1158 9.11772C22.1158 6.25122 19.2738 3.05688 15.1963 3.05688Z" fill="#666666"/>
</svg>
