<svg width="75" height="74" viewBox="0 0 75 74" fill="none" xmlns="http://www.w3.org/2000/svg">
<circle cx="37.9998" cy="37" r="30" fill="#0F9AE8"/>
<path d="M44.4933 24.7627C49.0918 24.7627 51.8059 27.4088 51.8059 31.9384H46.1644V31.9847C43.5462 31.9847 41.4237 34.054 41.4237 36.6067C41.4237 39.1594 43.5462 41.2288 46.1644 41.2288H51.8059V41.6447C51.8059 46.1166 49.0918 48.7627 44.4933 48.7627H32.4518C27.8533 48.7627 25.1392 46.1166 25.1392 41.6447V31.8807C25.1392 27.4088 27.8533 24.7627 32.4518 24.7627H44.4933ZM50.8103 33.9259C51.3602 33.9259 51.8059 34.3605 51.8059 34.8965V38.2706C51.7995 38.8041 51.3575 39.235 50.8103 39.2413H46.2711C44.9456 39.2587 43.7865 38.3739 43.4859 37.1151C43.3353 36.3338 43.5467 35.5274 44.0633 34.9123C44.5799 34.2972 45.349 33.9361 46.1644 33.9259H50.8103ZM46.8044 35.4859H46.3659C46.0967 35.4828 45.8374 35.5849 45.6459 35.7694C45.4544 35.9539 45.3466 36.2055 45.3466 36.468C45.3466 37.0188 45.8011 37.467 46.3659 37.4733H46.8044C47.3673 37.4733 47.8237 37.0284 47.8237 36.4796C47.8237 35.9308 47.3673 35.4859 46.8044 35.4859ZM38.9822 29.9509H31.4563C30.8979 29.9509 30.4435 30.3888 30.437 30.9331C30.437 31.4839 30.8914 31.9321 31.4563 31.9384H38.9822C39.5451 31.9384 40.0014 31.4935 40.0014 30.9447C40.0014 30.3959 39.5451 29.9509 38.9822 29.9509Z" fill="white"/>
<circle cx="7.99991" cy="4" r="4" fill="#0F9AE8"/>
<circle cx="71.9999" cy="11" r="3" fill="#0F9AE8"/>
<circle cx="3.99991" cy="54" r="2" fill="#0F9AE8"/>
<circle cx="25.9999" cy="72" r="2" fill="#0F9AE8"/>
<circle cx="66.9999" cy="65" r="1" fill="#0F9AE8"/>
<circle cx="69.4999" cy="45.5" r="1.5" fill="#0F9AE8"/>
<circle cx="49.4999" cy="69.5" r="0.5" fill="#0F9AE8"/>
<circle cx="0.499908" cy="30.5" r="0.5" fill="#0F9AE8"/>
<circle cx="42.9999" cy="2" r="1" fill="#0F9AE8"/>
</svg>
