<svg width="32" height="32" viewBox="0 0 32 32" fill="none" xmlns="http://www.w3.org/2000/svg">
<path d="M15.8115 1.37481C15.724 1.39981 12.474 3.01231 8.58652 4.95606C1.91777 8.29356 1.51152 8.50606 1.41152 8.70606C1.31777 8.90606 1.31152 9.56856 1.31152 15.9998C1.31152 22.4311 1.31777 23.0936 1.41152 23.2936C1.51152 23.4936 1.91777 23.7123 8.64902 27.0748C13.999 29.7498 15.8365 30.6436 15.999 30.6436C16.1615 30.6436 17.999 29.7498 23.349 27.0748C30.0803 23.7123 30.4865 23.4936 30.5865 23.2936C30.6803 23.0936 30.6865 22.4311 30.6865 15.9998C30.6865 9.56856 30.6803 8.90606 30.5865 8.70606C30.4865 8.50606 30.0803 8.29356 23.3803 4.94356C19.474 2.99356 16.2115 1.38107 16.124 1.36231C16.0365 1.34356 15.899 1.34982 15.8115 1.37481ZM22.2178 5.85606C25.6365 7.56856 28.4365 8.98106 28.4365 8.99981C28.4365 9.01856 27.8553 9.32481 27.1365 9.68106L25.8428 10.3248L19.5928 7.19981L13.3428 4.08106L14.6553 3.41856C15.3803 3.05606 15.974 2.75607 15.9803 2.75607C15.9928 2.74981 18.799 4.14981 22.2178 5.85606ZM22.4178 12.0373L20.499 12.9998L14.2803 9.89356C10.8615 8.18106 8.06152 6.76856 8.06152 6.74981C8.06152 6.73106 8.91152 6.29356 9.95527 5.77481L11.8428 4.83106L18.0928 7.94981L24.3428 11.0748L22.4178 12.0373ZM12.7178 10.6061C16.1365 12.3186 18.9365 13.7311 18.9365 13.7498C18.9365 13.7686 18.274 14.1123 17.4678 14.5186L15.999 15.2498L9.78027 12.1436C6.36152 10.4311 3.56152 9.01856 3.56152 8.99981C3.56152 8.97481 6.39902 7.52481 6.48027 7.50606C6.49277 7.49981 9.29902 8.89981 12.7178 10.6061ZM9.03027 13.2623L15.3115 16.4061V22.6373C15.3115 26.0686 15.299 28.8748 15.2803 28.8748C15.2615 28.8748 12.424 27.4623 8.96777 25.7373L2.68652 22.5936V16.3623C2.68652 12.9311 2.69902 10.1248 2.71777 10.1248C2.73652 10.1248 5.57402 11.5373 9.03027 13.2623ZM29.3115 16.3623V22.5936L23.0303 25.7373C19.574 27.4623 16.7365 28.8748 16.7178 28.8748C16.699 28.8748 16.6865 26.0686 16.6865 22.6373V16.4061L18.1553 15.6686C18.9615 15.2686 19.6365 14.9373 19.6553 14.9373C19.674 14.9373 19.6865 16.3998 19.6865 18.1936V21.4498L19.8678 21.6311C20.149 21.9123 20.6428 21.8686 20.8803 21.5436C20.9365 21.4686 21.5365 20.6061 22.2115 19.6248C22.8928 18.6436 23.4678 17.8373 23.499 17.8248C23.524 17.8123 23.9428 18.0873 24.424 18.4311C24.9053 18.7811 25.374 19.0873 25.4678 19.1248C25.6928 19.2123 26.0178 19.1061 26.1865 18.8936C26.3115 18.7373 26.3115 18.6498 26.3115 15.1623V11.5936L27.7678 10.8623C28.5615 10.4623 29.2365 10.1311 29.2678 10.1311C29.2928 10.1248 29.3115 12.9311 29.3115 16.3623ZM24.999 14.7248V17.1998L24.5803 16.8998C23.7053 16.2748 23.5553 16.1873 23.3303 16.1873C23.2115 16.1873 23.0615 16.2186 22.999 16.2498C22.9365 16.2873 22.5365 16.8123 22.1178 17.4248C21.6928 18.0311 21.2678 18.6436 21.174 18.7748L20.999 19.0186V16.6373V14.2498L22.9865 13.2561C24.074 12.7061 24.974 12.2561 24.9865 12.2561C24.9928 12.2498 24.999 13.3623 24.999 14.7248Z" fill="#FF2D08"/>
</svg>
