<svg width="33" height="32" viewBox="0 0 33 32" fill="none" xmlns="http://www.w3.org/2000/svg">
<path d="M16.4785 1.37481C16.391 1.39981 13.141 3.01231 9.25352 4.95606C2.58477 8.29356 2.17852 8.50606 2.07852 8.70606C1.98477 8.90606 1.97852 9.56856 1.97852 15.9998C1.97852 22.4311 1.98477 23.0936 2.07852 23.2936C2.17852 23.4936 2.58477 23.7123 9.31602 27.0748C14.666 29.7498 16.5035 30.6436 16.666 30.6436C16.8285 30.6436 18.666 29.7498 24.016 27.0748C30.7473 23.7123 31.1535 23.4936 31.2535 23.2936C31.3473 23.0936 31.3535 22.4311 31.3535 15.9998C31.3535 9.56856 31.3473 8.90606 31.2535 8.70606C31.1535 8.50606 30.7473 8.29356 24.0473 4.94356C20.141 2.99356 16.8785 1.38107 16.791 1.36231C16.7035 1.34356 16.566 1.34982 16.4785 1.37481ZM22.8848 5.85606C26.3035 7.56856 29.1035 8.98106 29.1035 8.99981C29.1035 9.01856 28.5223 9.32481 27.8035 9.68106L26.5098 10.3248L20.2598 7.19981L14.0098 4.08106L15.3223 3.41856C16.0473 3.05606 16.641 2.75607 16.6473 2.75607C16.6598 2.74981 19.466 4.14981 22.8848 5.85606ZM23.0848 12.0373L21.166 12.9998L14.9473 9.89356C11.5285 8.18106 8.72852 6.76856 8.72852 6.74981C8.72852 6.73106 9.57852 6.29356 10.6223 5.77481L12.5098 4.83106L18.7598 7.94981L25.0098 11.0748L23.0848 12.0373ZM13.3848 10.6061C16.8035 12.3186 19.6035 13.7311 19.6035 13.7498C19.6035 13.7686 18.941 14.1123 18.1348 14.5186L16.666 15.2498L10.4473 12.1436C7.02852 10.4311 4.22852 9.01856 4.22852 8.99981C4.22852 8.97481 7.06602 7.52481 7.14727 7.50606C7.15977 7.49981 9.96602 8.89981 13.3848 10.6061ZM9.69727 13.2623L15.9785 16.4061V22.6373C15.9785 26.0686 15.966 28.8748 15.9473 28.8748C15.9285 28.8748 13.091 27.4623 9.63477 25.7373L3.35352 22.5936V16.3623C3.35352 12.9311 3.36602 10.1248 3.38477 10.1248C3.40352 10.1248 6.24102 11.5373 9.69727 13.2623ZM29.9785 16.3623V22.5936L23.6973 25.7373C20.241 27.4623 17.4035 28.8748 17.3848 28.8748C17.366 28.8748 17.3535 26.0686 17.3535 22.6373V16.4061L18.8223 15.6686C19.6285 15.2686 20.3035 14.9373 20.3223 14.9373C20.341 14.9373 20.3535 16.3998 20.3535 18.1936V21.4498L20.5348 21.6311C20.816 21.9123 21.3098 21.8686 21.5473 21.5436C21.6035 21.4686 22.2035 20.6061 22.8785 19.6248C23.5598 18.6436 24.1348 17.8373 24.166 17.8248C24.191 17.8123 24.6098 18.0873 25.091 18.4311C25.5723 18.7811 26.041 19.0873 26.1348 19.1248C26.3598 19.2123 26.6848 19.1061 26.8535 18.8936C26.9785 18.7373 26.9785 18.6498 26.9785 15.1623V11.5936L28.4348 10.8623C29.2285 10.4623 29.9035 10.1311 29.9348 10.1311C29.9598 10.1248 29.9785 12.9311 29.9785 16.3623ZM25.666 14.7248V17.1998L25.2473 16.8998C24.3723 16.2748 24.2223 16.1873 23.9973 16.1873C23.8785 16.1873 23.7285 16.2186 23.666 16.2498C23.6035 16.2873 23.2035 16.8123 22.7848 17.4248C22.3598 18.0311 21.9348 18.6436 21.841 18.7748L21.666 19.0186V16.6373V14.2498L23.6535 13.2561C24.741 12.7061 25.641 12.2561 25.6535 12.2561C25.6598 12.2498 25.666 13.3623 25.666 14.7248Z" fill="#9BA6B0"/>
</svg>
