<svg width="32" height="32" viewBox="0 0 32 32" fill="none" xmlns="http://www.w3.org/2000/svg">
<path fill-rule="evenodd" clip-rule="evenodd" d="M10.058 26.6025C11.01 26.6025 11.7847 27.3759 11.7847 28.3279C11.7847 29.2799 11.01 30.0545 10.058 30.0545C9.106 30.0545 8.33267 29.2799 8.33267 28.3279C8.33267 27.3759 9.106 26.6025 10.058 26.6025ZM25.0984 26.6025C26.0517 26.6025 26.8264 27.3759 26.8264 28.3279C26.8264 29.2799 26.0517 30.0545 25.0984 30.0545C24.1464 30.0545 23.3731 29.2799 23.3731 28.3279C23.3731 27.3759 24.1464 26.6025 25.0984 26.6025ZM4.35693 4.01265L7.13027 4.49265C7.57693 4.57132 7.91693 4.94198 7.9556 5.39532L8.26893 9.12998L9.43407 9.13048C9.6242 9.13057 9.81231 9.13065 9.99843 9.13074L12.1375 9.13175C12.308 9.13184 12.4766 9.13193 12.6433 9.13201L15.0052 9.13331C15.1536 9.13339 15.3002 9.13348 15.445 9.13357L17.1001 9.13462C17.2312 9.13471 17.3607 9.1348 17.4885 9.13489L18.9442 9.13596C19.0592 9.13605 19.1725 9.13614 19.2844 9.13623L20.5536 9.13732C20.6535 9.13741 20.7518 9.13751 20.8488 9.1376L21.683 9.13843C21.7715 9.13852 21.8587 9.13861 21.9445 9.13871L22.9105 9.13983C22.9859 9.13992 23.06 9.14002 23.1328 9.14011L23.9485 9.14125C24.0117 9.14134 24.0738 9.14144 24.1347 9.14154L24.6532 9.1424C24.7075 9.1425 24.7607 9.14259 24.8129 9.14269L25.3904 9.14386C25.4346 9.14396 25.4778 9.14406 25.52 9.14416L25.8754 9.14505C25.9122 9.14514 25.9481 9.14524 25.9832 9.14534L26.3642 9.14655C26.3928 9.14665 26.4206 9.14675 26.4476 9.14685L26.6713 9.14776C26.694 9.14786 26.7161 9.14796 26.7375 9.14807L26.9638 9.1493C26.9802 9.1494 26.9961 9.14951 27.0114 9.14961L27.1347 9.15055C27.1469 9.15065 27.1586 9.15075 27.1698 9.15086L27.2586 9.15181C27.2672 9.15191 27.2754 9.15202 27.2831 9.15212L27.3436 9.15308C27.3493 9.15319 27.3546 9.15329 27.3597 9.1534L27.3979 9.15437C27.4014 9.15448 27.4047 9.15458 27.4077 9.15469L27.4354 9.156L27.4401 9.15633C27.4531 9.15754 27.4569 9.15798 27.4569 9.15798C28.1996 9.26598 28.8529 9.65398 29.2983 10.2513C29.7436 10.8473 29.9303 11.582 29.8236 12.318L28.5583 21.062C28.3196 22.726 26.8743 23.9806 25.1943 23.9806H10.6329C8.87693 23.9806 7.39027 22.61 7.2476 20.8566L6.02627 6.33132L4.01693 5.98465C3.4716 5.88865 3.1076 5.37265 3.20093 4.82732C3.29693 4.28198 3.8236 3.92732 4.35693 4.01265ZM9.16658 11.1304L8.43693 11.13L9.24093 20.6926C9.2996 21.4286 9.90093 21.9806 10.6356 21.9806H25.1916C25.8863 21.9806 26.4796 21.4633 26.5783 20.7766L27.8449 12.0313C27.8743 11.8233 27.8223 11.6153 27.6956 11.4473C27.5703 11.278 27.3863 11.1687 27.1783 11.1393C27.1687 11.1397 27.1456 11.14 27.1098 11.1403L26.9648 11.1412C26.9345 11.1413 26.9011 11.1414 26.8648 11.1415L26.1095 11.1427C26.0457 11.1427 25.9795 11.1427 25.9108 11.1428L24.1348 11.1427C24.0357 11.1427 23.9347 11.1426 23.832 11.1426L21.8052 11.1413C21.6837 11.1413 21.561 11.1412 21.437 11.1411L20.2901 11.1401C20.1595 11.14 20.0279 11.1399 19.8954 11.1398L18.6806 11.1387C18.5434 11.1386 18.4055 11.1385 18.2671 11.1384L17.4303 11.1376C17.2899 11.1375 17.1491 11.1373 17.008 11.1372L15.7311 11.136C15.5887 11.1359 15.4462 11.1358 15.3037 11.1356L14.4496 11.1348C14.3074 11.1347 14.1654 11.1346 14.0237 11.1344L13.1767 11.1337C13.0363 11.1335 12.8962 11.1334 12.7566 11.1333L11.516 11.1322C11.3801 11.1321 11.2449 11.132 11.1106 11.1319L9.54265 11.1307C9.41613 11.1306 9.29074 11.1305 9.16658 11.1304ZM23.0501 14.0584C23.6021 14.0584 24.0501 14.5064 24.0501 15.0584C24.0501 15.6104 23.6021 16.0584 23.0501 16.0584H19.3541C18.8008 16.0584 18.3541 15.6104 18.3541 15.0584C18.3541 14.5064 18.8008 14.0584 19.3541 14.0584H23.0501Z" fill="#9BA6B0"/>
</svg>
