<svg width="32" height="32" viewBox="0 0 32 32" fill="none" xmlns="http://www.w3.org/2000/svg">
<ellipse cx="16" cy="16.0731" rx="16" ry="15.9266" fill="url(#paint0_linear_60_21771)"/>
<path d="M17.6166 8.52637C18.3926 8.53432 19.0246 8.93205 19.3926 9.64795C19.4876 9.83687 19.6201 10.1128 19.7589 10.4039L19.9264 10.7558L20.0086 10.9286L20.0886 11.1036C20.1206 11.1593 20.1766 11.1991 20.2486 11.1991C22.1686 11.1991 23.7366 12.7581 23.7366 14.6672V19.3922C23.7366 21.3012 22.1686 22.8603 20.2486 22.8603H11.2246C9.2966 22.8603 7.7366 21.3012 7.7366 19.3922V14.6672C7.7366 12.7581 9.2966 11.1991 11.2246 11.1991C11.2886 11.1991 11.3526 11.1673 11.3766 11.1036L11.4246 11.0082C11.6486 10.5388 11.9206 9.96613 12.0806 9.64795C12.4486 8.93205 13.0726 8.53432 13.8486 8.52637H17.6166ZM15.7366 13.6252C14.8966 13.6252 14.1046 13.9513 13.5046 14.5479C12.9126 15.1445 12.5846 15.924 12.5926 16.7513C12.5926 17.5865 12.9206 18.366 13.5126 18.9626C14.1126 19.5513 14.8966 19.8774 15.7366 19.8774C16.6006 19.8774 17.3846 19.5274 17.9526 18.9626C18.5206 18.3979 18.8726 17.6183 18.8806 16.7513C18.8806 15.924 18.5526 15.1365 17.9606 14.5399C17.3686 13.9513 16.5766 13.6252 15.7366 13.6252ZM15.7366 14.8184C16.2566 14.8184 16.7446 15.0172 17.1126 15.3831C17.4806 15.749 17.6806 16.2343 17.6806 16.7513C17.6726 17.8172 16.8086 18.6842 15.7366 18.6842C15.2166 18.6842 14.7286 18.4854 14.3606 18.1195C13.9926 17.7536 13.7926 17.2683 13.7926 16.7513V16.7433C13.7846 16.2422 13.9846 15.757 14.3526 15.3911C14.7286 15.0172 15.2166 14.8184 15.7366 14.8184ZM20.2246 13.4343C19.8246 13.4343 19.5046 13.7604 19.5046 14.1581C19.5046 14.5559 19.8246 14.874 20.2246 14.874C20.6246 14.874 20.9526 14.5559 20.9526 14.1581C20.9526 13.7604 20.6246 13.4343 20.2246 13.4343Z" fill="white"/>
<defs>
<linearGradient id="paint0_linear_60_21771" x1="32" y1="15.9766" x2="-3.05112e-05" y2="15.9766" gradientUnits="userSpaceOnUse">
<stop stop-color="#FF2D08"/>
<stop offset="1" stop-color="#CF240A"/>
</linearGradient>
</defs>
</svg>
