<svg width="96" height="96" viewBox="0 0 96 96" fill="none" xmlns="http://www.w3.org/2000/svg">
<rect width="96" height="96" rx="48" fill="url(#paint0_linear_1_52581)" fill-opacity="0.3"/>
<path d="M23.4492 30.9492C23.2617 31.125 23.1562 31.3711 23.1562 31.5938C23.1562 31.8164 23.2617 32.0625 23.4492 32.2383C23.7305 32.5312 23.7539 32.5312 25.9688 32.5312C28.1836 32.5312 28.207 32.5312 28.4883 32.2383C28.6758 32.0625 28.7812 31.8164 28.7812 31.5938C28.7812 31.3711 28.6758 31.125 28.4883 30.9492C28.207 30.6562 28.1836 30.6562 25.9688 30.6562C23.7539 30.6562 23.7305 30.6562 23.4492 30.9492Z" fill="url(#paint1_linear_1_52581)"/>
<path d="M29.543 30.9492C29.3555 31.125 29.25 31.3711 29.25 31.5938C29.25 31.8164 29.3555 32.0625 29.543 32.2383L29.8242 32.5312H35.6953H41.5664L41.8477 32.2383C42.2344 31.8633 42.2344 31.3242 41.8477 30.9492L41.5664 30.6562H35.6953H29.8242L29.543 30.9492Z" fill="url(#paint2_linear_1_52581)"/>
<path d="M25.793 37.5C25.4062 37.8867 25.4062 38.4258 25.793 38.8008L26.0742 39.0938H37.6523C44.6602 39.0938 49.7344 39.1406 50.5195 39.2109C52.3828 39.3867 54.0586 39.8203 55.4414 40.4883C56.7773 41.1328 57.6445 41.7305 59.7539 43.4648L61.2422 44.6953L62.3906 44.8359C66.668 45.3516 70.2891 46.793 71.5781 48.4922C72.3281 49.4766 72.375 49.6875 72.375 51.9258C72.375 53.9531 72.375 53.9883 72.082 54.2695C71.8125 54.5508 71.7305 54.5625 70.4062 54.5625H69L68.9297 54.1641C68.7773 53.3789 68.0625 52.1602 67.3594 51.4922C65.1094 49.3477 61.8281 49.3477 59.5781 51.4922C58.875 52.1602 58.1602 53.3789 58.0078 54.1641L57.9375 54.5625H49.4062H40.875L40.8047 54.1641C40.6523 53.3789 39.9375 52.1602 39.2344 51.4922C36.9844 49.3477 33.7031 49.3477 31.4531 51.4922C30.75 52.1602 30.0352 53.3789 29.8828 54.1641L29.8125 54.5625H27.3516C24.9141 54.5625 24.9023 54.5625 24.6211 54.8555C24.2344 55.2305 24.2344 55.7695 24.6211 56.1445C24.9023 56.4375 24.9141 56.4375 27.3516 56.4375H29.8125L29.8828 56.8359C30.0352 57.6211 30.75 58.8398 31.4531 59.5078C33.7031 61.6523 36.9844 61.6523 39.2344 59.5078C39.9375 58.8398 40.6523 57.6211 40.8047 56.8359L40.875 56.4375H49.4062H57.9375L58.0078 56.8359C58.1602 57.6211 58.875 58.8398 59.5781 59.5078C61.8281 61.6523 65.1094 61.6523 67.3594 59.5078C68.0625 58.8398 68.7773 57.6211 68.9297 56.8359L69 56.4375H70.4062C72.1992 56.4375 72.6211 56.3086 73.3828 55.5586C74.2031 54.7383 74.2734 54.4219 74.2266 51.6328C74.1914 49.3477 74.1914 49.3477 73.8281 48.5742C73.4062 47.6836 72.2812 46.418 71.3203 45.7734C69.375 44.4492 66.7031 43.5586 63.1406 43.0313L61.9219 42.8555L60.9727 42.0469C57.6562 39.2227 55.418 38.0859 52.043 37.4883C51.1289 37.3242 49.3008 37.2891 38.543 37.2539L26.0859 37.207L25.793 37.5ZM36.8789 52.0898C37.6875 52.4766 38.1914 52.957 38.6367 53.7656C39 54.4453 39.0352 54.5859 39.0352 55.5C39.0352 56.4141 39 56.5547 38.6367 57.2344C38.1914 58.0547 37.8164 58.4063 36.9375 58.875C36.4336 59.1328 36.1875 59.1797 35.3438 59.1797C34.4297 59.1914 34.2891 59.1563 33.6094 58.793C32.8008 58.3594 32.332 57.8555 31.9219 57.0234C31.5469 56.25 31.5586 54.7266 31.9453 53.918C32.4375 52.9102 33.3867 52.1367 34.4648 51.8555C35.0391 51.7031 36.3164 51.832 36.8789 52.0898ZM65.0039 52.0898C65.8125 52.4766 66.3164 52.957 66.7617 53.7656C67.125 54.4453 67.1602 54.5859 67.1602 55.5C67.1602 56.4141 67.125 56.5547 66.7617 57.2344C66.3164 58.0547 65.9414 58.4063 65.0625 58.875C64.5586 59.1328 64.3125 59.1797 63.4688 59.1797C62.5547 59.1914 62.4141 59.1563 61.7344 58.793C60.9258 58.3594 60.457 57.8555 60.0469 57.0234C59.6719 56.25 59.6836 54.7266 60.0703 53.918C60.5625 52.9102 61.5117 52.1367 62.5898 51.8555C63.1641 51.7031 64.4414 51.832 65.0039 52.0898Z" fill="url(#paint3_linear_1_52581)"/>
<path d="M21.3398 42.1992C21.1523 42.375 21.0469 42.6211 21.0469 42.8438C21.0469 43.0664 21.1523 43.3125 21.3398 43.4883L21.6211 43.7812H27.2578H32.8945L33.1758 43.4883C33.3633 43.3125 33.4688 43.0664 33.4688 42.8438C33.4688 42.6211 33.3633 42.375 33.1758 42.1992L32.8945 41.9062H27.2578H21.6211L21.3398 42.1992Z" fill="url(#paint4_linear_1_52581)"/>
<path d="M57.5742 44.1328C57.3516 44.3203 56.9414 44.5898 56.6602 44.7188C56.168 44.9414 55.875 44.9531 48.2578 44.9531H40.3711L40.0898 45.2461C39.7031 45.6211 39.7031 46.1602 40.0898 46.5352L40.3711 46.8281H48.2578C56.625 46.8281 56.7188 46.8164 57.8086 46.2656C58.0781 46.125 58.5117 45.8086 58.7812 45.5625C59.3555 45.0117 59.4141 44.5195 58.957 44.0742C58.5586 43.6758 58.0664 43.6875 57.5742 44.1328Z" fill="url(#paint5_linear_1_52581)"/>
<path d="M41.9648 64.9336C41.7773 65.1094 41.6719 65.3555 41.6719 65.5781C41.6719 65.8008 41.7773 66.0469 41.9648 66.2227C42.2461 66.5156 42.2578 66.5156 44.6016 66.5156C46.9453 66.5156 46.957 66.5156 47.2383 66.2227C47.4258 66.0469 47.5312 65.8008 47.5312 65.5781C47.5312 65.3555 47.4258 65.1094 47.2383 64.9336C46.957 64.6406 46.9453 64.6406 44.6016 64.6406C42.2578 64.6406 42.2461 64.6406 41.9648 64.9336Z" fill="url(#paint6_linear_1_52581)"/>
<path d="M48.5273 64.9336C48.3398 65.1094 48.2344 65.3555 48.2344 65.5781C48.2344 65.8008 48.3398 66.0469 48.5273 66.2227L48.8086 66.5156H54.4453H60.082L60.3633 66.2227C60.5508 66.0469 60.6562 65.8008 60.6562 65.5781C60.6562 65.3555 60.5508 65.1094 60.3633 64.9336L60.082 64.6406H54.4453H48.8086L48.5273 64.9336Z" fill="url(#paint7_linear_1_52581)"/>
<defs>
<linearGradient id="paint0_linear_1_52581" x1="96" y1="47.7091" x2="1.92087e-08" y2="47.7091" gradientUnits="userSpaceOnUse">
<stop stop-color="#FEC208"/>
<stop offset="1" stop-color="#FFF10A"/>
</linearGradient>
<linearGradient id="paint1_linear_1_52581" x1="28.7813" y1="31.5994" x2="23.1563" y2="31.5994" gradientUnits="userSpaceOnUse">
<stop stop-color="#FF2D08"/>
<stop offset="1" stop-color="#CF240A"/>
</linearGradient>
<linearGradient id="paint2_linear_1_52581" x1="42.1377" y1="31.5994" x2="29.25" y2="31.5994" gradientUnits="userSpaceOnUse">
<stop stop-color="#FF2D08"/>
<stop offset="1" stop-color="#CF240A"/>
</linearGradient>
<linearGradient id="paint3_linear_1_52581" x1="74.2376" y1="49.2341" x2="24.3311" y2="49.2341" gradientUnits="userSpaceOnUse">
<stop stop-color="#FF2D08"/>
<stop offset="1" stop-color="#CF240A"/>
</linearGradient>
<linearGradient id="paint4_linear_1_52581" x1="33.4688" y1="42.8494" x2="21.0469" y2="42.8494" gradientUnits="userSpaceOnUse">
<stop stop-color="#FF2D08"/>
<stop offset="1" stop-color="#CF240A"/>
</linearGradient>
<linearGradient id="paint5_linear_1_52581" x1="59.2609" y1="45.3166" x2="39.7998" y2="45.3166" gradientUnits="userSpaceOnUse">
<stop stop-color="#FF2D08"/>
<stop offset="1" stop-color="#CF240A"/>
</linearGradient>
<linearGradient id="paint6_linear_1_52581" x1="47.5313" y1="65.5838" x2="41.6719" y2="65.5838" gradientUnits="userSpaceOnUse">
<stop stop-color="#FF2D08"/>
<stop offset="1" stop-color="#CF240A"/>
</linearGradient>
<linearGradient id="paint7_linear_1_52581" x1="60.6563" y1="65.5838" x2="48.2344" y2="65.5838" gradientUnits="userSpaceOnUse">
<stop stop-color="#FF2D08"/>
<stop offset="1" stop-color="#CF240A"/>
</linearGradient>
</defs>
</svg>
