<svg width="40" height="40" viewBox="0 0 40 40" fill="none" xmlns="http://www.w3.org/2000/svg">
<rect width="40" height="40" rx="20" fill="#E2E8ED"/>
<path fill-rule="evenodd" clip-rule="evenodd" d="M19.7484 9C22.6214 9 25.3214 10.117 27.3494 12.146C31.5414 16.338 31.5414 23.158 27.3494 27.35C25.2944 29.406 22.5274 30.494 19.7244 30.494C18.1964 30.494 16.6584 30.171 15.2194 29.505C14.7954 29.335 14.3984 29.175 14.1134 29.175C13.7854 29.177 13.3444 29.329 12.9184 29.476C12.0444 29.776 10.9564 30.15 10.1514 29.348C9.34944 28.545 9.71944 27.46 10.0174 26.587C10.1644 26.157 10.3154 25.713 10.3154 25.377C10.3154 25.101 10.1824 24.749 9.97844 24.242C8.10544 20.197 8.97144 15.322 12.1484 12.147C14.1764 10.118 16.8754 9 19.7484 9ZM19.7494 10.5C17.2764 10.5 14.9534 11.462 13.2084 13.208C10.4744 15.94 9.73044 20.135 11.3554 23.648C11.5894 24.227 11.8154 24.791 11.8154 25.377C11.8154 25.962 11.6144 26.551 11.4374 27.071C11.2914 27.499 11.0704 28.145 11.2124 28.287C11.3514 28.431 12.0014 28.204 12.4304 28.057C12.9454 27.881 13.5294 27.679 14.1084 27.675C14.6884 27.675 15.2354 27.895 15.8144 28.128C19.3614 29.768 23.5564 29.022 26.2894 26.29C29.8954 22.682 29.8954 16.813 26.2894 13.207C24.5434 11.461 22.2214 10.5 19.7494 10.5ZM23.6963 19.1627C24.2483 19.1627 24.6963 19.6097 24.6963 20.1627C24.6963 20.7157 24.2483 21.1627 23.6963 21.1627C23.1443 21.1627 22.6923 20.7157 22.6923 20.1627C22.6923 19.6097 23.1353 19.1627 23.6873 19.1627H23.6963ZM19.6875 19.1627C20.2395 19.1627 20.6875 19.6097 20.6875 20.1627C20.6875 20.7157 20.2395 21.1627 19.6875 21.1627C19.1355 21.1627 18.6835 20.7157 18.6835 20.1627C18.6835 19.6097 19.1255 19.1627 19.6785 19.1627H19.6875ZM15.6783 19.1627C16.2303 19.1627 16.6783 19.6097 16.6783 20.1627C16.6783 20.7157 16.2303 21.1627 15.6783 21.1627C15.1263 21.1627 14.6743 20.7157 14.6743 20.1627C14.6743 19.6097 15.1173 19.1627 15.6693 19.1627H15.6783Z" fill="url(#paint0_linear_54_10108)"/>
<defs>
<linearGradient id="paint0_linear_54_10108" x1="30.4934" y1="19.6819" x2="9" y2="19.6819" gradientUnits="userSpaceOnUse">
<stop stop-color="#FF2D08"/>
<stop offset="1" stop-color="#CF240A"/>
</linearGradient>
</defs>
</svg>
