<svg width="18" height="18" viewBox="0 0 18 18" fill="none" xmlns="http://www.w3.org/2000/svg">
<path fill-rule="evenodd" clip-rule="evenodd" d="M7.71655 0.0419923H10.2821C11.6183 0.041987 12.6658 0.0419828 13.5026 0.121548C14.3556 0.202648 15.054 0.3708 15.6697 0.748092C16.3144 1.14319 16.8565 1.68528 17.2516 2.33002C17.6289 2.9457 17.797 3.64412 17.8781 4.49708C17.9577 5.3339 17.9577 6.38137 17.9577 7.71752V8.60686C17.9577 9.55794 17.9577 10.3036 17.9166 10.906C17.8748 11.5189 17.7883 12.029 17.5929 12.5007C17.1066 13.6748 16.1738 14.6076 14.9997 15.0939C14.3289 15.3718 13.5648 15.4334 12.5188 15.4514C12.1529 15.4577 11.9211 15.4624 11.7444 15.4819C11.5793 15.5002 11.5153 15.527 11.4779 15.5488C11.4384 15.5718 11.3845 15.6136 11.2911 15.7419C11.19 15.8806 11.0757 16.0724 10.8945 16.3785L10.4427 17.1418C9.79809 18.2309 8.20057 18.2309 7.55592 17.1418L7.10418 16.3785C6.92297 16.0724 6.8087 15.8806 6.70756 15.7419C6.61411 15.6136 6.56029 15.5718 6.52078 15.5488C6.48333 15.527 6.41934 15.5002 6.25425 15.4819C6.07757 15.4624 5.84581 15.4577 5.4799 15.4514C4.43383 15.4334 3.6698 15.3718 2.99899 15.0939C1.8249 14.6076 0.892085 13.6748 0.40576 12.5007C0.210373 12.029 0.123929 11.5189 0.0821116 10.906C0.0410109 10.3036 0.0410131 9.55793 0.0410158 8.60686L0.0410157 7.71753C0.0410104 6.38137 0.0410063 5.3339 0.120572 4.49708C0.201672 3.64412 0.369823 2.9457 0.747115 2.33002C1.14222 1.68528 1.6843 1.14319 2.32904 0.748092C2.94473 0.3708 3.64315 0.202648 4.49611 0.121548C5.33293 0.0419828 6.3804 0.041987 7.71655 0.0419923ZM4.61442 1.36594C3.85296 1.43834 3.36844 1.57718 2.98217 1.81389C2.50562 2.10592 2.10495 2.50659 1.81292 2.98314C1.57621 3.36941 1.43736 3.85394 1.36496 4.6154C1.29168 5.38616 1.29102 6.37429 1.29102 7.75033V8.58366C1.29102 9.56292 1.29135 10.2661 1.32921 10.8209C1.36669 11.3702 1.43883 11.7283 1.56061 12.0223C1.92007 12.8901 2.60954 13.5796 3.47735 13.9391C3.90704 14.1171 4.45523 14.1836 5.50143 14.2016L5.52795 14.2021C5.85961 14.2078 6.15026 14.2128 6.39183 14.2395C6.6514 14.2683 6.90527 14.3264 7.14923 14.4683C7.39114 14.609 7.56562 14.7969 7.71773 15.0056C7.85828 15.1985 8.00272 15.4425 8.16632 15.7189L8.63162 16.5051C8.79225 16.7764 9.20642 16.7764 9.36705 16.5051L9.83234 15.7189C9.99594 15.4425 10.1404 15.1985 10.2809 15.0056C10.433 14.7969 10.6075 14.609 10.8494 14.4683C11.0934 14.3264 11.3473 14.2683 11.6068 14.2395C11.8484 14.2128 12.1391 14.2078 12.4707 14.2021L12.4972 14.2016C13.5434 14.1836 14.0917 14.1171 14.5214 13.9391C15.3892 13.5796 16.0786 12.8901 16.4381 12.0223C16.5599 11.7283 16.632 11.3702 16.6695 10.8209C16.7073 10.2661 16.7077 9.56292 16.7077 8.58366V7.75033C16.7077 6.37429 16.707 5.38616 16.6337 4.6154C16.5613 3.85394 16.4225 3.36941 16.1858 2.98314C15.8938 2.50659 15.4931 2.10592 15.0165 1.81389C14.6303 1.57718 14.1457 1.43834 13.3843 1.36594C12.6135 1.29265 11.6254 1.29199 10.2493 1.29199H7.74935C6.37332 1.29199 5.38518 1.29265 4.61442 1.36594ZM5.04102 6.50033C5.04102 6.15515 5.32084 5.87533 5.66602 5.87533H12.3327C12.6779 5.87533 12.9577 6.15515 12.9577 6.50033C12.9577 6.8455 12.6779 7.12533 12.3327 7.12533H5.66602C5.32084 7.12533 5.04102 6.8455 5.04102 6.50033ZM5.04102 9.41699C5.04102 9.07181 5.32084 8.79199 5.66602 8.79199H10.2493C10.5945 8.79199 10.8743 9.07181 10.8743 9.41699C10.8743 9.76217 10.5945 10.042 10.2493 10.042H5.66602C5.32084 10.042 5.04102 9.76217 5.04102 9.41699Z" fill="white"/>
</svg>
