<svg width="29" height="29" viewBox="0 0 29 29" fill="none" xmlns="http://www.w3.org/2000/svg">
<path d="M19.0801 12.2017C19.4219 11.86 19.4219 11.306 19.0801 10.9643C18.7384 10.6226 18.1844 10.6226 17.8427 10.9643L12.6281 16.1789L10.9135 14.4643C10.5718 14.1226 10.0177 14.1226 9.67604 14.4643C9.33433 14.806 9.33433 15.36 9.67604 15.7017L12.0094 18.0351C12.3511 18.3768 12.9051 18.3768 13.2468 18.0351L19.0801 12.2017Z" fill="#1DC560"/>
<path fill-rule="evenodd" clip-rule="evenodd" d="M14.3781 1.95801C7.45152 1.95801 1.83643 7.5731 1.83643 14.4997C1.83643 21.4262 7.45152 27.0413 14.3781 27.0413C21.3047 27.0413 26.9198 21.4262 26.9198 14.4997C26.9198 7.5731 21.3047 1.95801 14.3781 1.95801ZM3.58643 14.4997C3.58643 8.5396 8.41802 3.70801 14.3781 3.70801C20.3382 3.70801 25.1698 8.5396 25.1698 14.4997C25.1698 20.4597 20.3382 25.2913 14.3781 25.2913C8.41802 25.2913 3.58643 20.4597 3.58643 14.4997Z" fill="#1DC560"/>
</svg>
