<svg width="29" height="29" viewBox="0 0 29 29" fill="none" xmlns="http://www.w3.org/2000/svg">
<rect x="2.71094" y="2.8335" width="23.3333" height="23.3333" rx="4" fill="url(#paint0_linear_641_4861)"/>
<path fill-rule="evenodd" clip-rule="evenodd" d="M19.8691 10.7581C20.0878 10.9769 20.2107 11.2736 20.2107 11.5829C20.2107 11.8923 20.0878 12.189 19.8691 12.4078L14.0358 18.2411C13.817 18.4598 13.5203 18.5827 13.2109 18.5827C12.9016 18.5827 12.6049 18.4598 12.3861 18.2411L8.88609 14.7411C8.67357 14.5211 8.55598 14.2263 8.55864 13.9205C8.5613 13.6146 8.68399 13.3219 8.9003 13.1056C9.11661 12.8893 9.40923 12.7666 9.71512 12.764C10.021 12.7613 10.3157 12.8789 10.5358 13.0914L13.2109 15.7666L18.2194 10.7581C18.4382 10.5394 18.7349 10.4165 19.0443 10.4165C19.3536 10.4165 19.6503 10.5394 19.8691 10.7581Z" fill="white"/>
<defs>
<linearGradient id="paint0_linear_641_4861" x1="26.0443" y1="14.4295" x2="2.71094" y2="14.4295" gradientUnits="userSpaceOnUse">
<stop stop-color="#FF2D08"/>
<stop offset="1" stop-color="#CF240A"/>
</linearGradient>
</defs>
</svg>
