<svg width="32" height="32" viewBox="0 0 32 32" fill="none" xmlns="http://www.w3.org/2000/svg">
<path fill-rule="evenodd" clip-rule="evenodd" d="M9.68347 4.3476C9.84292 2.84091 11.1177 1.66699 12.6667 1.66699H19.3333C20.8823 1.66699 22.1571 2.84091 22.3165 4.3476C23.334 4.36831 24.2137 4.42094 24.9649 4.55892C25.9755 4.74457 26.8356 5.09822 27.5355 5.79813C28.3381 6.60068 28.6833 7.61118 28.8446 8.81132C29.0001 9.96728 29 11.437 29 13.2605V21.4068C29 23.2303 29.0001 24.7 28.8446 25.856C28.6833 27.0561 28.3381 28.0666 27.5355 28.8692C26.733 29.6717 25.7225 30.0169 24.5223 30.1783C23.3664 30.3337 21.8966 30.3337 20.0732 30.3337H11.9268C10.1034 30.3337 8.63362 30.3337 7.47767 30.1783C6.27752 30.0169 5.26702 29.6717 4.46447 28.8692C3.66191 28.0666 3.31672 27.0561 3.15537 25.856C2.99995 24.7 2.99997 23.2303 3 21.4068V13.2605C2.99997 11.437 2.99995 9.96728 3.15537 8.81132C3.31672 7.61118 3.66191 6.60068 4.46447 5.79813C5.16437 5.09822 6.02447 4.74457 7.03514 4.55892C7.7863 4.42094 8.66603 4.36831 9.68347 4.3476ZM9.68662 6.34815C8.72904 6.3686 7.99115 6.41678 7.39646 6.52601C6.64072 6.66483 6.20329 6.88773 5.87868 7.21234C5.50966 7.58136 5.26907 8.09945 5.13753 9.07782C5.00213 10.085 5 11.4198 5 13.3337V21.3337C5 23.2475 5.00213 24.5824 5.13753 25.5895C5.26907 26.5679 5.50966 27.086 5.87868 27.455C6.2477 27.824 6.76579 28.0646 7.74416 28.1961C8.7513 28.3315 10.0861 28.3337 12 28.3337H20C21.9139 28.3337 23.2487 28.3315 24.2558 28.1961C25.2342 28.0646 25.7523 27.824 26.1213 27.455C26.4903 27.086 26.7309 26.5679 26.8625 25.5895C26.9979 24.5824 27 23.2475 27 21.3337V13.3337C27 11.4198 26.9979 10.085 26.8625 9.07782C26.7309 8.09945 26.4903 7.58136 26.1213 7.21234C25.7967 6.88773 25.3593 6.66483 24.6035 6.52601C24.0089 6.41678 23.271 6.3686 22.3134 6.34815C22.141 7.84115 20.8725 9.00033 19.3333 9.00033H12.6667C11.1275 9.00033 9.85899 7.84115 9.68662 6.34815ZM12.6667 3.66699C12.1144 3.66699 11.6667 4.11471 11.6667 4.66699V6.00033C11.6667 6.55261 12.1144 7.00033 12.6667 7.00033H19.3333C19.8856 7.00033 20.3333 6.55261 20.3333 6.00033V4.66699C20.3333 4.11471 19.8856 3.66699 19.3333 3.66699H12.6667ZM8.33333 14.0003C8.33333 13.448 8.78105 13.0003 9.33333 13.0003H10C10.5523 13.0003 11 13.448 11 14.0003C11 14.5526 10.5523 15.0003 10 15.0003H9.33333C8.78105 15.0003 8.33333 14.5526 8.33333 14.0003ZM13 14.0003C13 13.448 13.4477 13.0003 14 13.0003H22.6667C23.219 13.0003 23.6667 13.448 23.6667 14.0003C23.6667 14.5526 23.219 15.0003 22.6667 15.0003H14C13.4477 15.0003 13 14.5526 13 14.0003ZM8.33333 18.667C8.33333 18.1147 8.78105 17.667 9.33333 17.667H10C10.5523 17.667 11 18.1147 11 18.667C11 19.2193 10.5523 19.667 10 19.667H9.33333C8.78105 19.667 8.33333 19.2193 8.33333 18.667ZM13 18.667C13 18.1147 13.4477 17.667 14 17.667H22.6667C23.219 17.667 23.6667 18.1147 23.6667 18.667C23.6667 19.2193 23.219 19.667 22.6667 19.667H14C13.4477 19.667 13 19.2193 13 18.667ZM8.33333 23.3337C8.33333 22.7814 8.78105 22.3337 9.33333 22.3337H10C10.5523 22.3337 11 22.7814 11 23.3337C11 23.8859 10.5523 24.3337 10 24.3337H9.33333C8.78105 24.3337 8.33333 23.8859 8.33333 23.3337ZM13 23.3337C13 22.7814 13.4477 22.3337 14 22.3337H22.6667C23.219 22.3337 23.6667 22.7814 23.6667 23.3337C23.6667 23.8859 23.219 24.3337 22.6667 24.3337H14C13.4477 24.3337 13 23.8859 13 23.3337Z" fill="#FF2D08"/>
</svg>
