<svg width="32" height="32" viewBox="0 0 32 32" fill="none" xmlns="http://www.w3.org/2000/svg">
<path fill-rule="evenodd" clip-rule="evenodd" d="M9.68347 4.34711C9.84292 2.84042 11.1177 1.6665 12.6667 1.6665H19.3333C20.8823 1.6665 22.1571 2.84042 22.3165 4.34711C23.334 4.36782 24.2137 4.42045 24.9649 4.55843C25.9755 4.74408 26.8356 5.09773 27.5355 5.79764C28.3381 6.60019 28.6833 7.61069 28.8446 8.81084C29.0001 9.96679 29 11.4366 29 13.26V21.4063C29 23.2298 29.0001 24.6995 28.8446 25.8555C28.6833 27.0556 28.3381 28.0662 27.5355 28.8687C26.733 29.6713 25.7225 30.0165 24.5223 30.1778C23.3664 30.3332 21.8966 30.3332 20.0732 30.3332H11.9268C10.1034 30.3332 8.63362 30.3332 7.47767 30.1778C6.27752 30.0165 5.26702 29.6713 4.46447 28.8687C3.66191 28.0662 3.31672 27.0557 3.15537 25.8555C2.99995 24.6996 2.99997 23.2298 3 21.4063V13.26C2.99997 11.4366 2.99995 9.96679 3.15537 8.81084C3.31672 7.61069 3.66191 6.60019 4.46447 5.79764C5.16437 5.09773 6.02447 4.74408 7.03514 4.55843C7.7863 4.42045 8.66603 4.36782 9.68347 4.34711ZM9.68662 6.34766C8.72904 6.36811 7.99115 6.41629 7.39646 6.52552C6.64072 6.66434 6.20329 6.88725 5.87868 7.21185C5.50966 7.58087 5.26907 8.09896 5.13753 9.07733C5.00213 10.0845 5 11.4193 5 13.3332V21.3332C5 23.2471 5.00213 24.5819 5.13753 25.589C5.26907 26.5674 5.50966 27.0855 5.87868 27.4545C6.2477 27.8235 6.76579 28.0641 7.74416 28.1956C8.7513 28.331 10.0861 28.3332 12 28.3332H20C21.9139 28.3332 23.2487 28.331 24.2558 28.1956C25.2342 28.0641 25.7523 27.8235 26.1213 27.4545C26.4903 27.0855 26.7309 26.5674 26.8625 25.589C26.9979 24.5819 27 23.2471 27 21.3332V13.3332C27 11.4193 26.9979 10.0845 26.8625 9.07733C26.7309 8.09896 26.4903 7.58087 26.1213 7.21185C25.7967 6.88725 25.3593 6.66434 24.6035 6.52552C24.0089 6.41629 23.271 6.36811 22.3134 6.34766C22.141 7.84066 20.8725 8.99984 19.3333 8.99984H12.6667C11.1275 8.99984 9.85899 7.84066 9.68662 6.34766ZM12.6667 3.6665C12.1144 3.6665 11.6667 4.11422 11.6667 4.6665V5.99984C11.6667 6.55212 12.1144 6.99984 12.6667 6.99984H19.3333C19.8856 6.99984 20.3333 6.55212 20.3333 5.99984V4.6665C20.3333 4.11422 19.8856 3.6665 19.3333 3.6665H12.6667ZM8.33333 13.9998C8.33333 13.4476 8.78105 12.9998 9.33333 12.9998H10C10.5523 12.9998 11 13.4476 11 13.9998C11 14.5521 10.5523 14.9998 10 14.9998H9.33333C8.78105 14.9998 8.33333 14.5521 8.33333 13.9998ZM13 13.9998C13 13.4476 13.4477 12.9998 14 12.9998H22.6667C23.219 12.9998 23.6667 13.4476 23.6667 13.9998C23.6667 14.5521 23.219 14.9998 22.6667 14.9998H14C13.4477 14.9998 13 14.5521 13 13.9998ZM8.33333 18.6665C8.33333 18.1142 8.78105 17.6665 9.33333 17.6665H10C10.5523 17.6665 11 18.1142 11 18.6665C11 19.2188 10.5523 19.6665 10 19.6665H9.33333C8.78105 19.6665 8.33333 19.2188 8.33333 18.6665ZM13 18.6665C13 18.1142 13.4477 17.6665 14 17.6665H22.6667C23.219 17.6665 23.6667 18.1142 23.6667 18.6665C23.6667 19.2188 23.219 19.6665 22.6667 19.6665H14C13.4477 19.6665 13 19.2188 13 18.6665ZM8.33333 23.3332C8.33333 22.7809 8.78105 22.3332 9.33333 22.3332H10C10.5523 22.3332 11 22.7809 11 23.3332C11 23.8855 10.5523 24.3332 10 24.3332H9.33333C8.78105 24.3332 8.33333 23.8855 8.33333 23.3332ZM13 23.3332C13 22.7809 13.4477 22.3332 14 22.3332H22.6667C23.219 22.3332 23.6667 22.7809 23.6667 23.3332C23.6667 23.8855 23.219 24.3332 22.6667 24.3332H14C13.4477 24.3332 13 23.8855 13 23.3332Z" fill="#9BA6B0"/>
</svg>
