<svg width="20" height="21" viewBox="0 0 20 21" fill="none" xmlns="http://www.w3.org/2000/svg">
<path d="M10.0003 2.32617C14.6087 2.32617 18.3337 6.05951 18.3337 10.6595C18.3337 15.2678 14.6087 18.9928 10.0003 18.9928C5.40033 18.9928 1.66699 15.2678 1.66699 10.6595C1.66699 6.05951 5.40033 2.32617 10.0003 2.32617ZM9.70866 6.43451C9.36699 6.43451 9.08366 6.70951 9.08366 7.05951V11.2678C9.08366 11.4845 9.20033 11.6845 9.39199 11.8012L12.6587 13.7512C12.7587 13.8095 12.867 13.8428 12.9837 13.8428C13.192 13.8428 13.4003 13.7345 13.517 13.5345C13.692 13.2428 13.6003 12.8595 13.3003 12.6762L10.3337 10.9095V7.05951C10.3337 6.70951 10.0503 6.43451 9.70866 6.43451Z" fill="url(#paint0_linear_104_12222)"/>
<defs>
<linearGradient id="paint0_linear_104_12222" x1="18.3337" y1="10.609" x2="1.66699" y2="10.609" gradientUnits="userSpaceOnUse">
<stop stop-color="#FF2D08"/>
<stop offset="1" stop-color="#CF240A"/>
</linearGradient>
</defs>
</svg>
