<svg width="16" height="16" viewBox="0 0 16 16" fill="none" xmlns="http://www.w3.org/2000/svg">
<path d="M14.8581 13.197L14.8572 13.1961L10.4653 8.96431L10.4651 8.96408L9.47349 8.02113L14.8571 2.84665C14.9701 2.73806 15.0622 2.61699 15.1202 2.4831C15.1773 2.35156 15.212 2.20795 15.212 2.0632C15.212 1.91154 15.1895 1.76651 15.1195 1.63116C15.0631 1.50148 14.9834 1.36955 14.879 1.26923L14.8791 1.26918L14.8771 1.26746C14.7652 1.1707 14.64 1.08272 14.5015 1.02727C14.3625 0.9716 14.2025 0.95 14.0558 0.95C13.906 0.95 13.7577 0.98322 13.6113 1.03732L13.6113 1.0373L13.6101 1.0378C13.4716 1.09324 13.3459 1.18141 13.2436 1.27975L7.04462 7.23788C6.94072 7.33775 6.86047 7.45925 6.8034 7.5909L6.80338 7.59089L6.80285 7.59221C6.74644 7.73319 6.71166 7.87645 6.71166 8.02133C6.71166 8.16608 6.74637 8.30968 6.8034 8.44123C6.86047 8.57288 6.94072 8.69438 7.04462 8.79425L13.2436 14.7524L13.2435 14.7524L13.2445 14.7533C13.4629 14.9521 13.7491 15.0505 14.0449 15.0505C14.3429 15.0505 14.629 14.9295 14.8352 14.7313C15.0524 14.5226 15.1679 14.2575 15.1682 13.9699C15.1794 13.6816 15.0639 13.4057 14.8581 13.197Z" fill="#C2D0DC" stroke="#C2D0DC" stroke-width="0.1"/>
<path d="M1.30391 2.80353L1.30483 2.80444L5.69665 7.03618L5.69689 7.03641L6.6885 7.97935L1.30487 13.1538C1.1919 13.2624 1.09978 13.3835 1.04174 13.5174C0.984717 13.6489 0.95 13.7925 0.95 13.9373C0.95 14.0889 0.97244 14.234 1.04244 14.3693C1.09885 14.499 1.17858 14.6309 1.28297 14.7313L1.28292 14.7313L1.2849 14.733C1.39676 14.8298 1.522 14.9178 1.66045 14.9732C1.79946 15.0289 1.95952 15.0505 2.10617 15.0505C2.25596 15.0505 2.40431 15.0173 2.55064 14.9632L2.55065 14.9632L2.5519 14.9627C2.69034 14.9072 2.81611 14.8191 2.91843 14.7207L9.11736 8.76261C9.22127 8.66274 9.30152 8.54124 9.35859 8.40959L9.35861 8.4096L9.35913 8.40828C9.41555 8.2673 9.45033 8.12404 9.45033 7.97916C9.45033 7.83441 9.41561 7.6908 9.35859 7.55926C9.30152 7.42761 9.22127 7.30611 9.11737 7.20624L2.91843 1.24811L2.91844 1.2481L2.91744 1.24719C2.69911 1.04839 2.41287 0.94994 2.11712 0.94994C1.81906 0.94994 1.53294 1.07101 1.32678 1.26917C1.10959 1.47791 0.994076 1.74302 0.99381 2.03056C0.982566 2.31885 1.09813 2.59475 1.30391 2.80353Z" fill="#C2D0DC" stroke="#C2D0DC" stroke-width="0.1"/>
</svg>
