<svg width="32" height="32" viewBox="0 0 32 32" fill="none" xmlns="http://www.w3.org/2000/svg">
<path opacity="0.932" fill-rule="evenodd" clip-rule="evenodd" d="M6.59375 4.46877C9.477 4.23849 11.6749 5.34265 13.1875 7.78127C14.0065 9.37427 14.194 11.0409 13.75 12.7813C12.8727 15.4087 11.0706 16.9608 8.34375 17.4375C5.45896 17.6982 3.26104 16.6045 1.75 14.1563C0.928363 12.5637 0.740863 10.897 1.1875 9.15627C2.07544 6.52808 3.87753 4.9656 6.59375 4.46877ZM7.40625 5.46877C10.3861 5.68251 12.209 7.24502 12.875 10.1563C13.1059 13.0188 11.908 15.0084 9.28125 16.125C6.58262 16.8736 4.42637 16.1131 2.8125 13.8438C1.77083 11.9271 1.77083 10.0105 2.8125 8.09377C3.91271 6.46552 5.44396 5.59051 7.40625 5.46877ZM6.96875 7.53127C8.4675 7.39621 9.43625 8.04208 9.875 9.46877C9.97663 10.2081 9.83081 10.8956 9.4375 11.5313C8.86344 12.4696 8.20719 13.3446 7.46875 14.1563C6.63988 13.2957 5.94198 12.3374 5.375 11.2813C4.62479 9.47052 5.15604 8.22052 6.96875 7.53127ZM7.28125 9.53127C7.86563 9.52283 8.03231 9.78327 7.78125 10.3125C7.24725 10.5201 7.00769 10.3431 7.0625 9.78127C7.10563 9.66564 7.1785 9.58227 7.28125 9.53127Z" fill="#9BA6B0"/>
<path opacity="0.93" fill-rule="evenodd" clip-rule="evenodd" d="M6.78125 6.46852C8.94019 6.28633 10.3256 7.22383 10.9375 9.28102C11.0522 10.0635 10.9481 10.8135 10.625 11.531C9.91569 12.9695 8.98862 14.2508 7.84375 15.3748C7.42412 15.5606 7.08037 15.4668 6.8125 15.0935C5.80891 14.0271 4.97558 12.8396 4.3125 11.531C3.56127 9.59802 4.03002 8.0459 5.71875 6.87477C6.07247 6.71896 6.42662 6.58358 6.78125 6.46852ZM6.96875 7.53102C5.15604 8.22027 4.62479 9.47027 5.375 11.281C5.94197 12.3371 6.63987 13.2955 7.46875 14.156C8.20719 13.3444 8.86344 12.4694 9.4375 11.531C9.83081 10.8953 9.97662 10.2078 9.875 9.46852C9.43625 8.04183 8.4675 7.39596 6.96875 7.53102ZM7.28125 9.53102C7.1785 9.58202 7.10562 9.6654 7.0625 9.78102C7.00769 10.3428 7.24725 10.5199 7.78125 10.3123C8.03231 9.78302 7.86562 9.52258 7.28125 9.53102Z" fill="#9BA6B0"/>
<path opacity="0.933" fill-rule="evenodd" clip-rule="evenodd" d="M7.03125 8.46869C7.96044 8.31319 8.59588 8.66732 8.9375 9.53119C9.12388 10.4609 8.78013 11.0964 7.90625 11.4374C6.9765 11.6238 6.34106 11.2801 6 10.4062C5.82166 9.47075 6.16541 8.82488 7.03125 8.46869ZM7.28125 9.53119C7.1785 9.58219 7.10563 9.66557 7.0625 9.78119C7.00769 10.343 7.24725 10.5201 7.78125 10.3124C8.03231 9.78319 7.86563 9.52275 7.28125 9.53119Z" fill="#9BA6B0"/>
<path opacity="0.971" fill-rule="evenodd" clip-rule="evenodd" d="M14.9688 10.4688C17.9896 10.4583 21.0105 10.4688 24.0312 10.5C24.2288 10.5883 24.4163 10.6925 24.5938 10.8125C26.7309 12.9288 28.8455 15.0643 30.9375 17.2188C30.9792 19.2813 30.9792 21.3438 30.9375 23.4063C30.7604 23.9167 30.4167 24.2604 29.9062 24.4375C29.4258 24.4481 28.9466 24.4793 28.4688 24.5313C28.1347 26.0841 27.1972 27.0528 25.6562 27.4375C17.4271 27.4688 9.19794 27.4792 0.96875 27.4688C0.96875 27.1354 0.96875 26.8021 0.96875 26.4688C3.46884 26.4792 5.96884 26.4688 8.46875 26.4375C7.94681 25.9041 7.61344 25.2687 7.46875 24.5313C6.92369 24.4945 6.382 24.4424 5.84375 24.375C5.5 24.1979 5.23958 23.9375 5.0625 23.5938C4.97037 21.8894 4.93912 20.1811 4.96875 18.4688C5.30208 18.4688 5.63542 18.4688 5.96875 18.4688C5.95834 19.9689 5.96875 21.4689 6 22.9688C6.03125 23.25 6.1875 23.4063 6.46875 23.4375C6.804 23.4893 7.13737 23.4789 7.46875 23.4063C8.04225 21.2645 9.43812 20.2958 11.6562 20.5C13.2033 20.8731 14.1408 21.8419 14.4688 23.4063C16.8021 23.4896 19.1354 23.4896 21.4688 23.4063C22.0912 21.1361 23.5703 20.1881 25.9062 20.5625C27.2921 21.0217 28.1462 21.9696 28.4688 23.4063C28.9181 23.5071 29.3556 23.4758 29.7812 23.3125C29.8573 23.2095 29.9094 23.0949 29.9375 22.9688C29.9688 21.6356 29.9792 20.3023 29.9688 18.9688C27.3437 18.9792 24.7187 18.9688 22.0938 18.9375C21.8125 18.8229 21.6146 18.625 21.5 18.3438C21.4583 16.5938 21.4583 14.8438 21.5 13.0938C21.6146 12.8125 21.8125 12.6146 22.0938 12.5C22.9479 12.4792 23.8021 12.4583 24.6562 12.4375C24.3646 12.1458 24.0729 11.8542 23.7812 11.5625C23.6979 11.5417 23.6146 11.5208 23.5312 11.5C21.8439 11.4688 20.1564 11.4583 18.4688 11.4688C18.4688 13.9688 18.4688 16.4688 18.4688 18.9688C18.1354 18.9688 17.8021 18.9688 17.4688 18.9688C17.4688 16.4688 17.4688 13.9688 17.4688 11.4688C16.6354 11.4688 15.8021 11.4688 14.9688 11.4688C14.9688 11.1354 14.9688 10.8021 14.9688 10.4688ZM22.4688 13.4688C23.5523 13.4583 24.6356 13.4688 25.7188 13.5C27.125 14.9063 28.5312 16.3125 29.9375 17.7188C29.9681 17.7996 29.9786 17.8829 29.9688 17.9688C27.4688 17.9688 24.9688 17.9688 22.4688 17.9688C22.4688 16.4688 22.4688 14.9688 22.4688 13.4688ZM10.9062 21.4688C12.6796 21.6898 13.5026 22.6898 13.375 24.4688C12.937 25.9059 11.9683 26.5413 10.4688 26.375C9.00219 25.9276 8.36675 24.9381 8.5625 23.4063C8.9245 22.2413 9.70575 21.5955 10.9062 21.4688ZM24.9062 21.4688C26.6798 21.6899 27.5027 22.6899 27.375 24.4688C26.9276 25.9353 25.9381 26.5708 24.4062 26.375C23.0046 25.91 22.3901 24.9413 22.5625 23.4688C22.8967 22.2695 23.6779 21.6028 24.9062 21.4688ZM14.4688 24.4688C16.8024 24.4479 19.1358 24.4688 21.4688 24.5313C21.6134 25.2687 21.9468 25.9041 22.4688 26.4375C19.4688 26.4792 16.4688 26.4792 13.4688 26.4375C14.0089 25.8884 14.3422 25.2322 14.4688 24.4688Z" fill="#9BA6B0" stroke="#9BA6B0" stroke-width="0.8"/>
<path fill-rule="evenodd" clip-rule="evenodd" d="M2.46875 17.9688C2.80208 17.9688 3.13542 17.9688 3.46875 17.9688C3.46875 18.3021 3.46875 18.6354 3.46875 18.9688C3.13542 18.9688 2.80208 18.9688 2.46875 18.9688C2.46875 18.6354 2.46875 18.3021 2.46875 17.9688Z" fill="#9BA6B0"/>
<path fill-rule="evenodd" clip-rule="evenodd" d="M1.96875 19.9688C2.46875 19.9688 2.96875 19.9688 3.46875 19.9688C3.46875 20.3021 3.46875 20.6354 3.46875 20.9688C2.96875 20.9688 2.46875 20.9688 1.96875 20.9688C1.96875 20.6354 1.96875 20.3021 1.96875 19.9688Z" fill="#9BA6B0"/>
<path fill-rule="evenodd" clip-rule="evenodd" d="M19.9688 19.9688C20.6354 19.9688 21.3021 19.9688 21.9688 19.9688C21.9688 20.3021 21.9688 20.6354 21.9688 20.9688C21.3021 20.9688 20.6354 20.9688 19.9688 20.9688C19.9688 20.6354 19.9688 20.3021 19.9688 19.9688Z" fill="#9BA6B0"/>
<path fill-rule="evenodd" clip-rule="evenodd" d="M0.96875 21.9688C1.80208 21.9688 2.63542 21.9688 3.46875 21.9688C3.46875 22.3021 3.46875 22.6354 3.46875 22.9688C2.63542 22.9688 1.80208 22.9688 0.96875 22.9688C0.96875 22.6354 0.96875 22.3021 0.96875 21.9688Z" fill="#9BA6B0"/>
<path fill-rule="evenodd" clip-rule="evenodd" d="M10.4688 23.4688C10.8021 23.4688 11.1354 23.4688 11.4688 23.4688C11.4688 23.8021 11.4688 24.1354 11.4688 24.4688C11.1354 24.4688 10.8021 24.4688 10.4688 24.4688C10.4688 24.1354 10.4688 23.8021 10.4688 23.4688Z" fill="#9BA6B0"/>
<path fill-rule="evenodd" clip-rule="evenodd" d="M24.4688 23.4688C24.8021 23.4688 25.1354 23.4688 25.4688 23.4688C25.4688 23.8021 25.4688 24.1354 25.4688 24.4688C25.1354 24.4688 24.8021 24.4688 24.4688 24.4688C24.4688 24.1354 24.4688 23.8021 24.4688 23.4688Z" fill="#9BA6B0"/>
</svg>
