<svg width="22" height="17" viewBox="0 0 22 17" fill="none" xmlns="http://www.w3.org/2000/svg">
<path fill-rule="evenodd" clip-rule="evenodd" d="M11 16.2002C16.5896 16.2002 21.2 13.607 21.2 10.2002C21.2 6.7934 16.5896 4.2002 11 4.2002C5.4104 4.2002 0.800003 6.7934 0.800003 10.2002C0.800003 13.607 5.4104 16.2002 11 16.2002ZM11 5.4002C16.0148 5.4002 20 7.6418 20 10.2002C20 12.7586 16.0148 15.0002 11 15.0002C5.9852 15.0002 2 12.7586 2 10.2002C2 7.6418 5.9852 5.4002 11 5.4002Z" fill="black"/>
<path d="M10.4 1.2001C10.4 1.04097 10.4632 0.888356 10.5757 0.775834C10.6883 0.663312 10.8409 0.600098 11 0.600098C11.1591 0.600098 11.3117 0.663312 11.4243 0.775834C11.5368 0.888356 11.6 1.04097 11.6 1.2001V4.8001C11.6 4.95923 11.5368 5.11184 11.4243 5.22436C11.3117 5.33688 11.1591 5.4001 11 5.4001C10.8409 5.4001 10.6883 5.33688 10.5757 5.22436C10.4632 5.11184 10.4 4.95923 10.4 4.8001V1.2001ZM15.212 1.6825C15.2477 1.5311 15.3409 1.39951 15.4718 1.31546C15.6027 1.23141 15.7611 1.20149 15.9136 1.23199C16.0662 1.2625 16.2009 1.35106 16.2894 1.47898C16.3779 1.60691 16.4132 1.7642 16.388 1.9177L15.788 4.9177C15.7523 5.06909 15.6591 5.20069 15.5282 5.28474C15.3973 5.36878 15.2389 5.39871 15.0864 5.3682C14.9339 5.33769 14.7991 5.24914 14.7106 5.12121C14.6221 4.99329 14.5868 4.83599 14.612 4.6825L15.212 1.6825ZM6.78801 1.6825C6.75227 1.5311 6.65913 1.39951 6.52823 1.31546C6.39734 1.23141 6.23892 1.20149 6.08638 1.23199C5.93385 1.2625 5.79913 1.35106 5.71063 1.47898C5.62212 1.60691 5.58677 1.7642 5.61201 1.9177L6.21201 4.9177C6.24774 5.06909 6.34088 5.20069 6.47178 5.28474C6.60267 5.36878 6.76109 5.39871 6.91363 5.3682C7.06616 5.33769 7.20088 5.24914 7.28939 5.12121C7.37789 4.99329 7.41325 4.83599 7.38801 4.6825L6.78801 1.6825ZM1.91481 3.2917C1.83301 3.15516 1.70033 3.05671 1.54595 3.01801C1.39157 2.9793 1.22814 3.00351 1.09161 3.0853C0.955073 3.16709 0.856623 3.29977 0.817916 3.45415C0.779208 3.60853 0.803413 3.77196 0.885206 3.9085L2.68521 6.9085C2.767 7.04503 2.89968 7.14348 3.05406 7.18219C3.20844 7.2209 3.37187 7.19669 3.50841 7.1149C3.64494 7.0331 3.74339 6.90042 3.7821 6.74604C3.8208 6.59166 3.7966 6.42823 3.71481 6.2917L1.91481 3.2917ZM20.0852 3.2917C20.1257 3.22409 20.1791 3.16513 20.2424 3.11817C20.3057 3.07121 20.3776 3.03717 20.4541 3.01801C20.5305 2.99884 20.61 2.99492 20.6879 3.00647C20.7659 3.01801 20.8408 3.0448 20.9084 3.0853C20.976 3.1258 21.035 3.17922 21.0819 3.2425C21.1289 3.30579 21.1629 3.37771 21.1821 3.45415C21.2013 3.53059 21.2052 3.61006 21.1936 3.68802C21.1821 3.76597 21.1553 3.84089 21.1148 3.9085L19.3148 6.9085C19.2743 6.9761 19.2209 7.03507 19.1576 7.08203C19.0943 7.12899 19.0224 7.16302 18.946 7.18219C18.8695 7.20135 18.79 7.20528 18.7121 7.19373C18.6341 7.18218 18.5592 7.1554 18.4916 7.1149C18.424 7.0744 18.365 7.02098 18.3181 6.95769C18.2711 6.8944 18.2371 6.82249 18.2179 6.74604C18.1987 6.6696 18.1948 6.59014 18.2064 6.51218C18.2179 6.43422 18.2447 6.3593 18.2852 6.2917L20.0852 3.2917ZM14.6 9.6001C14.6 10.5549 14.2207 11.4706 13.5456 12.1457C12.8705 12.8208 11.9548 13.2001 11 13.2001C10.0452 13.2001 9.12955 12.8208 8.45442 12.1457C7.77929 11.4706 7.40001 10.5549 7.40001 9.6001C7.40001 8.64532 7.77929 7.72964 8.45442 7.05451C9.12955 6.37938 10.0452 6.0001 11 6.0001C11.9548 6.0001 12.8705 6.37938 13.5456 7.05451C14.2207 7.72964 14.6 8.64532 14.6 9.6001Z" fill="black"/>
</svg>
