<svg width="16" height="16" viewBox="0 0 16 16" fill="none" xmlns="http://www.w3.org/2000/svg">
<path fill-rule="evenodd" clip-rule="evenodd" d="M14.8636 4.20706C15.1174 4.31584 15.235 4.60978 15.1262 4.86359L14.6667 4.66663C15.1262 4.86359 15.1263 4.86347 15.1262 4.86359L15.1258 4.86471L15.125 4.86637L15.1229 4.87127L15.1158 4.88733C15.1098 4.90075 15.1013 4.91956 15.0902 4.94335C15.068 4.99092 15.0356 5.05846 14.9926 5.14274C14.9067 5.31117 14.7784 5.54709 14.6057 5.82428C14.3219 6.27963 13.915 6.85174 13.3747 7.42008L14.0202 8.06564C14.2155 8.2609 14.2155 8.57748 14.0202 8.77274C13.825 8.96801 13.5084 8.96801 13.3131 8.77274L12.6461 8.10569C12.2063 8.47415 11.7019 8.81999 11.1301 9.10412L11.7524 10.0606C11.903 10.2921 11.8375 10.6018 11.606 10.7524C11.3746 10.903 11.0648 10.8375 10.9142 10.606L10.1881 9.49006C9.66857 9.65974 9.10604 9.77504 8.5 9.81638V11C8.5 11.2761 8.27614 11.5 8 11.5C7.72386 11.5 7.5 11.2761 7.5 11V9.81638C6.91265 9.77632 6.36611 9.66677 5.85993 9.50557L5.14389 10.606C4.99328 10.8375 4.68356 10.903 4.4521 10.7524C4.22064 10.6018 4.1551 10.2921 4.3057 10.0607L4.91398 9.12581C4.33772 8.8444 3.82926 8.50008 3.38567 8.13214L2.74501 8.77279C2.54975 8.96805 2.23317 8.96805 2.03791 8.77279C1.84264 8.57753 1.84264 8.26095 2.03791 8.06568L2.65375 7.44984C2.10404 6.87671 1.69022 6.29767 1.4019 5.83641C1.22661 5.55599 1.09645 5.31706 1.00931 5.14643C0.965706 5.06105 0.932788 4.9926 0.910299 4.94439C0.899052 4.92028 0.890406 4.90122 0.884329 4.88762L0.877133 4.87136L0.874971 4.8664L0.874248 4.86472L0.873975 4.86409C0.873924 4.86397 0.873762 4.86359 1.33333 4.66663L0.873975 4.86409C0.765197 4.61027 0.88256 4.31584 1.13638 4.20706C1.38998 4.09837 1.68365 4.21566 1.79264 4.46905C1.7926 4.46896 1.79268 4.46913 1.79264 4.46905L1.79327 4.47051L1.79732 4.47965C1.80125 4.48845 1.80765 4.50257 1.81654 4.52162C1.83431 4.55972 1.86203 4.61747 1.89989 4.69161C1.97569 4.84003 2.0918 5.05348 2.24987 5.30637C2.56694 5.81362 3.04776 6.47136 3.70379 7.08103C4.28106 7.6175 4.98845 8.11167 5.83448 8.43717C6.47081 8.68199 7.1903 8.8333 8 8.8333C8.82781 8.8333 9.56142 8.67514 10.2083 8.42051C11.0492 8.08952 11.7518 7.59213 12.3245 7.05463C12.9708 6.44794 13.4446 5.79674 13.757 5.29543C13.9127 5.0455 14.0271 4.83481 14.1017 4.68841C14.139 4.61527 14.1663 4.55834 14.1838 4.5208C14.1926 4.50203 14.1989 4.48812 14.2028 4.47946L14.2067 4.47047L14.2071 4.46967C14.2071 4.46974 14.2071 4.46961 14.2071 4.46967M14.8636 4.20706C14.6099 4.09831 14.3159 4.21599 14.2071 4.46967L14.8636 4.20706ZM1.79264 4.46905C1.7926 4.46896 1.79268 4.46913 1.79264 4.46905V4.46905Z" fill="black"/>
</svg>
