<svg width="56" height="56" viewBox="0 0 56 56" fill="none" xmlns="http://www.w3.org/2000/svg">
<rect x="0.5" y="0.5" width="55" height="55" rx="27.5" fill="white"/>
<rect x="0.5" y="0.5" width="55" height="55" rx="27.5" stroke="#E2E8ED"/>
<path d="M37.8055 26.0415H37V26H28V30H33.6515C32.827 32.3285 30.6115 34 28 34C24.6865 34 22 31.3135 22 28C22 24.6865 24.6865 22 28 22C29.5295 22 30.921 22.577 31.9805 23.5195L34.809 20.691C33.023 19.0265 30.634 18 28 18C22.4775 18 18 22.4775 18 28C18 33.5225 22.4775 38 28 38C33.5225 38 38 33.5225 38 28C38 27.3295 37.931 26.675 37.8055 26.0415Z" fill="#FFC107"/>
<path d="M19.153 23.3455L22.4385 25.755C23.3275 23.554 25.4805 22 28 22C29.5295 22 30.921 22.577 31.9805 23.5195L34.809 20.691C33.023 19.0265 30.634 18 28 18C24.159 18 20.828 20.1685 19.153 23.3455Z" fill="#FF3D00"/>
<path d="M28 38.0001C30.583 38.0001 32.93 37.0116 34.7045 35.4041L31.6095 32.7851C30.5718 33.5743 29.3037 34.0011 28 34.0001C25.399 34.0001 23.1905 32.3416 22.3585 30.0271L19.0975 32.5396C20.7525 35.7781 24.1135 38.0001 28 38.0001Z" fill="#4CAF50"/>
<path d="M37.8055 26.0415H37V26H28V30H33.6515C33.2571 31.1082 32.5467 32.0766 31.608 32.7855L31.6095 32.7845L34.7045 35.4035C34.4855 35.6025 38 33 38 28C38 27.3295 37.931 26.675 37.8055 26.0415Z" fill="#1976D2"/>
</svg>
