<svg width="26" height="27" viewBox="0 0 26 27" fill="none" xmlns="http://www.w3.org/2000/svg">
<circle cx="13" cy="13.51" r="13" fill="#E2E8ED"/>
<path fill-rule="evenodd" clip-rule="evenodd" d="M13.1695 7.76036C14.3438 7.01792 15.9038 6.81281 17.2515 7.2447C20.183 8.19008 21.093 11.3859 20.2791 13.9289C19.0231 17.9228 13.6592 20.9019 13.4317 21.0269C13.3508 21.0716 13.2612 21.094 13.1717 21.094C13.0821 21.094 12.9933 21.0724 12.9124 21.0283C12.6863 20.9048 7.36139 17.9697 6.06356 13.9296L6.06283 13.9289C5.24817 11.3852 6.15528 8.18864 9.08389 7.2447C10.459 6.79981 11.9576 6.99553 13.1695 7.76036ZM9.41611 8.27603C7.0465 9.04014 6.45139 11.5889 7.09489 13.5988C8.10745 16.7491 12.1078 19.2964 13.1709 19.9269C14.2377 19.2899 18.2669 16.7145 19.247 13.6017C19.8905 11.5896 19.2932 9.04086 16.92 8.27603C15.7702 7.90697 14.4291 8.13158 13.5032 8.84803C13.3096 8.99681 13.0409 8.9997 12.8459 8.85236C11.8652 8.11497 10.5839 7.89903 9.41611 8.27603ZM16.2267 9.71029C17.2111 10.0288 17.9008 10.9005 17.9853 11.9311C18.0091 12.2294 17.7874 12.4908 17.4891 12.5147C17.4739 12.5161 17.4595 12.5168 17.4443 12.5168C17.1648 12.5168 16.9279 12.3023 16.9048 12.0192C16.8572 11.4256 16.4599 10.9243 15.8944 10.7416C15.6092 10.6492 15.4532 10.3437 15.5449 10.0598C15.6381 9.77529 15.9407 9.62073 16.2267 9.71029Z" fill="#9BA6B0"/>
</svg>
