<svg width="75" height="74" viewBox="0 0 75 74" fill="none" xmlns="http://www.w3.org/2000/svg">
<circle cx="38" cy="37" r="30" fill="url(#paint0_linear_60_21319)"/>
<path fill-rule="evenodd" clip-rule="evenodd" d="M35.1815 24.4299L39.1276 25.9643L27.3464 30.5453L23.219 28.9404L34.8191 24.4299C34.9402 24.3827 35.0603 24.3827 35.1815 24.4299ZM47.4692 37.6059C50.7827 37.6059 53.4688 40.292 53.4688 43.6055C53.4688 46.919 50.7827 49.6052 47.4692 49.6052C44.1558 49.6052 41.4695 46.919 41.4695 43.6055C41.4695 40.292 44.1558 37.6059 47.4692 37.6059ZM49.7409 40.8695L46.1869 44.4235L44.9741 42.8972C44.6758 42.522 44.1296 42.4596 43.7544 42.7579C43.379 43.0562 43.3166 43.6024 43.615 43.9777L45.3999 46.2237C45.7086 46.6658 46.344 46.7263 46.7286 46.3417L50.9708 42.0994C51.3105 41.7598 51.3105 41.2092 50.9708 40.8695C50.6311 40.5299 50.0806 40.5299 49.7409 40.8695ZM43.3413 27.6027C39.4143 29.1299 35.4873 30.6569 31.5601 32.1837L35.0002 33.5213L46.7815 28.9404L43.3413 27.6027ZM47.4692 29.7424L35.5002 34.3963V48.2595L40.944 46.1428C40.6379 45.3562 40.4696 44.5006 40.4696 43.6055C40.4696 39.7398 43.6034 36.606 47.4692 36.606V29.7424ZM34.5002 48.2594V34.3963L30.8726 32.9858V35.9132C30.8726 36.0547 30.7072 36.131 30.5996 36.0393L28.6743 34.3995L26.8738 34.9595C26.849 34.9673 26.8227 34.9692 26.797 34.9649C26.7714 34.9607 26.7471 34.9505 26.7262 34.935C26.7052 34.9196 26.6882 34.8995 26.6765 34.8763C26.6648 34.8531 26.6588 34.8274 26.6589 34.8014V31.3474L22.5312 29.7424V43.2634C22.5312 43.4739 22.6541 43.6533 22.8503 43.7295L34.5002 48.2594Z" fill="white"/>
<circle cx="8" cy="4" r="4" fill="url(#paint1_linear_60_21319)"/>
<circle cx="72" cy="11" r="3" fill="url(#paint2_linear_60_21319)"/>
<circle cx="4" cy="54" r="2" fill="url(#paint3_linear_60_21319)"/>
<circle cx="26" cy="72" r="2" fill="url(#paint4_linear_60_21319)"/>
<circle cx="67" cy="65" r="1" fill="url(#paint5_linear_60_21319)"/>
<circle cx="69.5" cy="45.5" r="1.5" fill="url(#paint6_linear_60_21319)"/>
<circle cx="49.5" cy="69.5" r="0.5" fill="url(#paint7_linear_60_21319)"/>
<circle cx="0.5" cy="30.5" r="0.5" fill="url(#paint8_linear_60_21319)"/>
<circle cx="43" cy="2" r="1" fill="url(#paint9_linear_60_21319)"/>
<defs>
<linearGradient id="paint0_linear_60_21319" x1="3.34483" y1="37" x2="51.9655" y2="37" gradientUnits="userSpaceOnUse">
<stop stop-color="#2BBF69"/>
<stop offset="1" stop-color="#2CC08C"/>
</linearGradient>
<linearGradient id="paint1_linear_60_21319" x1="3.37931" y1="4" x2="9.86207" y2="4" gradientUnits="userSpaceOnUse">
<stop stop-color="#2BBF69"/>
<stop offset="1" stop-color="#2CC08C"/>
</linearGradient>
<linearGradient id="paint2_linear_60_21319" x1="68.5345" y1="11" x2="73.3966" y2="11" gradientUnits="userSpaceOnUse">
<stop stop-color="#2BBF69"/>
<stop offset="1" stop-color="#2CC08C"/>
</linearGradient>
<linearGradient id="paint3_linear_60_21319" x1="1.68966" y1="54" x2="4.93103" y2="54" gradientUnits="userSpaceOnUse">
<stop stop-color="#2BBF69"/>
<stop offset="1" stop-color="#2CC08C"/>
</linearGradient>
<linearGradient id="paint4_linear_60_21319" x1="23.6897" y1="72" x2="26.931" y2="72" gradientUnits="userSpaceOnUse">
<stop stop-color="#2BBF69"/>
<stop offset="1" stop-color="#2CC08C"/>
</linearGradient>
<linearGradient id="paint5_linear_60_21319" x1="65.8448" y1="65" x2="67.4655" y2="65" gradientUnits="userSpaceOnUse">
<stop stop-color="#2BBF69"/>
<stop offset="1" stop-color="#2CC08C"/>
</linearGradient>
<linearGradient id="paint6_linear_60_21319" x1="67.7672" y1="45.5" x2="70.1983" y2="45.5" gradientUnits="userSpaceOnUse">
<stop stop-color="#2BBF69"/>
<stop offset="1" stop-color="#2CC08C"/>
</linearGradient>
<linearGradient id="paint7_linear_60_21319" x1="48.9224" y1="69.5" x2="49.7328" y2="69.5" gradientUnits="userSpaceOnUse">
<stop stop-color="#2BBF69"/>
<stop offset="1" stop-color="#2CC08C"/>
</linearGradient>
<linearGradient id="paint8_linear_60_21319" x1="-0.0775862" y1="30.5" x2="0.732759" y2="30.5" gradientUnits="userSpaceOnUse">
<stop stop-color="#2BBF69"/>
<stop offset="1" stop-color="#2CC08C"/>
</linearGradient>
<linearGradient id="paint9_linear_60_21319" x1="41.8448" y1="2" x2="43.4655" y2="2" gradientUnits="userSpaceOnUse">
<stop stop-color="#2BBF69"/>
<stop offset="1" stop-color="#2CC08C"/>
</linearGradient>
</defs>
</svg>
