<svg width="28" height="28" viewBox="0 0 28 28" fill="none" xmlns="http://www.w3.org/2000/svg">
<path fill-rule="evenodd" clip-rule="evenodd" d="M14.2738 4.71206C16.1708 3.51273 18.6908 3.18139 20.8678 3.87906C25.6033 5.40623 27.0733 10.5687 25.7585 14.6766C23.7296 21.1282 15.0648 25.9407 14.6973 26.1426C14.5666 26.2149 14.422 26.2511 14.2773 26.2511C14.1326 26.2511 13.9891 26.2161 13.8585 26.1449C13.4933 25.9454 4.89148 21.2041 2.79498 14.6777L2.79381 14.6766C1.47781 10.5676 2.94315 5.40389 7.67398 3.87906C9.89531 3.16039 12.3161 3.47656 14.2738 4.71206ZM8.21065 5.54506C4.38281 6.77939 3.42148 10.8966 4.46098 14.1434C6.09665 19.2324 12.5588 23.3472 14.2761 24.3657C15.9993 23.3367 22.5081 19.1764 24.0913 14.1481C25.1308 10.8977 24.166 6.78056 20.3323 5.54506C18.475 4.94889 16.3085 5.31173 14.8128 6.46906C14.5001 6.70939 14.0661 6.71406 13.7511 6.47606C12.1668 5.28489 10.0971 4.93606 8.21065 5.54506ZM19.2123 7.86194C20.8025 8.37644 21.9166 9.78461 22.0531 11.4494C22.0916 11.9313 21.7335 12.3536 21.2516 12.3921C21.2271 12.3944 21.2038 12.3956 21.1793 12.3956C20.7278 12.3956 20.3451 12.0491 20.3078 11.5918C20.2308 10.6328 19.5891 9.82311 18.6756 9.52794C18.2148 9.37861 17.9628 8.88511 18.111 8.42661C18.2615 7.96694 18.7503 7.71728 19.2123 7.86194Z" fill="#666666"/>
</svg>
