<svg width="32" height="32" viewBox="0 0 32 32" fill="none" xmlns="http://www.w3.org/2000/svg">
<path fill-rule="evenodd" clip-rule="evenodd" d="M18.2891 20.3885C19.8944 20.3885 21.2011 21.6858 21.2011 23.2805V27.3818C21.2011 27.7245 21.4758 27.9992 21.8278 28.0072H24.3691C26.3718 28.0072 27.9998 26.3992 27.9998 24.4232V12.7912C27.9904 12.1112 27.6664 11.4712 27.1104 11.0458L18.3198 4.03516C17.1398 3.1005 15.4891 3.1005 14.3051 4.03783L5.57444 11.0432C4.99711 11.4818 4.67311 12.1218 4.66644 12.8138V24.4232C4.66644 26.3992 6.29444 28.0072 8.29711 28.0072H10.8624C11.2238 28.0072 11.5171 27.7205 11.5171 27.3685C11.5171 27.2912 11.5264 27.2138 11.5424 27.1405V23.2805C11.5424 21.6952 12.8411 20.3992 14.4344 20.3885H18.2891ZM24.3691 30.0072H21.8038C20.3344 29.9725 19.2011 28.8192 19.2011 27.3818V23.2805C19.2011 22.7885 18.7918 22.3885 18.2891 22.3885H14.4411C13.9491 22.3912 13.5424 22.7925 13.5424 23.2805V27.3685C13.5424 27.4685 13.5291 27.5645 13.5011 27.6552C13.3571 28.9752 12.2291 30.0072 10.8624 30.0072H8.29711C5.19178 30.0072 2.66644 27.5018 2.66644 24.4232V12.8045C2.67978 11.4792 3.29044 10.2658 4.34511 9.46716L13.0584 2.47383C14.9771 0.95383 17.6504 0.95383 19.5651 2.47116L28.3411 9.47116C29.3718 10.2565 29.9824 11.4672 29.9998 12.7765V24.4232C29.9998 27.5018 27.4744 30.0072 24.3691 30.0072Z" fill="#9BA6B0"/>
</svg>
