<svg width="96" height="96" viewBox="0 0 96 96" fill="none" xmlns="http://www.w3.org/2000/svg">
<rect width="96" height="96" rx="48" fill="url(#paint0_linear_1_52570)" fill-opacity="0.3"/>
<path d="M76 29.1854C76 27.3761 74.528 25.9042 72.7188 25.9042H63.5859C62.9819 25.9042 62.4922 26.3938 62.4922 26.9979C62.4922 27.602 62.9819 28.0917 63.5859 28.0917H72.7188C73.3218 28.0917 73.8125 28.5823 73.8125 29.1854V35.7548H22.1875V29.1854C22.1875 28.5823 22.6782 28.0917 23.2812 28.0917H36.9076C37.5117 28.0917 38.0014 27.602 38.0014 26.9979C38.0014 26.3938 37.5117 25.9042 36.9076 25.9042H23.2812C21.472 25.9042 20 27.3761 20 29.1854V36.8486C20 36.863 20.0016 36.8769 20.0022 36.8912C20.0016 36.9054 20 36.9194 20 36.9339V40.7551C20 42.6208 20.9693 44.2634 22.4298 45.2091C22.4141 45.2832 22.4063 45.3588 22.4062 45.4346V73.8106H21.0938C20.4897 73.8106 20 74.3003 20 74.9044C20 75.5085 20.4897 75.9981 21.0938 75.9981H74.9062C75.5103 75.9981 76 75.5085 76 74.9044C76 74.3003 75.5103 73.8106 74.9062 73.8106H73.5938V45.4344C73.5938 45.3571 73.5854 45.2817 73.5702 45.2089C75.0307 44.2632 76 42.6206 76 40.7549V36.9337C76 36.9192 75.9984 36.9053 75.9978 36.891C75.9984 36.8768 76 36.8628 76 36.8483V29.1854ZM58.0624 37.9422H64.8438V40.7549C64.8438 42.4732 63.4458 43.8711 61.7275 43.8711H61.1786C59.4603 43.8711 58.0624 42.4732 58.0624 40.7549V37.9422ZM49.0936 37.9422H55.875V40.7549C55.875 42.4732 54.4771 43.8711 52.7588 43.8711H52.2098C50.4916 43.8711 49.0936 42.4732 49.0936 40.7549V37.9422ZM40.1249 37.9422H46.9062V40.7549C46.9062 42.4732 45.5083 43.8711 43.79 43.8711H43.2411C41.5228 43.8711 40.1249 42.4732 40.1249 40.7549V37.9422ZM31.1561 37.9422H37.9375V40.7549C37.9375 42.4732 36.5396 43.8711 34.8213 43.8711H34.2723C32.5541 43.8711 31.1561 42.4732 31.1561 40.7549V37.9422ZM22.1875 40.7549V37.9422H28.9688V40.7549C28.9688 42.4732 27.5708 43.8711 25.8525 43.8711H25.3036C23.5854 43.8711 22.1875 42.4732 22.1875 40.7549ZM45.375 73.8104H30.5V52.3729H45.375V73.8104ZM71.4062 65.9354H54.125V52.3729H71.4062V65.9354ZM71.4069 50.1854H53.0312C52.4272 50.1854 51.9375 50.6751 51.9375 51.2792V67.0292C51.9375 67.6333 52.4272 68.1229 53.0312 68.1229H71.4062V73.8104H47.5625V51.2792C47.5625 50.6751 47.0728 50.1854 46.4688 50.1854H29.4062C28.8022 50.1854 28.3125 50.6751 28.3125 51.2792V73.8104H24.5938V46.0097C24.8262 46.041 25.0629 46.0586 25.3037 46.0586H25.8527C27.5666 46.0586 29.0923 45.2407 30.0626 43.9754C31.0328 45.2407 32.5585 46.0586 34.2726 46.0586H34.8215C36.5354 46.0586 38.0612 45.2407 39.0315 43.9754C40.0016 45.2407 41.5274 46.0586 43.2414 46.0586H43.7904C45.5043 46.0586 47.0301 45.2407 48.0003 43.9754C48.9705 45.2407 50.4963 46.0586 52.2103 46.0586H52.7592C54.4731 46.0586 55.9989 45.2407 56.9692 43.9754C57.9393 45.2407 59.4651 46.0586 61.1791 46.0586H61.7281C63.442 46.0586 64.9678 45.2407 65.938 43.9754C66.9082 45.2407 68.434 46.0586 70.148 46.0586H70.697C70.9378 46.0586 71.1745 46.041 71.4069 46.0097V50.1854ZM73.8124 40.7549C73.8125 42.4732 72.4146 43.8711 70.6963 43.8711H70.1473C68.4291 43.8711 67.0311 42.4732 67.0311 40.7549V37.9422H73.8124V40.7549Z" fill="url(#paint1_linear_1_52570)"/>
<path d="M42.6483 62.3184C42.4448 62.115 42.1627 61.998 41.875 61.998C41.5873 61.998 41.3052 62.115 41.1017 62.3184C40.8983 62.5219 40.7812 62.8041 40.7812 63.0917C40.7812 63.3794 40.8983 63.6616 41.1017 63.865C41.3052 64.0684 41.5873 64.1855 41.875 64.1855C42.1627 64.1855 42.4448 64.0684 42.6483 63.865C42.8517 63.6616 42.9688 63.3794 42.9688 63.0917C42.9688 62.8041 42.8517 62.5219 42.6483 62.3184ZM53.5152 21.264C51.8299 19.5787 49.0876 19.5786 47.4023 21.264L42.4849 26.1814C41.6684 26.9977 41.2188 28.0833 41.2188 29.2379C41.2188 30.3924 41.6684 31.478 42.4848 32.2943C43.3275 33.1371 44.4344 33.5584 45.5414 33.5584C46.6482 33.5584 47.7551 33.137 48.5978 32.2943L51.0557 29.8364L51.0566 29.8356L51.0574 29.8347L53.5152 27.3768C54.3316 26.5606 54.7812 25.475 54.7812 24.3205C54.7812 23.1659 54.3316 22.0805 53.5152 21.264ZM47.051 30.7476C46.2186 31.5801 44.8641 31.58 44.0317 30.7476C43.8327 30.5498 43.675 30.3145 43.5677 30.0554C43.4603 29.7962 43.4055 29.5184 43.4062 29.2379C43.4062 28.6676 43.6283 28.1315 44.0317 27.7283L45.7169 26.043L48.7362 29.0623L47.051 30.7476ZM51.9683 25.8302L50.2831 27.5154L47.2638 24.4961L48.949 22.8108C49.3652 22.3945 49.912 22.1864 50.4588 22.1864C51.0055 22.1864 51.5522 22.3946 51.9683 22.8108C52.3717 23.214 52.5938 23.7502 52.5938 24.3205C52.5938 24.8907 52.3717 25.4269 51.9683 25.8302ZM66.7542 58.0523H63.8477V55.1457C63.8477 54.5416 63.358 54.052 62.7539 54.052C62.1498 54.052 61.6602 54.5416 61.6602 55.1457V58.0523H58.7536C58.1496 58.0523 57.6599 58.5419 57.6599 59.146C57.6599 59.7501 58.1496 60.2398 58.7536 60.2398H61.6602V63.1463C61.6602 63.7504 62.1498 64.24 62.7539 64.24C63.358 64.24 63.8477 63.7504 63.8477 63.1463V60.2398H66.7542C67.3583 60.2398 67.848 59.7501 67.848 59.146C67.848 58.5419 67.3583 58.0523 66.7542 58.0523ZM34.6562 55.3625C34.0522 55.3625 33.5625 55.8522 33.5625 56.4563V65.5708C33.5625 66.1749 34.0522 66.6646 34.6562 66.6646C35.2603 66.6646 35.75 66.1749 35.75 65.5708V56.4563C35.75 55.8522 35.2603 55.3625 34.6562 55.3625ZM35.4295 68.9531C35.2261 68.7497 34.9439 68.6337 34.6562 68.6337C34.3686 68.6337 34.0864 68.7497 33.883 68.9531C33.6786 69.1591 33.5635 69.4373 33.5625 69.7275C33.5625 70.0151 33.6795 70.2973 33.883 70.5008C34.0864 70.7042 34.3686 70.8212 34.6562 70.8212C34.9439 70.8212 35.2261 70.7042 35.4295 70.5008C35.633 70.2962 35.75 70.0151 35.75 69.7275C35.749 69.4373 35.6339 69.1591 35.4295 68.9531Z" fill="url(#paint2_linear_1_52570)"/>
<defs>
<linearGradient id="paint0_linear_1_52570" x1="96" y1="47.7091" x2="1.92087e-08" y2="47.7091" gradientUnits="userSpaceOnUse">
<stop stop-color="#FEC208"/>
<stop offset="1" stop-color="#FFF10A"/>
</linearGradient>
<linearGradient id="paint1_linear_1_52570" x1="76" y1="50.7994" x2="20" y2="50.7994" gradientUnits="userSpaceOnUse">
<stop stop-color="#FF2D08"/>
<stop offset="1" stop-color="#CF240A"/>
</linearGradient>
<linearGradient id="paint2_linear_1_52570" x1="67.848" y1="45.2566" x2="33.5625" y2="45.2566" gradientUnits="userSpaceOnUse">
<stop stop-color="#FF2D08"/>
<stop offset="1" stop-color="#CF240A"/>
</linearGradient>
</defs>
</svg>
