<svg width="12" height="13" viewBox="0 0 12 13" fill="none" xmlns="http://www.w3.org/2000/svg">
<g clip-path="url(#clip0_54_8367)">
<path d="M9.66996 0.558404C8.77564 0.710228 8.10257 1.41563 8.00242 2.30556C7.98845 2.43402 7.98845 2.57651 8.00242 2.68162C8.04435 3.02264 8.25628 3.54818 8.58699 4.12745C8.8688 4.62264 9.05046 4.90527 9.50694 5.5476L9.72353 5.85359V6.10118C9.72353 6.3441 9.72586 6.35344 9.79107 6.42585C9.84929 6.49125 9.87491 6.50293 9.96807 6.50293C10.0612 6.50293 10.0868 6.49125 10.1451 6.42585C10.2103 6.35344 10.2126 6.3441 10.2126 6.10585V5.86059L10.3943 5.60833C11.4213 4.19052 11.9593 3.1114 11.9593 2.4784C11.9593 2.15607 11.8196 1.72162 11.624 1.42497C11.5005 1.23811 11.228 0.969499 11.0441 0.85271C10.6505 0.600448 10.1125 0.485995 9.66996 0.558404ZM10.3989 1.1003C10.6411 1.17505 10.8158 1.28016 11.0068 1.46935C11.2001 1.66089 11.2863 1.79169 11.3701 2.02527C11.4819 2.33359 11.4842 2.60921 11.3748 2.94322C11.2676 3.27256 10.8624 4.03169 10.4944 4.5876C10.3011 4.87724 9.97273 5.34906 9.96807 5.34205C9.92149 5.28833 9.47433 4.62731 9.32528 4.38906C8.96894 3.82848 8.66618 3.24687 8.55672 2.91286C8.48452 2.69096 8.47753 2.30089 8.54507 2.10001C8.65919 1.76132 8.85017 1.49738 9.12266 1.30585C9.4883 1.04658 9.9704 0.969499 10.3989 1.1003Z" fill="black"/>
<path d="M9.78179 2.07413C9.55122 2.18157 9.44176 2.3988 9.49533 2.64639C9.53026 2.80756 9.69329 2.97106 9.85399 3.0061C10.1009 3.05982 10.3175 2.95004 10.4246 2.7188C10.4828 2.59267 10.4805 2.46187 10.4129 2.32172C10.3501 2.18391 10.3058 2.14187 10.1661 2.0788C10.0356 2.01807 9.9029 2.01807 9.78179 2.07413Z" fill="black"/>
<path d="M2.51538 4.5641C1.86327 4.68556 1.33692 4.95651 0.896746 5.39797C0.200385 6.09636 -0.10471 7.15446 0.104897 8.1495C0.32382 9.18658 1.02484 10.4059 2.12877 11.6648C2.4688 12.0526 2.82979 12.4216 2.90432 12.4613C2.97186 12.4964 3.17913 12.501 3.45628 12.473C3.60999 12.459 3.63328 12.4496 3.69616 12.3796C3.75672 12.3118 3.7637 12.2861 3.75439 12.2067C3.7474 12.1507 3.71712 12.0899 3.67753 12.0479L3.61465 11.9825L3.75672 11.8307C4.08976 11.4733 4.63008 10.7866 4.91654 10.3568C6.02047 8.70541 6.26501 7.37169 5.68277 6.17344C5.26123 5.30687 4.49034 4.73695 3.49354 4.56176C3.26531 4.52206 2.73896 4.52206 2.51538 4.5641ZM3.62397 5.09665C3.91974 5.17373 4.1573 5.27651 4.37855 5.42133C4.93517 5.78804 5.31014 6.34395 5.44988 7.01665C5.50111 7.26425 5.50111 7.72205 5.44988 7.99768C5.31712 8.70541 4.87695 9.59067 4.21319 10.4876C3.87317 10.9454 3.072 11.875 3.01611 11.875C2.96021 11.875 2.15905 10.9454 1.81902 10.4876C1.15526 9.59067 0.715087 8.70541 0.582336 7.99768C0.531098 7.72205 0.531098 7.26425 0.582336 7.01665C0.777969 6.08468 1.42076 5.37928 2.31276 5.12468C2.60854 5.03826 2.75992 5.02191 3.09762 5.03125C3.3212 5.03826 3.45861 5.05461 3.62397 5.09665Z" fill="black"/>
<path d="M2.65514 6.06101C2.25688 6.15678 1.8726 6.46744 1.69095 6.84116C1.56518 7.09809 1.51627 7.32933 1.53258 7.5886C1.56984 8.1632 1.89589 8.63736 2.41758 8.87327C2.61787 8.96203 2.78556 8.99707 3.01613 8.99707C3.8103 8.99707 4.44844 8.39211 4.49968 7.5886C4.54393 6.88787 4.04786 6.21984 3.36547 6.06101C3.17683 6.01663 2.84145 6.01663 2.65514 6.06101ZM3.20477 6.53751C3.70317 6.63094 4.06649 7.1378 3.99196 7.63532C3.96635 7.8105 3.94073 7.89225 3.86853 8.01605C3.78003 8.16787 3.59837 8.32904 3.41671 8.41313C3.27231 8.4832 3.24204 8.48787 3.01613 8.48787C2.79022 8.48787 2.75994 8.4832 2.61554 8.41313C2.36635 8.294 2.14975 8.06276 2.07988 7.83853C1.85397 7.09576 2.45718 6.39736 3.20477 6.53751Z" fill="black"/>
<path d="M9.64189 7.07978C9.61627 7.0938 9.54175 7.16154 9.47887 7.22694C9.34379 7.36708 9.19939 7.43015 8.88964 7.48387C8.71729 7.51424 8.6777 7.52825 8.62414 7.58898C8.55194 7.6684 8.54029 7.76416 8.59153 7.8646C8.6451 7.96738 8.71962 7.9954 8.90361 7.97905C9.32748 7.94402 9.68149 7.77584 9.89109 7.5119C10.0262 7.33905 10.0075 7.17321 9.83986 7.08679C9.76067 7.04475 9.70478 7.04241 9.64189 7.07978Z" fill="black"/>
<path d="M7.63912 7.71724C7.39458 7.8387 7.11743 8.15403 6.9381 8.51374C6.83563 8.71461 6.83097 8.7333 6.85892 8.81272C6.89385 8.9225 6.98235 8.99023 7.08948 8.99023C7.21292 8.99023 7.2595 8.94585 7.38759 8.71695C7.49472 8.52075 7.66707 8.32221 7.91394 8.11199C7.98381 8.05126 8.00011 8.02323 8.00011 7.95082C8.00011 7.7406 7.82311 7.62615 7.63912 7.71724Z" fill="black"/>
<path d="M6.53509 9.56704C6.49317 9.60675 6.43028 9.71653 6.38138 9.84266C6.3348 9.95711 6.22766 10.1884 6.14615 10.3519C5.97846 10.6882 5.96449 10.77 6.05532 10.8774C6.18807 11.0362 6.35809 10.9895 6.49084 10.7583C6.69811 10.4009 6.92868 9.85901 6.92868 9.73521C6.92868 9.66981 6.91238 9.6301 6.85648 9.57638C6.761 9.47828 6.6329 9.47594 6.53509 9.56704Z" fill="black"/>
<path d="M5.27276 11.4099C5.03987 11.5664 4.88616 11.6458 4.62531 11.7462C4.42036 11.8256 4.34351 11.9027 4.34351 12.0265C4.34351 12.1199 4.42502 12.2321 4.51119 12.2554C4.7371 12.3161 5.65937 11.842 5.75253 11.6178C5.82007 11.4613 5.69896 11.2791 5.52895 11.2791C5.49402 11.2791 5.38455 11.3351 5.27276 11.4099Z" fill="black"/>
</g>
<defs>
<clipPath id="clip0_54_8367">
<rect width="12" height="12" fill="white" transform="translate(0 0.5)"/>
</clipPath>
</defs>
</svg>
