<svg width="45" height="45" viewBox="0 0 45 45" fill="none" xmlns="http://www.w3.org/2000/svg">
<g opacity="0.5">
<rect width="45" height="45" rx="22.5" fill="#FF2D08"/>
<path d="M22.091 26.1817C23.8984 26.1817 25.3637 24.7164 25.3637 22.909C25.3637 21.1015 23.8984 19.6362 22.091 19.6362C20.2835 19.6362 18.8182 21.1015 18.8182 22.909C18.8182 24.7164 20.2835 26.1817 22.091 26.1817Z" fill="white"/>
<path d="M22.9091 16.4199V14.7271H21.2727V16.4199C19.8329 16.6037 18.4949 17.2603 17.4686 18.2866C16.4423 19.3129 15.7857 20.6509 15.6019 22.0907H13.9091V23.7271H15.6019C15.7854 25.1669 16.4419 26.5051 17.4683 27.5314C18.4947 28.5578 19.8328 29.2143 21.2727 29.3979V31.0907H22.9091V29.3979C24.349 29.2144 25.6872 28.558 26.7136 27.5316C27.74 26.5052 28.3964 25.167 28.5799 23.7271H30.2727V22.0907H28.5799C28.3963 20.6508 27.7398 19.3127 26.7134 18.2863C25.6871 17.2599 24.3489 16.6034 22.9091 16.4199ZM22.0909 27.818C19.3835 27.818 17.1818 25.6162 17.1818 22.9089C17.1818 20.2015 19.3835 17.9998 22.0909 17.9998C24.7982 17.9998 27 20.2015 27 22.9089C27 25.6162 24.7982 27.818 22.0909 27.818Z" fill="white"/>
</g>
</svg>
