<svg width="17" height="20" viewBox="0 0 17 20" fill="none" xmlns="http://www.w3.org/2000/svg">
<path fill-rule="evenodd" clip-rule="evenodd" d="M8.75 0C13.299 0 17 3.729 17 8.313C17 13.948 10.544 19.5 8.75 19.5C6.956 19.5 0.5 13.948 0.5 8.313C0.5 3.729 4.201 0 8.75 0ZM8.75 1.5C5.028 1.5 2 4.557 2 8.313C2 13.092 7.624 17.748 8.75 17.996C9.876 17.747 15.5 13.091 15.5 8.313C15.5 4.557 12.472 1.5 8.75 1.5ZM8.751 5C10.543 5 12.001 6.458 12.001 8.251C12.001 10.043 10.543 11.5 8.751 11.5C6.959 11.5 5.501 10.043 5.501 8.251C5.501 6.458 6.959 5 8.751 5ZM8.751 6.5C7.786 6.5 7.001 7.285 7.001 8.251C7.001 9.216 7.786 10 8.751 10C9.716 10 10.501 9.216 10.501 8.251C10.501 7.285 9.716 6.5 8.751 6.5Z" fill="#606970"/>
</svg>
