<svg width="312" height="289" viewBox="0 0 312 289" fill="none" xmlns="http://www.w3.org/2000/svg">
<path d="M152.984 270.683C223.435 270.683 280.547 213.571 280.547 143.121C280.547 72.6697 223.435 15.558 152.984 15.558C82.5337 15.558 25.422 72.6697 25.422 143.121C25.422 213.571 82.5337 270.683 152.984 270.683Z" fill="#5FBB46"/>
<path d="M56.539 152.579V167.169H54.2607L52.693 163.323C51.0348 166.179 48.4639 167.608 44.9802 167.608C41.0924 167.608 38.187 166.13 36.2641 163.176C34.355 160.222 33.4005 156.801 33.4005 152.913C33.4005 148.803 34.4665 145.326 36.5985 142.483C38.7444 139.627 41.7404 138.198 45.5864 138.198C48.4569 138.198 50.8188 139.035 52.6721 140.707C54.5254 142.365 55.6959 144.434 56.1837 146.915L51.7106 147.709C50.8746 144.225 48.8749 142.483 45.7118 142.483C43.6912 142.483 42.04 143.305 40.758 144.95C39.4899 146.594 38.8559 149.123 38.8559 152.537C38.8559 159.741 41.1133 163.344 45.6282 163.344C47.3839 163.344 48.8331 162.737 49.9758 161.525C51.1323 160.313 51.7106 158.71 51.7106 156.718H45.8163V152.579H56.539ZM66.8855 167.169H62.1198V146.058H66.4256V151.095C67.0388 149.13 67.8818 147.695 68.9548 146.789C70.0277 145.883 71.1286 145.431 72.2573 145.431C72.4106 145.431 72.6196 145.437 72.8844 145.451V150.572C70.4597 150.572 68.8503 151.346 68.056 152.893C67.2757 154.439 66.8855 155.937 66.8855 157.386V167.169ZM84.5895 167.608C81.4681 167.608 79.0853 166.486 77.441 164.242C75.7967 161.999 74.9745 159.428 74.9745 156.529C74.9745 153.408 75.8803 150.809 77.6918 148.733C79.5172 146.657 81.921 145.619 84.903 145.619C87.7317 145.619 90.0518 146.629 91.8634 148.649C93.6888 150.67 94.6015 153.297 94.6015 156.529C94.6015 159.86 93.654 162.542 91.7588 164.577C89.8777 166.597 87.4879 167.608 84.5895 167.608ZM84.7567 163.678C87.9617 163.678 89.5641 161.288 89.5641 156.509C89.5641 154.349 89.1809 152.649 88.4145 151.408C87.6481 150.154 86.4706 149.527 84.8821 149.527C83.2378 149.527 82.0185 150.175 81.2242 151.471C80.43 152.753 80.0328 154.46 80.0328 156.592C80.0328 158.891 80.4509 160.647 81.2869 161.859C82.137 163.072 83.2935 163.678 84.7567 163.678ZM111.177 159.414L115.274 159.832C114.744 162.48 113.72 164.437 112.201 165.705C110.682 166.973 108.85 167.608 106.704 167.608C103.791 167.608 101.548 166.548 99.9733 164.43C98.4126 162.298 97.6323 159.693 97.6323 156.613C97.6323 153.436 98.4893 150.809 100.203 148.733C101.917 146.657 104.203 145.619 107.059 145.619C111.658 145.619 114.396 148.043 115.274 152.893L111.177 153.457C110.814 150.837 109.526 149.527 107.31 149.527C105.694 149.527 104.516 150.238 103.777 151.659C103.053 153.067 102.691 154.774 102.691 156.78C102.691 158.912 103.067 160.557 103.819 161.713C104.586 162.87 105.652 163.448 107.017 163.448C109.108 163.448 110.494 162.103 111.177 159.414ZM132.351 160.438L136.656 161.023C136.099 162.932 135.012 164.507 133.396 165.747C131.779 166.987 129.752 167.608 127.313 167.608C124.387 167.608 122.032 166.625 120.248 164.66C118.465 162.696 117.573 160.034 117.573 156.676C117.573 153.485 118.472 150.844 120.269 148.754C122.067 146.664 124.505 145.619 127.585 145.619C130.595 145.619 132.922 146.65 134.566 148.712C136.21 150.774 137.033 153.422 137.033 156.655L137.012 157.198H122.527C122.527 158.634 122.659 159.783 122.924 160.647C123.202 161.511 123.746 162.264 124.554 162.905C125.362 163.546 126.373 163.866 127.585 163.866C129.94 163.866 131.528 162.723 132.351 160.438ZM132.058 154.126C132.044 152.607 131.584 151.367 130.678 150.405C129.787 149.444 128.679 148.963 127.355 148.963C126.045 148.963 124.951 149.416 124.073 150.322C123.195 151.213 122.68 152.481 122.527 154.126H132.058ZM146.146 167.169H141.38V146.058H145.686V151.095C146.299 149.13 147.142 147.695 148.215 146.789C149.288 145.883 150.389 145.431 151.518 145.431C151.671 145.431 151.88 145.437 152.145 145.451V150.572C149.72 150.572 148.111 151.346 147.316 152.893C146.536 154.439 146.146 155.937 146.146 157.386V167.169ZM171.354 146.058L163.139 170.095C162.637 171.572 161.948 172.715 161.07 173.523C160.206 174.345 158.98 174.756 157.391 174.756C156.764 174.756 155.851 174.707 154.653 174.61V170.826L156.931 170.868C157.935 170.868 158.673 170.701 159.147 170.367C159.635 170.046 160.018 169.468 160.296 168.632C160.575 167.796 160.715 167.308 160.715 167.169C160.715 167.085 160.568 166.653 160.276 165.873L153.023 146.058H158.018L163.139 159.978L167.549 146.058H171.354Z" fill="#E1252A"/>
<path d="M245.768 157.287V171.877H243.49L241.922 168.031C240.264 170.887 237.693 172.316 234.21 172.316C230.322 172.316 227.416 170.839 225.494 167.884C223.584 164.93 222.63 161.509 222.63 157.622C222.63 153.511 223.696 150.034 225.828 147.191C227.974 144.335 230.97 142.907 234.816 142.907C237.686 142.907 240.048 143.743 241.902 145.415C243.755 147.073 244.925 149.142 245.413 151.623L240.94 152.417C240.104 148.933 238.104 147.191 234.941 147.191C232.921 147.191 231.269 148.014 229.987 149.658C228.719 151.302 228.085 153.831 228.085 157.245C228.085 164.45 230.343 168.052 234.858 168.052C236.613 168.052 238.063 167.445 239.205 166.233C240.362 165.021 240.94 163.418 240.94 161.426H235.046V157.287H245.768ZM259.606 172.316C256.484 172.316 254.101 171.194 252.457 168.95C250.813 166.707 249.991 164.136 249.991 161.238C249.991 158.116 250.896 155.517 252.708 153.441C254.533 151.365 256.937 150.327 259.919 150.327C262.748 150.327 265.068 151.337 266.879 153.358C268.705 155.378 269.618 158.005 269.618 161.238C269.618 164.568 268.67 167.25 266.775 169.285C264.894 171.305 262.504 172.316 259.606 172.316ZM259.773 168.386C262.978 168.386 264.58 165.996 264.58 161.217C264.58 159.057 264.197 157.357 263.431 156.117C262.664 154.862 261.487 154.235 259.898 154.235C258.254 154.235 257.035 154.883 256.24 156.179C255.446 157.461 255.049 159.168 255.049 161.3C255.049 163.6 255.467 165.355 256.303 166.568C257.153 167.78 258.31 168.386 259.773 168.386Z" fill="#E1252A"/>
<path d="M196.009 182.748C208.106 182.748 217.912 172.942 217.912 160.845C217.912 148.748 208.106 138.942 196.009 138.942C183.912 138.942 174.106 148.748 174.106 160.845C174.106 172.942 183.912 182.748 196.009 182.748Z" fill="#FFF200" stroke="#ED1C24" stroke-width="4.07042" stroke-miterlimit="10"/>
<path d="M208.481 159.104L206.699 170.224L183.215 171.675L194.16 158.079C195.044 156.996 195.617 156.166 195.88 155.587C196.153 154.998 196.29 154.404 196.29 153.805C196.29 153.195 196.1 152.711 195.722 152.354C195.354 151.986 194.844 151.802 194.192 151.802C193.025 151.802 191.879 152.317 190.754 153.348C189.639 154.378 188.567 155.903 187.536 157.921L184.051 148.616L187.158 151.975C188.945 150.472 190.691 149.363 192.394 148.648C194.108 147.933 195.885 147.575 197.725 147.575C200.448 147.575 202.625 148.19 204.255 149.42C205.884 150.64 206.699 152.265 206.699 154.294C206.699 155.861 206.284 157.222 205.453 158.379C204.633 159.535 203.108 160.802 200.879 162.18L192.031 167.605L206.053 163.994L208.481 159.104Z" fill="#ED1C24"/>
<path d="M168.154 85.2347H166.268V70.5811C166.296 69.2025 166.05 67.832 165.542 66.55C165.035 65.2679 164.276 64.1001 163.311 63.1149C162.346 62.1298 161.195 61.3471 159.924 60.8127C158.652 60.2784 157.287 60.0032 155.908 60.0032C154.53 60.0032 153.165 60.2784 151.893 60.8127C150.622 61.3471 149.47 62.1298 148.506 63.1149C147.541 64.1001 146.782 65.2679 146.275 66.55C145.767 67.832 145.52 69.2025 145.549 70.5811V85.2347H143.663V70.5811C143.725 67.3743 145.042 64.3195 147.332 62.0734C149.622 59.8273 152.701 58.569 155.908 58.569C159.116 58.569 162.195 59.8273 164.485 62.0734C166.775 64.3195 168.092 67.3743 168.154 70.5811V85.2347Z" fill="#ED1C24"/>
<path d="M181.31 79.1019L138.123 78.9074C137.337 78.9053 136.562 79.0968 135.867 79.4652C135.172 79.8335 134.578 80.3674 134.139 81.0195V135.744C144.777 135.18 155.165 132.306 164.581 127.323C167.665 125.686 171.491 123.601 172.581 120.349L184.883 83.6156C185.666 81.2954 183.942 79.1155 181.31 79.1019Z" fill="#11405A"/>
<path d="M127.336 78.3013C127.368 79.3778 127.377 80.4632 127.382 81.5396C127.382 84.2532 127.626 98.3459 127.59 102.652C127.54 108.002 127.458 113.506 125.781 118.666C125.08 120.81 123.84 122.972 121.9 124.211C119.851 125.518 116.685 125.202 114.424 124.749C112.52 124.383 110.682 123.733 108.97 122.823C106.533 121.52 104.446 119.649 102.887 117.368C102.352 116.587 101.897 115.754 101.53 114.881C103.647 128.132 115.098 136.196 128.033 136.59C136.075 136.83 144.087 135.504 151.623 132.687C155.479 131.245 159.177 129.411 162.659 127.214C165.485 125.428 168.99 123.144 169.687 119.634L177.574 79.8345C177.694 79.2422 177.68 78.6307 177.534 78.0444C177.388 77.4581 177.113 76.9118 176.729 76.4449C176.345 75.9781 175.863 75.6026 175.316 75.3456C174.769 75.0886 174.172 74.9565 173.567 74.9591H131.348C130.394 74.9575 129.469 75.2913 128.736 75.9022C128.002 76.5131 127.507 77.3623 127.336 78.3013Z" fill="#FFF200"/>
<path d="M148.344 126.35L147.86 125.446L144.391 118.445C143.636 118.897 142.673 119.417 141.479 120.019C139.585 120.952 137.619 121.73 135.599 122.348C131.588 123.656 127.399 124.34 123.18 124.374C120.122 124.385 117.077 123.966 114.135 123.13C105.953 120.783 98.6444 114.614 95.5147 107.418L98.4274 106.152C98.6257 106.383 98.8419 106.598 99.0741 106.794C99.2098 106.912 99.3364 107.029 99.4404 107.134C100.612 108.261 101.907 109.252 103.303 110.087C106.654 112.104 110.892 113.171 115.568 113.171C116.509 113.171 117.472 113.126 118.422 113.036C122.957 112.55 127.32 111.033 131.176 108.599C131.312 108.508 131.443 108.422 131.565 108.332L121.299 107.278L121.068 106.021C121.012 105.662 121.078 105.295 121.254 104.977C121.43 104.659 121.707 104.409 122.04 104.266L155.327 89.6171H156.431L156.946 90.2096C157.101 90.3959 157.213 90.6143 157.273 90.8489C157.333 91.0835 157.341 91.3286 157.295 91.5664L150.664 126.337L149.308 126.378L148.344 126.35Z" fill="#11405A"/>
<path d="M155.694 91.182C155.701 91.1825 155.709 91.1846 155.715 91.1882C155.722 91.1917 155.728 91.1966 155.733 91.2026C155.737 91.2086 155.741 91.2154 155.742 91.2228C155.744 91.2302 155.745 91.2378 155.743 91.2453L149.362 124.713C149.36 124.726 149.353 124.738 149.343 124.746C149.333 124.754 149.321 124.759 149.308 124.758C149.298 124.759 149.288 124.756 149.28 124.75C149.271 124.745 149.265 124.736 149.262 124.727L144.93 115.98C145.079 116.283 141.067 118.418 140.737 118.58C138.922 119.477 137.038 120.224 135.102 120.815C131.249 122.071 127.227 122.728 123.175 122.764H123.117C120.231 122.768 117.359 122.371 114.582 121.584C107.233 119.471 100.11 113.895 96.9845 106.763C97.2197 107.305 97.9343 107.853 98.3413 108.246C99.5983 109.456 100.99 110.519 102.489 111.412C106.365 113.746 111.014 114.723 115.568 114.723C116.577 114.723 117.585 114.673 118.571 114.582C123.368 114.077 127.984 112.475 132.063 109.901C134.12 108.545 134.971 107.486 135.228 107.084L122.692 105.831C122.682 105.827 122.674 105.82 122.668 105.811C122.662 105.802 122.659 105.792 122.659 105.781C122.659 105.771 122.662 105.76 122.668 105.751C122.674 105.743 122.682 105.736 122.692 105.731L155.707 91.2091H155.73M155.73 88.0432H155.06L154.427 88.3146L121.398 102.801C120.745 103.087 120.206 103.582 119.864 104.207C119.521 104.833 119.396 105.554 119.506 106.258C119.617 106.962 119.957 107.61 120.474 108.101C120.992 108.591 121.657 108.897 122.366 108.97L126.273 109.368C123.729 110.451 121.037 111.148 118.286 111.435C117.382 111.521 116.477 111.561 115.573 111.561C111.19 111.561 107.233 110.575 104.13 108.707C102.84 107.942 101.641 107.031 100.557 105.994C100.435 105.876 100.295 105.75 100.146 105.614C99.9966 105.478 99.7841 105.288 99.6936 105.207C99.7675 105.302 99.8284 105.407 99.8745 105.519L94.0719 108.034C97.378 115.645 105.085 122.162 113.705 124.641C116.764 125.508 119.928 125.948 123.108 125.948H123.175C127.553 125.913 131.898 125.205 136.061 123.849C138.157 123.205 140.199 122.394 142.166 121.425C142.352 121.33 142.967 121.005 143.677 120.611L146.418 126.142C146.68 126.686 147.09 127.143 147.602 127.464C148.113 127.784 148.704 127.953 149.308 127.951C150.057 127.948 150.783 127.685 151.36 127.207C151.938 126.728 152.331 126.064 152.473 125.328L158.855 91.8604C158.943 91.3942 158.928 90.9143 158.81 90.4548C158.692 89.9953 158.474 89.5674 158.171 89.2017C157.869 88.836 157.49 88.5413 157.061 88.3388C156.632 88.1362 156.164 88.0307 155.689 88.0297L155.73 88.0432Z" fill="#F4F4F4"/>
<path d="M141.483 86.0894C141.483 86.5689 141.341 87.0376 141.075 87.4362C140.808 87.8349 140.43 88.1456 139.987 88.3291C139.544 88.5126 139.056 88.5606 138.586 88.467C138.116 88.3735 137.684 88.1426 137.345 87.8036C137.006 87.4646 136.775 87.0326 136.682 86.5624C136.588 86.0921 136.636 85.6047 136.82 85.1618C137.003 84.7188 137.314 84.3402 137.712 84.0738C138.111 83.8075 138.58 83.6653 139.059 83.6653C139.702 83.6653 140.319 83.9207 140.773 84.3753C141.228 84.8299 141.483 85.4465 141.483 86.0894Z" fill="#ED1C24"/>
<path d="M139.059 88.9839C138.486 88.9839 137.925 88.8138 137.448 88.495C136.971 88.1763 136.6 87.7233 136.38 87.1933C136.161 86.6633 136.104 86.0801 136.216 85.5177C136.328 84.9552 136.605 84.4386 137.011 84.0334C137.417 83.6281 137.934 83.3524 138.496 83.241C139.059 83.1297 139.642 83.1877 140.172 83.4078C140.701 83.6279 141.154 84.0002 141.472 84.4776C141.79 84.9549 141.959 85.5159 141.958 86.0894C141.957 86.8575 141.651 87.5937 141.108 88.1364C140.564 88.6791 139.827 88.9839 139.059 88.9839ZM139.059 84.1356C138.673 84.1356 138.295 84.2502 137.974 84.4649C137.652 84.6796 137.402 84.9847 137.254 85.3417C137.106 85.6987 137.068 86.0916 137.143 86.4706C137.218 86.8496 137.404 87.1977 137.678 87.471C137.951 87.7442 138.299 87.9303 138.678 88.0057C139.057 88.0811 139.45 88.0424 139.807 87.8945C140.164 87.7466 140.469 87.4962 140.684 87.1749C140.898 86.8536 141.013 86.4758 141.013 86.0894C141.015 85.8317 140.966 85.5762 140.868 85.3376C140.771 85.0989 140.627 84.882 140.446 84.6991C140.264 84.5162 140.048 84.3711 139.81 84.2721C139.572 84.173 139.317 84.122 139.059 84.122V84.1356Z" fill="#ED1C24"/>
<path d="M164.088 86.0894C164.088 86.5689 163.946 87.0376 163.679 87.4362C163.413 87.8349 163.034 88.1456 162.591 88.3291C162.148 88.5126 161.661 88.5606 161.191 88.467C160.72 88.3735 160.288 88.1426 159.949 87.8036C159.61 87.4646 159.38 87.0326 159.286 86.5624C159.192 86.0921 159.24 85.6047 159.424 85.1618C159.607 84.7188 159.918 84.3402 160.317 84.0738C160.715 83.8075 161.184 83.6653 161.664 83.6653C162.307 83.6653 162.923 83.9207 163.378 84.3753C163.832 84.8299 164.088 85.4465 164.088 86.0894Z" fill="#ED1C24"/>
<path d="M161.664 88.9839C161.09 88.9839 160.529 88.8138 160.053 88.495C159.576 88.1763 159.204 87.7233 158.985 87.1933C158.766 86.6633 158.708 86.0801 158.821 85.5177C158.933 84.9552 159.209 84.4386 159.615 84.0334C160.021 83.6281 160.538 83.3524 161.101 83.241C161.664 83.1297 162.247 83.1877 162.776 83.4078C163.306 83.6279 163.758 84.0002 164.076 84.4776C164.394 84.9549 164.564 85.5159 164.563 86.0894C164.561 86.8575 164.256 87.5937 163.712 88.1364C163.168 88.6791 162.432 88.9839 161.664 88.9839ZM161.664 84.1356C161.277 84.1356 160.899 84.2502 160.578 84.4649C160.257 84.6796 160.006 84.9847 159.859 85.3417C159.711 85.6987 159.672 86.0916 159.747 86.4706C159.823 86.8496 160.009 87.1977 160.282 87.471C160.555 87.7442 160.903 87.9303 161.282 88.0057C161.661 88.0811 162.054 88.0424 162.411 87.8945C162.768 87.7466 163.073 87.4962 163.288 87.1749C163.503 86.8536 163.617 86.4758 163.617 86.0894C163.62 85.8315 163.571 85.5757 163.474 85.3369C163.377 85.098 163.233 84.8807 163.051 84.6978C162.87 84.5148 162.653 84.3697 162.415 84.2708C162.177 84.172 161.922 84.1214 161.664 84.122V84.1356Z" fill="#ED1C24"/>
<path d="M162.609 86.0894H160.723V71.4314C160.666 68.7214 159.55 66.1416 157.613 64.245C155.677 62.3485 153.074 61.2864 150.364 61.2864C147.653 61.2864 145.05 62.3485 143.114 64.245C141.177 66.1416 140.061 68.7214 140.004 71.4314V86.0894H138.118V71.4314C138.18 68.2245 139.497 65.1698 141.787 62.9237C144.077 60.6775 147.156 59.4193 150.364 59.4193C153.571 59.4193 156.651 60.6775 158.94 62.9237C161.23 65.1698 162.547 68.2245 162.609 71.4314V86.0894Z" fill="#ED1C24"/>
<path d="M177.05 69.6901C177.05 69.6901 188.456 71.9244 188.926 85.1306C189.397 98.3369 180.464 107.744 180.464 107.744C180.464 107.744 194.358 97.2379 193.73 80.9562C193.101 64.6745 177.05 69.6901 177.05 69.6901Z" fill="#11405A"/>
</svg>
