<svg width="20" height="20" viewBox="0 0 20 20" fill="none" xmlns="http://www.w3.org/2000/svg">
<path d="M10 2.70898C10.3452 2.70898 10.625 2.98881 10.625 3.33398C10.625 3.67916 10.3452 3.95898 10 3.95898C6.66328 3.95898 3.95833 6.66393 3.95833 10.0007C3.95833 13.3374 6.66328 16.0423 10 16.0423C10.3452 16.0423 10.625 16.3221 10.625 16.6673C10.625 17.0125 10.3452 17.2923 10 17.2923C5.97292 17.2923 2.70833 14.0277 2.70833 10.0007C2.70833 5.97357 5.97292 2.70898 10 2.70898Z" fill="#FF4D4F"/>
<path d="M13.7247 7.94259C13.4806 7.69851 13.4806 7.30279 13.7247 7.05871C13.9688 6.81463 14.3645 6.81463 14.6086 7.05871L17.1086 9.55871C17.3527 9.80279 17.3527 10.1985 17.1086 10.4426L14.6086 12.9426C14.3645 13.1867 13.9688 13.1867 13.7247 12.9426C13.4806 12.6985 13.4806 12.3028 13.7247 12.0587L15.1578 10.6257H8.33333C7.98815 10.6257 7.70833 10.3458 7.70833 10.0007C7.70833 9.65547 7.98815 9.37565 8.33333 9.37565H15.1578L13.7247 7.94259Z" fill="#FF4D4F"/>
</svg>
