<svg width="47" height="47" viewBox="0 0 47 47" fill="none" xmlns="http://www.w3.org/2000/svg">
<rect x="0.931351" y="1.39258" width="44.67" height="44.6684" rx="16.5" stroke="#C2D0DC"/>
<path d="M31.7663 23.7267C31.7663 24.1025 31.6222 24.4658 31.3527 24.7289C31.0896 24.9982 30.7261 25.1485 30.3502 25.1485H24.6856H21.847H16.1825C15.8065 25.1485 15.4431 24.9982 15.1799 24.7289C14.9167 24.4658 14.7663 24.1025 14.7663 23.7267C14.7663 23.3508 14.9167 22.9938 15.1799 22.7244C15.4431 22.4614 15.8065 22.311 16.1825 22.311H21.847H24.6856H30.3502C30.7261 22.311 31.0896 22.4614 31.3527 22.7244C31.6222 22.9938 31.7663 23.3508 31.7663 23.7267Z" fill="#9BA6B0"/>
</svg>
