<svg width="226" height="192" viewBox="0 0 226 192" fill="none" xmlns="http://www.w3.org/2000/svg">
<g clip-path="url(#clip0_52_3588)">
<path opacity="0.6" d="M113 127.688C163.707 127.688 204.812 118.597 204.812 107.383C204.812 96.1688 163.707 87.0781 113 87.0781C62.2934 87.0781 21.1875 96.1688 21.1875 107.383C21.1875 118.597 62.2934 127.688 113 127.688Z" fill="#9BA6B0"/>
<path d="M179.414 52.5016L150.117 19.5353C148.711 17.2882 146.658 15.9297 144.495 15.9297H81.5052C79.3424 15.9297 77.2894 17.2882 75.8831 19.5324L46.5858 52.5045V78.9848H179.414V52.5016Z" stroke="#9BA6B0" stroke-width="1.76562"/>
<path d="M140.758 61.5891C140.758 56.989 143.629 53.1913 147.189 53.1885H179.414V105.172C179.414 111.256 175.603 116.244 170.896 116.244H55.1041C50.3974 116.244 46.5858 111.254 46.5858 105.172V53.1885H78.8111C82.3715 53.1885 85.2417 56.9804 85.2417 61.5805V61.6436C85.2417 66.2437 88.1438 69.9583 91.7012 69.9583H134.299C137.856 69.9583 140.758 66.2093 140.758 61.6092V61.5891V61.5891Z" fill="#9BA6B0" stroke="#9BA6B0" stroke-width="1.76562"/>
<path d="M69.5075 185.938V164.891H71.824L83.915 181.898L82.8697 182.011V164.891H85.6665V185.938H83.35L71.3155 168.818L72.276 168.705V185.938H69.5075ZM97.2852 186.277C95.8162 186.277 94.4884 185.938 93.3019 185.259C92.1154 184.563 91.1737 183.612 90.4769 182.406C89.7801 181.201 89.4317 179.835 89.4317 178.31C89.4317 176.784 89.7707 175.428 90.4487 174.242C91.1455 173.055 92.0872 172.114 93.2737 171.417C94.4602 170.72 95.7973 170.372 97.2852 170.372C98.7542 170.372 100.082 170.72 101.268 171.417C102.455 172.095 103.387 173.027 104.065 174.214C104.762 175.4 105.11 176.766 105.11 178.31C105.11 179.854 104.753 181.229 104.037 182.434C103.321 183.621 102.37 184.563 101.184 185.259C100.016 185.938 98.7165 186.277 97.2852 186.277ZM97.2852 183.734C98.2268 183.734 99.0743 183.499 99.8277 183.028C100.6 182.557 101.202 181.907 101.636 181.078C102.088 180.25 102.314 179.327 102.314 178.31C102.314 177.274 102.088 176.361 101.636 175.57C101.202 174.76 100.6 174.12 99.8277 173.649C99.0743 173.159 98.2268 172.914 97.2852 172.914C96.3247 172.914 95.4583 173.159 94.6862 173.649C93.9328 174.12 93.3302 174.76 92.8782 175.57C92.4262 176.361 92.2002 177.274 92.2002 178.31C92.2002 179.327 92.4262 180.25 92.8782 181.078C93.3302 181.907 93.9328 182.557 94.6862 183.028C95.4583 183.499 96.3247 183.734 97.2852 183.734ZM113.731 185.938V164.891H116.499V183.395H125.737V185.938H113.731ZM128.538 185.938V170.711H131.166V185.938H128.538ZM128.538 168.281V164.891H131.166V168.281H128.538ZM140.694 186.277C139.169 186.277 137.841 185.9 136.711 185.146C135.581 184.393 134.781 183.376 134.31 182.095L136.4 181.078C136.834 181.982 137.427 182.698 138.18 183.225C138.933 183.753 139.772 184.016 140.694 184.016C141.523 184.016 142.21 183.819 142.757 183.423C143.303 183.028 143.576 182.51 143.576 181.869C143.576 181.417 143.444 181.06 143.18 180.796C142.936 180.513 142.634 180.297 142.276 180.146C141.919 179.977 141.589 179.854 141.288 179.779L138.999 179.129C137.625 178.734 136.617 178.169 135.977 177.434C135.355 176.7 135.044 175.843 135.044 174.863C135.044 173.959 135.27 173.178 135.722 172.519C136.193 171.841 136.824 171.313 137.615 170.937C138.425 170.56 139.329 170.372 140.327 170.372C141.664 170.372 142.86 170.711 143.915 171.389C144.988 172.067 145.751 173.018 146.203 174.242L144.056 175.231C143.717 174.44 143.209 173.818 142.531 173.366C141.853 172.895 141.09 172.66 140.242 172.66C139.47 172.66 138.858 172.858 138.406 173.253C137.954 173.63 137.728 174.11 137.728 174.694C137.728 175.127 137.841 175.485 138.067 175.767C138.293 176.031 138.566 176.238 138.886 176.389C139.207 176.521 139.517 176.634 139.819 176.728L142.305 177.462C143.548 177.82 144.508 178.376 145.186 179.129C145.883 179.883 146.231 180.787 146.231 181.841C146.231 182.689 145.996 183.451 145.525 184.129C145.054 184.807 144.405 185.335 143.576 185.711C142.747 186.088 141.787 186.277 140.694 186.277ZM155.857 186.107C154.37 186.107 153.221 185.683 152.411 184.836C151.62 183.988 151.224 182.792 151.224 181.248V173.225H148.456V170.711H149.021C149.699 170.711 150.236 170.504 150.631 170.089C151.027 169.675 151.224 169.129 151.224 168.451V167.208H153.852V170.711H157.27V173.225H153.852V181.163C153.852 181.672 153.927 182.114 154.078 182.491C154.247 182.868 154.52 183.169 154.897 183.395C155.274 183.602 155.773 183.706 156.394 183.706C156.526 183.706 156.686 183.696 156.874 183.677C157.082 183.659 157.27 183.64 157.439 183.621V185.938C157.195 185.994 156.921 186.032 156.62 186.051C156.319 186.088 156.065 186.107 155.857 186.107Z" fill="#9BA6B0"/>
</g>
<defs>
<clipPath id="clip0_52_3588">
<rect width="226" height="191.375" fill="white" transform="translate(0 0.5625)"/>
</clipPath>
</defs>
</svg>
