<svg width="60" height="60" viewBox="0 0 60 60" fill="none" xmlns="http://www.w3.org/2000/svg">
<rect width="60" height="60" rx="10" fill="#DCDCDC"/>
<path d="M29.9961 10.002C41.0561 10.002 49.9961 18.962 49.9961 30.002C49.9961 41.062 41.0561 50.002 29.9961 50.002C18.9561 50.002 9.99609 41.062 9.99609 30.002C9.99609 18.962 18.9561 10.002 29.9961 10.002ZM29.2961 19.862C28.4761 19.862 27.7961 20.522 27.7961 21.362V31.462C27.7961 31.982 28.0761 32.462 28.5361 32.742L36.3761 37.422C36.6161 37.562 36.8761 37.642 37.1561 37.642C37.6561 37.642 38.1561 37.382 38.4361 36.902C38.8561 36.202 38.6361 35.282 37.9161 34.842L30.7961 30.602V21.362C30.7961 20.522 30.1161 19.862 29.2961 19.862Z" fill="#333333"/>
</svg>
