<svg width="47" height="47" viewBox="0 0 47 47" fill="none" xmlns="http://www.w3.org/2000/svg">
<rect x="0.655029" y="0.84375" width="45.67" height="45.6684" rx="17" fill="url(#paint0_linear_409_3668)"/>
<path d="M31.99 23.6777C31.99 24.0536 31.8459 24.4169 31.5764 24.6799C31.3132 24.9493 30.9498 25.0996 30.5738 25.0996H24.9093V30.7621C24.9093 31.1379 24.7589 31.5012 24.4894 31.7643C24.2263 32.0274 23.8691 32.1777 23.4931 32.1777C23.1172 32.1777 22.7537 32.0274 22.4905 31.7643C22.2211 31.5012 22.0707 31.1379 22.0707 30.7621V25.0996H16.4061C16.0302 25.0996 15.6667 24.9493 15.4036 24.6799C15.1404 24.4169 14.99 24.0536 14.99 23.6777C14.99 23.3019 15.1404 22.9449 15.4036 22.6755C15.6667 22.4124 16.0302 22.2621 16.4061 22.2621H22.0707V16.5996C22.0707 16.2238 22.2211 15.8605 22.4905 15.5974C22.7537 15.3281 23.1172 15.1777 23.4931 15.1777C23.8691 15.1777 24.2263 15.3281 24.4894 15.5974C24.7589 15.8605 24.9093 16.2238 24.9093 16.5996V22.2621H30.5738C30.9498 22.2621 31.3132 22.4124 31.5764 22.6755C31.8459 22.9449 31.99 23.3019 31.99 23.6777Z" fill="white"/>
<defs>
<linearGradient id="paint0_linear_409_3668" x1="46.325" y1="23.5396" x2="0.655029" y2="23.5396" gradientUnits="userSpaceOnUse">
<stop stop-color="#FF2D08"/>
<stop offset="1" stop-color="#CF240A"/>
</linearGradient>
</defs>
</svg>
