<svg width="46" height="47" viewBox="0 0 46 47" fill="none" xmlns="http://www.w3.org/2000/svg">
<rect x="0.601349" y="1.39258" width="44.67" height="44.6684" rx="16.5" stroke="#C2D0DC"/>
<path d="M31.4363 23.7266C31.4363 24.1024 31.2922 24.4657 31.0227 24.7288C30.7596 24.9981 30.3961 25.1484 30.0202 25.1484H24.3556V30.8109C24.3556 31.1868 24.2052 31.5501 23.9358 31.8132C23.6726 32.0762 23.3154 32.2266 22.9394 32.2266C22.5635 32.2266 22.2 32.0762 21.9369 31.8132C21.6674 31.5501 21.517 31.1868 21.517 30.8109V25.1484H15.8525C15.4765 25.1484 15.1131 24.9981 14.8499 24.7288C14.5867 24.4657 14.4363 24.1024 14.4363 23.7266C14.4363 23.3507 14.5867 22.9937 14.8499 22.7244C15.1131 22.4613 15.4765 22.3109 15.8525 22.3109H21.517V16.6484C21.517 16.2726 21.6674 15.9093 21.9369 15.6462C22.2 15.3769 22.5635 15.2266 22.9394 15.2266C23.3154 15.2266 23.6726 15.3769 23.9358 15.6462C24.2052 15.9093 24.3556 16.2726 24.3556 16.6484V22.3109H30.0202C30.3961 22.3109 30.7596 22.4613 31.0227 22.7244C31.2922 22.9937 31.4363 23.3507 31.4363 23.7266Z" fill="#FF2D08"/>
</svg>
