<svg width="18" height="18" viewBox="0 0 18 18" fill="none" xmlns="http://www.w3.org/2000/svg">
<path d="M17.4363 8.72656C17.4363 9.10239 17.2922 9.46569 17.0227 9.72877C16.7596 9.99812 16.3961 10.1484 16.0202 10.1484H10.3556V15.8109C10.3556 16.1868 10.2052 16.5501 9.93576 16.8132C9.67258 17.0762 9.31541 17.2266 8.93944 17.2266C8.56347 17.2266 8.20004 17.0762 7.93686 16.8132C7.66742 16.5501 7.51703 16.1868 7.51703 15.8109V10.1484H1.85245C1.47649 10.1484 1.11305 9.99812 0.849874 9.72877C0.586697 9.46569 0.43631 9.10239 0.43631 8.72656C0.43631 8.35073 0.586697 7.9937 0.849874 7.72435C1.11305 7.46127 1.47649 7.31094 1.85245 7.31094H7.51703V1.64845C7.51703 1.27262 7.66742 0.909319 7.93686 0.646238C8.20004 0.376894 8.56347 0.226562 8.93944 0.226562C9.31541 0.226562 9.67258 0.376894 9.93576 0.646238C10.2052 0.909319 10.3556 1.27262 10.3556 1.64845V7.31094H16.0202C16.3961 7.31094 16.7596 7.46127 17.0227 7.72435C17.2922 7.9937 17.4363 8.35073 17.4363 8.72656Z" fill="#FF2D08"/>
</svg>
