<svg width="32" height="32" viewBox="0 0 32 32" fill="none" xmlns="http://www.w3.org/2000/svg">
<path fill-rule="evenodd" clip-rule="evenodd" d="M26.4532 24.2577C26.4532 28.6524 20.4265 29.1604 15.8945 29.1604L15.5702 29.1601C12.6828 29.1531 5.3332 28.9708 5.3332 24.231C5.3332 19.9261 11.1177 19.3507 15.6152 19.329L16.2188 19.3287C19.1061 19.3357 26.4532 19.518 26.4532 24.2577ZM15.8945 21.3284C10.2132 21.3284 7.3332 22.3044 7.3332 24.231C7.3332 26.175 10.2132 27.1604 15.8945 27.1604C21.5745 27.1604 24.4532 26.1844 24.4532 24.2577C24.4532 22.3137 21.5745 21.3284 15.8945 21.3284ZM15.8945 2.6665C19.7985 2.6665 22.9732 5.8425 22.9732 9.7465C22.9732 13.6505 19.7985 16.8252 15.8945 16.8252H15.8519C11.9559 16.8132 8.79987 13.6358 8.81316 9.7425C8.81316 5.8425 11.9892 2.6665 15.8945 2.6665ZM15.8945 4.5705C13.0399 4.5705 10.7172 6.89184 10.7172 9.7465C10.7079 12.5918 13.0132 14.9118 15.8559 14.9225L15.8945 15.8745V14.9225C18.7479 14.9225 21.0692 12.5998 21.0692 9.7465C21.0692 6.89184 18.7479 4.5705 15.8945 4.5705Z" fill="#9BA6B0"/>
</svg>
