<svg width="40" height="40" viewBox="0 0 40 40" fill="none" xmlns="http://www.w3.org/2000/svg">
<rect width="40" height="40" rx="12" fill="url(#paint0_linear_953_4671)"/>
<path d="M32.1407 16.76L22.2532 25.2256L25.9781 29.5761C26.045 29.6542 26.0874 29.7504 26.0997 29.8526C26.112 29.9548 26.0938 30.0583 26.0473 30.1501C25.9515 30.3377 25.7531 30.4501 25.5431 30.4338L10.8719 29.3223C10.8036 29.3171 10.737 29.2985 10.6759 29.2675C10.6148 29.2365 10.5604 29.1938 10.5158 29.1418C10.4712 29.0899 10.4373 29.0298 10.416 28.9648C10.3946 28.8997 10.3864 28.8311 10.3916 28.7629L11.5335 14.0712C11.5498 13.8612 11.6892 13.6815 11.89 13.6166C12.0907 13.5516 12.3105 13.613 12.4473 13.7727L16.1579 18.1066L26.0454 9.64094C26.2637 9.45402 26.5927 9.4795 26.7796 9.69781" stroke="white"/>
<defs>
<linearGradient id="paint0_linear_953_4671" x1="40" y1="19.8788" x2="8.00361e-09" y2="19.8788" gradientUnits="userSpaceOnUse">
<stop stop-color="#FF2D08"/>
<stop offset="1" stop-color="#CF240A"/>
</linearGradient>
</defs>
</svg>
