<svg width="75" height="74" viewBox="0 0 75 74" fill="none" xmlns="http://www.w3.org/2000/svg">
<circle cx="38" cy="37" r="30" fill="#FF4D4F"/>
<path d="M26.2422 31.8106C29.1954 33.0411 32.2725 33.8191 35.4256 34.1356L33.9392 31.561L28.8704 31.8653C28.3074 31.8991 27.8235 31.47 27.7897 30.9071C27.756 30.3441 28.185 29.8602 28.748 29.8264L32.7973 29.5833L31.8966 28.0233L26.8278 28.3276C26.2648 28.3614 25.781 27.9323 25.7472 27.3694C25.7134 26.8064 26.1424 26.3225 26.7054 26.2887L30.7548 26.0456L29.6236 24.0862C28.4955 22.1323 25.9971 21.4629 24.0432 22.5909C22.0893 23.719 21.4199 26.2174 22.548 28.1713L24.1445 30.9365L26.2422 31.8106ZM38.6808 34.2983C40.028 34.2986 41.3738 34.2152 42.7105 34.0485C42.7463 33.7964 42.766 33.539 42.766 33.277C42.766 30.2688 40.3274 27.8302 37.3191 27.8302C36.3539 27.8291 35.4058 28.0858 34.573 28.5738L37.8723 34.2884C38.1414 34.295 38.4109 34.2983 38.6808 34.2983Z" fill="white"/>
<path d="M44.0876 30.0722C44.8422 28.0765 44.9804 26.5748 44.9824 26.5518C45.0303 25.9898 45.5248 25.5743 46.0865 25.6206C46.6485 25.6684 47.0654 26.1628 47.0176 26.7248C47.0051 26.8714 46.7215 29.9538 44.807 33.3462C44.8059 33.4708 44.8008 33.5945 44.7935 33.7176C46.9514 33.3025 49.0655 32.6659 51.1195 31.8101L52.3487 31.2979C52.1868 30.9003 51.9608 30.532 51.6798 30.2075C53.0662 29.5927 54 28.2122 54 26.6383C54 24.4796 52.2438 22.7234 50.0851 22.7234C49.7431 22.7234 49.4045 22.7693 49.073 22.8602C48.6101 21.1924 47.0933 20 45.3192 20C43.5912 20 42.0953 21.1265 41.5912 22.7412C41.4725 22.7294 41.3533 22.7235 41.234 22.7234C39.3673 22.7234 37.8025 24.0372 37.4132 25.7885C40.357 25.8249 42.8971 27.5681 44.0876 30.0722Z" fill="white"/>
<path d="M51.9051 33.6952C47.6931 35.4503 43.2438 36.3401 38.6808 36.3401C34.1178 36.3401 29.6685 35.4503 25.4566 33.6952C24.7401 33.3967 23.9657 33.9749 24.0484 34.7467C24.3886 37.9222 25.6201 49.5398 25.8957 52.1209C25.9748 52.8734 26.33 53.5698 26.8927 54.0755C27.4554 54.5813 28.1856 54.8605 28.9421 54.8592H48.4195C49.1761 54.8605 49.9063 54.5813 50.469 54.0755C51.0317 53.5697 51.3869 52.8733 51.466 52.1208C51.7415 49.5398 52.9731 37.9222 53.3133 34.7467C53.396 33.9749 52.6215 33.3967 51.9051 33.6952ZM46.5106 48.0507C46.5106 48.6147 46.0534 49.072 45.4893 49.072H31.8723C31.3083 49.072 30.851 48.6147 30.851 48.0507V42.6039C30.851 42.0399 31.3083 41.5826 31.8723 41.5826H45.4893C46.0534 41.5826 46.5106 42.0399 46.5106 42.6039V48.0507Z" fill="white"/>
<path d="M32.8936 43.626H44.4681V47.0302H32.8936V43.626Z" fill="white"/>
<circle cx="8" cy="4" r="4" fill="#FF4D4F"/>
<circle cx="72" cy="11" r="3" fill="#FF4D4F"/>
<circle cx="4" cy="54" r="2" fill="#FF4D4F"/>
<circle cx="26" cy="72" r="2" fill="#FF4D4F"/>
<circle cx="67" cy="65" r="1" fill="#FF4D4F"/>
<circle cx="69.5" cy="45.5" r="1.5" fill="#FF4D4F"/>
<circle cx="49.5" cy="69.5" r="0.5" fill="#FF4D4F"/>
<circle cx="0.5" cy="30.5" r="0.5" fill="#FF4D4F"/>
<circle cx="43" cy="2" r="1" fill="#FF4D4F"/>
</svg>
