<svg width="27" height="27" viewBox="0 0 27 27" fill="none" xmlns="http://www.w3.org/2000/svg">
<circle cx="13.4902" cy="13.0283" r="13" fill="#E2E8ED"/>
<path fill-rule="evenodd" clip-rule="evenodd" d="M13.6597 7.27855C14.8341 6.53611 16.3941 6.33099 17.7417 6.76288C20.6732 7.70827 21.5832 10.9041 20.7693 13.4471C19.5133 17.4409 14.1494 20.4201 13.9219 20.5451C13.841 20.5898 13.7515 20.6122 13.6619 20.6122C13.5723 20.6122 13.4835 20.5906 13.4026 20.5465C13.1766 20.423 7.85162 17.4879 6.55379 13.4478L6.55307 13.4471C5.7384 10.9034 6.64551 7.70683 9.57412 6.76288C10.9492 6.31799 12.4478 6.51372 13.6597 7.27855ZM9.90635 7.79422C7.53674 8.55833 6.94162 11.1071 7.58512 13.117C8.59768 16.2673 12.5981 18.8146 13.6612 19.4451C14.7279 18.8081 18.7572 16.2327 19.7372 13.1199C20.3807 11.1078 19.7835 8.55905 17.4102 7.79422C16.2605 7.42516 14.9193 7.64977 13.9934 8.36622C13.7998 8.51499 13.5312 8.51788 13.3362 8.37055C12.3554 7.63316 11.0742 7.41722 9.90635 7.79422ZM16.7169 9.22848C17.7013 9.54698 18.391 10.4187 18.4755 11.4493C18.4993 11.7476 18.2776 12.009 17.9793 12.0329C17.9642 12.0343 17.9497 12.035 17.9346 12.035C17.6551 12.035 17.4182 11.8205 17.3951 11.5374C17.3474 10.9438 16.9502 10.4425 16.3847 10.2598C16.0994 10.1674 15.9434 9.86187 16.0351 9.57803C16.1283 9.29348 16.4309 9.13892 16.7169 9.22848Z" fill="#FF2D08"/>
</svg>
