<svg width="20" height="20" viewBox="0 0 20 20" fill="none" xmlns="http://www.w3.org/2000/svg">
<path fill-rule="evenodd" clip-rule="evenodd" d="M9.78251 1.66675C14.2575 1.66675 17.8975 5.30675 17.8975 9.78175C17.8975 11.893 17.0873 13.8186 15.7614 15.2638L18.3703 17.8673C18.6145 18.1115 18.6153 18.5065 18.3712 18.7507C18.2495 18.874 18.0887 18.9348 17.9287 18.9348C17.7695 18.9348 17.6095 18.874 17.487 18.7523L14.8466 16.1193C13.4576 17.2316 11.6964 17.8976 9.78251 17.8976C5.30751 17.8976 1.66667 14.2567 1.66667 9.78175C1.66667 5.30675 5.30751 1.66675 9.78251 1.66675ZM9.78251 2.91675C5.99667 2.91675 2.91667 5.99591 2.91667 9.78175C2.91667 13.5676 5.99667 16.6476 9.78251 16.6476C13.5675 16.6476 16.6475 13.5676 16.6475 9.78175C16.6475 5.99591 13.5675 2.91675 9.78251 2.91675Z" fill="#989898"/>
</svg>
