<svg width="33" height="32" viewBox="0 0 33 32" fill="none" xmlns="http://www.w3.org/2000/svg">
<path d="M31.9085 15.3698L28.7376 14.7978V14.4225L29.3367 14.5404C29.4116 14.5552 29.4887 14.5531 29.5626 14.5345C29.6365 14.5158 29.7054 14.4811 29.7643 14.4326C29.8232 14.3842 29.8706 14.3233 29.9031 14.2544C29.9357 14.1855 29.9526 14.1102 29.9526 14.034L29.9526 11.3992C29.9526 11.2822 29.9128 11.1687 29.8398 11.0772C29.7668 10.9858 29.665 10.9219 29.5509 10.8959L15.5459 7.71121C15.3344 3.70179 12.006 0.504883 7.94488 0.504883C3.74772 0.504883 0.333008 3.91959 0.333008 8.11675C0.333008 11.2022 2.17843 13.8648 4.82339 15.0588L0.559137 17.9551C0.489464 18.0024 0.432429 18.0661 0.393012 18.1405C0.353595 18.2149 0.332994 18.2978 0.333008 18.382L0.333008 28.0124C0.333007 28.1222 0.368006 28.2291 0.432919 28.3176C0.497833 28.4062 0.58928 28.4717 0.693976 28.5047L10.106 31.4716C10.1562 31.4874 10.2086 31.4955 10.2612 31.4955L31.8169 31.4955C31.9538 31.4955 32.085 31.4411 32.1818 31.3443C32.2786 31.2475 32.333 31.1162 32.333 30.9793V15.8777C32.333 15.7567 32.2905 15.6396 32.2129 15.5467C32.1353 15.4539 32.0276 15.3913 31.9085 15.3698ZM27.7053 14.6117L26.9295 14.4717V14.0668L27.7053 14.2195V14.6117ZM14.682 11.6564L14.9278 11.7048V12.3068L14.3631 12.2049C14.477 12.0266 14.5834 11.8436 14.682 11.6564ZM15.9601 11.9079L17.2028 12.1525V12.7172L15.9601 12.4931V11.9079ZM18.2351 12.3557L25.8971 13.8636V14.2855L18.2351 12.9034V12.3557ZM28.9202 13.4064L15.1093 10.6884C15.3323 10.0686 15.4733 9.42228 15.5288 8.76591L28.9202 11.8112L28.9202 13.4064ZM1.36527 8.11675C1.36527 4.48875 4.31688 1.53714 7.94488 1.53714C11.5729 1.53714 14.5245 4.48875 14.5245 8.11675C14.5245 11.7448 11.5729 14.6964 7.94488 14.6964C4.31688 14.6964 1.36527 11.7448 1.36527 8.11675ZM1.36527 18.6554L6.03268 15.4853C6.65719 15.6472 7.29978 15.729 7.94494 15.7286C8.56501 15.7286 9.16772 15.6535 9.74514 15.513L9.74514 30.2755L7.7883 29.6586L7.7883 22.1698C7.86706 22.1247 7.93251 22.0595 7.97805 21.981C8.02359 21.9025 8.0476 21.8133 8.04765 21.7226V20.2122C8.04764 20.1326 8.02919 20.054 7.99374 19.9826C7.95829 19.9113 7.90681 19.8491 7.84332 19.801C7.77984 19.7528 7.70607 19.7201 7.6278 19.7052C7.54953 19.6903 7.46888 19.6938 7.39217 19.7153L2.7941 21.0046C2.68568 21.0349 2.59017 21.1 2.52214 21.1897C2.45412 21.2794 2.41731 21.3889 2.41733 21.5015V22.756C2.41757 22.8831 2.46469 23.0055 2.54965 23.0999L2.54965 28.0073L1.36527 27.6339L1.36527 18.6554ZM7.01539 21.3095L3.44959 22.111V21.8928L7.01539 20.8929V21.3095ZM3.58191 23.1393L4.31739 22.974V28.5646L3.58191 28.3327L3.58191 23.1393ZM5.34965 22.742L6.75597 22.4258L6.75597 29.3333L5.34965 28.89L5.34965 22.742ZM26.6667 22.7931V30.4632H22.7844V22.4129L26.6667 22.7931ZM27.0741 21.7958L16.7768 20.7872V20.183L27.0741 21.2955V21.7958ZM21.7522 22.3118V30.4632H17.2909V21.8748L21.7522 22.3118ZM31.3007 30.4632H27.6989V22.8691C27.7876 22.8501 27.8697 22.8081 27.9369 22.7473C27.9903 22.6989 28.0329 22.6399 28.0621 22.5741C28.0913 22.5082 28.1064 22.437 28.1064 22.365V20.8322C28.1064 20.7049 28.0593 20.5821 27.9743 20.4874C27.8892 20.3927 27.7722 20.3327 27.6457 20.319L16.3161 19.095C16.2441 19.0873 16.1712 19.0947 16.1023 19.117C16.0333 19.1392 15.9698 19.1757 15.9159 19.2241C15.862 19.2725 15.8189 19.3317 15.7893 19.3979C15.7598 19.464 15.7445 19.5357 15.7445 19.6081L15.7445 21.2552C15.7445 21.3834 15.7922 21.507 15.8783 21.6019C15.9644 21.6969 16.0827 21.7564 16.2103 21.7689L16.2586 21.7736V30.4631L10.7773 30.4631L10.7773 15.1818C11.8969 14.7313 12.8855 14.0222 13.6688 13.1287L31.3007 16.3091V30.4632ZM16.6473 10.004C16.6614 9.93774 16.6884 9.87485 16.7267 9.81898C16.7651 9.7631 16.8141 9.71533 16.8709 9.67839C16.9278 9.64145 16.9913 9.61606 17.058 9.60368C17.1246 9.5913 17.193 9.59217 17.2593 9.60624L20.5401 10.3021C20.6729 10.3316 20.7887 10.4123 20.8622 10.5268C20.9358 10.6412 20.9613 10.78 20.933 10.913C20.9048 11.0461 20.8252 11.1627 20.7115 11.2373C20.5978 11.312 20.4592 11.3388 20.3259 11.3118L17.0451 10.616C16.9788 10.6019 16.9159 10.5749 16.8601 10.5366C16.8042 10.4982 16.7564 10.4492 16.7195 10.3924C16.6825 10.3356 16.6572 10.272 16.6448 10.2054C16.6324 10.1388 16.6333 10.0703 16.6473 10.004ZM23.5292 11.4637C23.5433 11.3974 23.5702 11.3345 23.6086 11.2787C23.647 11.2228 23.6959 11.175 23.7528 11.1381C23.8096 11.1011 23.8731 11.0757 23.9398 11.0634C24.0064 11.051 24.0748 11.0518 24.1411 11.0659L26.9856 11.6693C27.1184 11.6988 27.2341 11.7795 27.3077 11.8939C27.3813 12.0083 27.4067 12.1471 27.3785 12.2802C27.3503 12.4133 27.2707 12.5298 27.157 12.6045C27.0433 12.6792 26.9047 12.706 26.7714 12.679L23.9269 12.0757C23.8606 12.0616 23.7977 12.0346 23.7419 11.9963C23.686 11.9579 23.6382 11.9089 23.6013 11.8521C23.5644 11.7953 23.539 11.7317 23.5266 11.6651C23.5142 11.5984 23.5151 11.53 23.5292 11.4637ZM11.9727 11.7037C11.9727 11.5668 11.9184 11.4355 11.8216 11.3387C11.7248 11.2419 11.5935 11.1875 11.4566 11.1875L6.11301 11.1875C6.03733 11.1875 5.97339 11.1236 5.97339 11.0479C5.97339 10.9722 6.03733 10.9083 6.11301 10.9083L11.3308 10.9083C11.4481 10.9083 11.5619 10.8683 11.6535 10.795C11.745 10.7216 11.8089 10.6193 11.8345 10.5048L12.5897 7.12772C12.6662 6.78553 12.5932 6.4534 12.3842 6.19243C12.1707 5.92591 11.8193 5.75372 11.489 5.75372L5.60475 5.75372L5.30591 4.41727C5.28031 4.30279 5.21647 4.20044 5.12491 4.1271C5.03335 4.05375 4.91954 4.01379 4.80223 4.01379H3.78649C3.64961 4.01379 3.51833 4.06816 3.42153 4.16496C3.32474 4.26175 3.27036 4.39303 3.27036 4.52991C3.27036 4.6668 3.32474 4.79808 3.42153 4.89487C3.51833 4.99167 3.64961 5.04604 3.78649 5.04604H4.38868L4.68746 6.38217L4.68752 6.38256L5.50688 10.0469C5.16843 10.2526 4.94107 10.6237 4.94107 11.0479C4.94107 11.6941 5.46675 12.2198 6.11294 12.2198L11.4566 12.2198C11.5243 12.2198 11.5915 12.2064 11.6541 12.1805C11.7167 12.1546 11.7736 12.1166 11.8216 12.0686C11.8695 12.0207 11.9075 11.9638 11.9335 11.9012C11.9594 11.8386 11.9727 11.7714 11.9727 11.7037ZM11.485 6.78591C11.5062 6.78791 11.5586 6.81011 11.5804 6.8403C11.584 6.84527 11.5925 6.85695 11.5823 6.90243L10.9174 9.87604L6.52649 9.87604L5.8603 6.89662L5.86023 6.89637L5.83552 6.78598L11.485 6.78591Z" fill="#9BA6B0"/>
</svg>
