<svg width="32" height="31" viewBox="0 0 32 31" fill="none" xmlns="http://www.w3.org/2000/svg">
<path d="M31.5755 14.8742L28.4046 14.3022V13.9269L29.0037 14.0448C29.0785 14.0595 29.1557 14.0575 29.2296 14.0389C29.3035 14.0202 29.3724 13.9854 29.4313 13.937C29.4902 13.8886 29.5376 13.8277 29.5701 13.7588C29.6027 13.6899 29.6196 13.6146 29.6195 13.5384L29.6195 10.9036C29.6195 10.7866 29.5798 10.6731 29.5068 10.5816C29.4338 10.4902 29.332 10.4263 29.2179 10.4003L15.2129 7.2156C15.0014 3.20618 11.673 0.00927734 7.61187 0.00927734C3.41471 0.00927734 7.26287e-09 3.42399 7.26287e-09 7.62115C7.26287e-09 10.7066 1.84542 13.3691 4.49039 14.5632L0.226129 17.4595C0.156456 17.5068 0.0994213 17.5705 0.0600041 17.6449C0.0205868 17.7193 -1.41218e-05 17.8022 7.26287e-09 17.8864L7.26287e-09 27.5168C-8.24493e-07 27.6266 0.0349978 27.7335 0.0999113 27.822C0.164825 27.9106 0.256272 27.9761 0.360968 28.0091L9.77303 30.976C9.82322 30.9918 9.87555 30.9999 9.92819 30.9999L31.4839 30.9999C31.6208 30.9999 31.752 30.9455 31.8488 30.8487C31.9456 30.7519 32 30.6206 32 30.4837V15.3821C32 15.2611 31.9575 15.144 31.8799 15.0511C31.8023 14.9583 31.6946 14.8957 31.5755 14.8742ZM27.3723 14.116L26.5964 13.9761V13.5711L27.3723 13.7239V14.116ZM14.349 11.1608L14.5948 11.2091V11.8112L14.0301 11.7093C14.144 11.531 14.2504 11.348 14.349 11.1608ZM15.6271 11.4123L16.8698 11.6569V12.2216L15.6271 11.9975V11.4123ZM17.9021 11.8601L25.5641 13.368V13.7899L17.9021 12.4078V11.8601ZM28.5872 12.9108L14.7763 10.1928C14.9993 9.57297 15.1403 8.92667 15.1958 8.27031L28.5872 11.3156L28.5872 12.9108ZM1.03226 7.62115C1.03226 3.99315 3.98387 1.04154 7.61187 1.04154C11.2399 1.04154 14.1915 3.99315 14.1915 7.62115C14.1915 11.2491 11.2399 14.2008 7.61187 14.2008C3.98387 14.2008 1.03226 11.2492 1.03226 7.62115ZM1.03226 18.1598L5.69968 14.9897C6.32418 15.1516 6.96677 15.2334 7.61193 15.233C8.232 15.233 8.83471 15.1579 9.41213 15.0174L9.41213 29.7799L7.45529 29.163L7.45529 21.6742C7.53405 21.629 7.5995 21.5639 7.64504 21.4854C7.69058 21.4069 7.71459 21.3177 7.71464 21.227V19.7166C7.71463 19.637 7.69618 19.5584 7.66073 19.487C7.62528 19.4157 7.5738 19.3535 7.51031 19.3054C7.44683 19.2572 7.37306 19.2245 7.29479 19.2096C7.21652 19.1947 7.13587 19.1982 7.05916 19.2197L2.4611 20.509C2.35267 20.5393 2.25716 20.6043 2.18914 20.6941C2.12111 20.7838 2.0843 20.8933 2.08432 21.0059V22.2604C2.08456 22.3874 2.13168 22.5099 2.21665 22.6043L2.21665 27.5117L1.03226 27.1383L1.03226 18.1598ZM6.68239 20.8139L3.11658 21.6154V21.3972L6.68239 20.3973V20.8139ZM3.2489 22.6437L3.98439 22.4784L3.98439 28.069L3.2489 27.8371L3.2489 22.6437ZM5.01665 22.2464L6.42297 21.9302L6.42297 28.8377L5.01665 28.3944L5.01665 22.2464ZM26.3337 22.2975V29.9676H22.4514V21.9173L26.3337 22.2975ZM26.7411 21.3002L16.4438 20.2916V19.6874L26.7411 20.7999V21.3002ZM21.4192 21.8162V29.9676H16.9579V21.3792L21.4192 21.8162ZM30.9677 29.9676H27.3659V22.3735C27.4546 22.3545 27.5367 22.3125 27.6039 22.2517C27.6573 22.2033 27.6999 22.1443 27.7291 22.0785C27.7583 22.0126 27.7733 21.9414 27.7734 21.8694V20.3366C27.7733 20.2093 27.7263 20.0865 27.6413 19.9918C27.5562 19.897 27.4392 19.8371 27.3126 19.8234L15.9831 18.5994C15.9111 18.5916 15.8382 18.5991 15.7693 18.6214C15.7003 18.6436 15.6368 18.6801 15.5829 18.7285C15.529 18.7769 15.4859 18.8361 15.4563 18.9023C15.4268 18.9684 15.4115 19.0401 15.4115 19.1125L15.4115 20.7596C15.4115 20.8878 15.4592 21.0114 15.5453 21.1063C15.6314 21.2013 15.7497 21.2608 15.8773 21.2733L15.9256 21.278V29.9675L10.4443 29.9675L10.4443 14.6862C11.5639 14.2357 12.5525 13.5266 13.3358 12.6331L30.9677 15.8135V29.9676ZM16.3143 9.50844C16.3284 9.44213 16.3554 9.37925 16.3937 9.32337C16.4321 9.26749 16.4811 9.21972 16.5379 9.18278C16.5948 9.14584 16.6583 9.12046 16.7249 9.10808C16.7916 9.0957 16.86 9.09657 16.9263 9.11063L20.2071 9.8065C20.3399 9.83601 20.4556 9.91674 20.5292 10.0311C20.6028 10.1456 20.6283 10.2844 20.6 10.4174C20.5718 10.5505 20.4922 10.667 20.3785 10.7417C20.2648 10.8164 20.1262 10.8432 19.9929 10.8162L16.7121 10.1204C16.6458 10.1063 16.5829 10.0793 16.5271 10.041C16.4712 10.0026 16.4234 9.95363 16.3865 9.8968C16.3495 9.83998 16.3242 9.77643 16.3118 9.7098C16.2994 9.64316 16.3003 9.57474 16.3143 9.50844ZM23.1962 10.9681C23.2102 10.9018 23.2372 10.8389 23.2756 10.7831C23.3139 10.7272 23.3629 10.6794 23.4198 10.6425C23.4766 10.6055 23.5401 10.5801 23.6068 10.5678C23.6734 10.5554 23.7418 10.5562 23.8081 10.5703L26.6526 11.1737C26.7854 11.2032 26.9011 11.2839 26.9747 11.3983C27.0483 11.5127 27.0737 11.6515 27.0455 11.7846C27.0173 11.9177 26.9377 12.0342 26.824 12.1089C26.7103 12.1836 26.5717 12.2103 26.4384 12.1834L23.5939 11.5801C23.5276 11.566 23.4647 11.539 23.4089 11.5007C23.353 11.4623 23.3052 11.4133 23.2683 11.3565C23.2313 11.2997 23.206 11.2361 23.1936 11.1695C23.1812 11.1028 23.1821 11.0344 23.1962 10.9681ZM11.6397 11.2081C11.6397 11.0712 11.5854 10.9399 11.4886 10.8431C11.3918 10.7463 11.2605 10.6919 11.1236 10.6919L5.78 10.6919C5.70432 10.6919 5.64039 10.628 5.64039 10.5523C5.64039 10.4766 5.70432 10.4127 5.78 10.4127L10.9978 10.4127C11.1151 10.4127 11.2289 10.3727 11.3205 10.2994C11.412 10.226 11.4759 10.1237 11.5015 10.0092L12.2566 6.63212C12.3332 6.28992 12.2602 5.95779 12.0512 5.69683C11.8377 5.43031 11.4863 5.25812 11.156 5.25812L5.27174 5.25812L4.9729 3.92166C4.9473 3.80718 4.88346 3.70484 4.7919 3.63149C4.70035 3.55815 4.58654 3.51818 4.46923 3.51818H3.45348C3.3166 3.51818 3.18532 3.57256 3.08853 3.66935C2.99173 3.76614 2.93735 3.89742 2.93735 4.03431C2.93735 4.1712 2.99173 4.30247 3.08853 4.39927C3.18532 4.49606 3.3166 4.55044 3.45348 4.55044H4.05568L4.35445 5.88657L4.35452 5.88695L5.17387 9.55128C4.83542 9.75695 4.60806 10.1281 4.60806 10.5523C4.60806 11.1985 5.13374 11.7242 5.77993 11.7242L11.1235 11.7242C11.1913 11.7242 11.2585 11.7108 11.3211 11.6849C11.3837 11.659 11.4406 11.621 11.4885 11.573C11.5365 11.5251 11.5745 11.4682 11.6004 11.4056C11.6264 11.343 11.6397 11.2758 11.6397 11.2081ZM11.152 6.29031C11.1732 6.29231 11.2255 6.3145 11.2474 6.3447C11.251 6.34966 11.2595 6.36134 11.2493 6.40683L10.5844 9.38044L6.19348 9.38044L5.52729 6.40102L5.52723 6.40076L5.50252 6.29037L11.152 6.29031Z" fill="#FF2D08"/>
</svg>
