<svg width="307" height="386" viewBox="0 0 307 386" fill="none" xmlns="http://www.w3.org/2000/svg">
<g opacity="0.41">
<path d="M158.29 385.314C240.267 385.314 306.722 318.859 306.722 236.882C306.722 154.905 240.267 88.45 158.29 88.45C76.3131 88.45 9.85791 154.905 9.85791 236.882C9.85791 318.859 76.3131 385.314 158.29 385.314Z" fill="url(#paint0_linear_1_42871)"/>
</g>
<g opacity="0.41">
<path d="M249.688 152.538C259.885 88.6874 216.39 28.6598 152.538 18.463C88.6873 8.2662 28.6597 51.7616 18.4629 115.613C8.26611 179.464 51.7615 239.491 115.613 249.688C179.464 259.885 239.491 216.39 249.688 152.538Z" fill="url(#paint1_linear_1_42871)"/>
</g>
<path d="M152.923 65.1224C152.923 65.1224 98.5772 62.2613 88.0898 117.562C77.6024 172.862 86.1832 214.814 86.1832 214.814H221.572C221.572 214.814 233.233 123.138 211.084 89.9127C190.107 58.4482 152.923 65.1224 152.923 65.1224Z" fill="#2B3868"/>
<path d="M38.3156 282.185C38.3156 282.185 38.7479 171.568 151.773 173.174C233.705 174.339 266.344 208.073 265.475 286.927C265.475 286.927 262.801 316.328 238.337 320.27C207.815 325.188 132.862 325.56 97.5655 321.329C62.2693 317.097 33.273 313.217 38.3156 282.185Z" fill="#95E5E5"/>
<path d="M198.113 146.884V96.3604H106.916V152.248C106.916 177.519 127.401 198.003 152.672 198.003C177.943 198.003 198.428 177.519 198.428 152.248C198.428 150.431 198.319 148.642 198.113 146.884Z" fill="#FBD1D9"/>
<path d="M192.478 143.024C194.417 139.898 200.615 134.39 208.563 140.265C215.808 145.622 208.558 169.338 193.359 157.889C187.491 153.466 190.331 146.486 192.478 143.024Z" fill="#FBD1D9"/>
<path d="M114.232 142.058C112.293 138.932 106.095 133.424 98.1473 139.299C90.9022 144.656 98.152 168.372 113.352 156.923C119.217 152.502 116.379 145.523 114.232 142.058Z" fill="#FBD1D9"/>
<path d="M151.368 146.237C151.368 146.237 148.205 158.712 151.96 158.837C155.715 158.961 155.369 143.334 151.368 146.237Z" fill="#F279A3"/>
<path d="M132.744 140.441C132.501 140.441 132.259 140.353 132.065 140.175C131.66 139.801 131.635 139.167 132.009 138.763C133.292 137.376 136.758 135.553 140.703 138.562C141.142 138.897 141.225 139.523 140.893 139.962C140.558 140.402 139.929 140.485 139.492 140.152C135.993 137.48 133.581 140.011 133.479 140.122C133.28 140.334 133.012 140.441 132.744 140.441Z" fill="#2B3868"/>
<path d="M163.325 140.126C163.083 140.126 162.84 140.039 162.646 139.861C162.241 139.486 162.216 138.853 162.59 138.449C163.873 137.062 167.34 135.236 171.285 138.248C171.724 138.583 171.809 139.209 171.474 139.648C171.139 140.087 170.51 140.17 170.073 139.835C166.572 137.164 164.162 139.694 164.06 139.805C163.861 140.018 163.593 140.126 163.325 140.126Z" fill="#2B3868"/>
<path d="M163.674 151.397C163.374 151.397 163.073 151.289 162.833 151.069C162.331 150.605 162.301 149.821 162.766 149.32C164.353 147.603 168.645 145.345 173.528 149.07C174.071 149.484 174.175 150.263 173.762 150.806C173.346 151.349 172.569 151.453 172.026 151.039C167.693 147.732 164.707 150.866 164.582 151C164.34 151.263 164.007 151.397 163.674 151.397Z" fill="#2B3868"/>
<path d="M132.426 151.397C132.126 151.397 131.825 151.289 131.585 151.069C131.084 150.605 131.054 149.821 131.518 149.32C133.106 147.603 137.397 145.345 142.281 149.07C142.824 149.484 142.928 150.263 142.514 150.806C142.098 151.349 141.322 151.453 140.778 151.039C136.445 147.732 133.459 150.866 133.335 151C133.09 151.263 132.759 151.397 132.426 151.397Z" fill="#2B3868"/>
<path d="M144.569 165.414C147.111 166.747 152.128 168.263 158.666 164.732C159.394 164.339 160.402 165.374 160.111 166.865C159.514 169.927 157.894 175.494 151.883 175.508C146.15 175.522 143.8 170.717 143.162 167.662C142.847 166.146 143.811 165.016 144.569 165.414Z" fill="#F279A3"/>
<path d="M151.076 169.758C148.037 170.336 147.122 172.938 146.884 173.916C148.155 174.873 149.793 175.51 151.885 175.506C154.395 175.499 156.137 174.526 157.36 173.169C156.581 171.42 154.284 169.148 151.076 169.758Z" fill="#D35485"/>
<path d="M153.944 218.285C161.894 218.285 169.782 217.596 177.556 216.217C196.402 212.875 214.625 205.443 231.86 194.11C230.381 192.993 228.844 191.926 227.259 190.902C211.172 201.184 194.239 207.964 176.775 211.077C159.874 214.093 142.419 213.714 124.899 209.956C104.895 205.665 89.326 197.874 81.1265 193.127C79.6058 194.251 78.136 195.406 76.7217 196.592C84.6207 201.368 101.297 210.173 123.601 214.992C133.762 217.187 143.903 218.285 153.944 218.285Z" fill="white"/>
<path d="M153.945 204.971C161.819 204.971 169.63 204.29 177.33 202.924C192.322 200.266 206.92 194.999 220.937 187.211C220.008 186.721 219.062 186.247 218.103 185.785C204.838 192.952 191.064 197.842 176.942 200.354C159.861 203.391 142.226 203 124.528 199.189C110.567 196.182 98.7554 191.491 90.0637 187.297C89.1601 187.814 88.2726 188.341 87.399 188.882C96.3589 193.326 108.903 198.473 123.876 201.706C133.945 203.883 143.996 204.971 153.945 204.971Z" fill="white"/>
<path d="M194.125 230.885C194.084 230.885 194.042 230.882 194 230.88C193.03 230.813 192.297 229.972 192.367 229.001C192.397 228.555 195.221 184.357 173.312 182.083C166.074 181.334 160.484 182.866 156.208 186.774C149.183 193.196 145.901 206.018 146.176 225.971C146.19 226.944 145.411 227.744 144.438 227.755C144.429 227.755 144.422 227.755 144.413 227.755C143.452 227.755 142.666 226.984 142.652 226.018C142.359 204.708 145.913 191.412 153.83 184.174C158.82 179.615 165.494 177.731 173.673 178.579C184.294 179.682 191.493 188.935 194.493 205.339C196.681 217.307 195.912 228.763 195.879 229.246C195.815 230.175 195.04 230.885 194.125 230.885Z" fill="#F9C33D"/>
<path d="M222.807 221.051L138.418 218.611L133.188 347.207L222.965 349.322C227.05 349.241 230.304 345.878 230.253 341.79L228.821 227.164C228.781 223.845 226.128 221.148 222.807 221.051Z" fill="#FFCF4C"/>
<path d="M105.685 326.833L123.034 217.016C123.475 213.936 126.325 211.35 129.324 212.175L141.864 216.921C144.223 217.571 145.804 219.787 145.649 222.23L138.078 342.225C137.829 346.167 133.426 348.384 130.112 346.237L107.989 331.904C106.3 330.808 105.398 328.83 105.685 326.833Z" fill="#FFCF4C"/>
<path d="M192.348 220.15L225.932 222.283L217.987 217.402L219.401 215.181C219.692 214.481 219.191 213.707 218.435 213.688L127.439 212.041C126.849 212.034 126.697 212.854 127.249 213.06L134.984 215.891L134.968 217.71C134.961 218.433 135.539 219.027 136.262 219.041L192.348 220.15Z" fill="#F9C33D"/>
<path d="M134.625 215.811L122.994 324.815L123.87 324.909L135.5 215.904L134.625 215.811Z" fill="#F9C33D"/>
<path d="M205.816 235.479C205.774 235.479 205.733 235.477 205.691 235.474C204.721 235.407 203.988 234.566 204.057 233.595C204.087 233.149 206.911 188.951 185.003 186.677C177.767 185.926 172.175 187.461 167.899 191.368C160.874 197.791 157.592 210.612 157.867 230.566C157.881 231.539 157.102 232.338 156.129 232.35C156.12 232.35 156.113 232.35 156.104 232.35C155.142 232.35 154.357 231.578 154.343 230.614C154.049 209.304 157.604 196.009 165.521 188.769C170.511 184.209 177.185 182.325 185.364 183.174C195.985 184.276 203.184 193.529 206.183 209.933C208.372 221.902 207.602 233.357 207.57 233.84C207.505 234.769 206.733 235.479 205.816 235.479Z" fill="#F9C33D"/>
<path d="M105.668 327.078L123.278 322.177L130.114 346.237L107.991 331.906C106.369 330.854 105.486 328.989 105.668 327.078Z" fill="#F9C33D"/>
<path d="M134.967 217.707L130.114 346.237C130.114 346.237 121.612 325.031 121.554 322.32L134.967 217.707Z" fill="#F9C33D"/>
<path d="M149.62 254.623C149.567 254.623 149.516 254.621 149.463 254.616C148.495 254.531 147.778 253.676 147.864 252.707C149.375 235.59 147.392 224.381 141.795 218.444C138.409 214.853 133.75 213.189 127.527 213.374C108.717 213.919 108.311 251.989 108.311 252.375C108.306 253.343 107.518 254.126 106.55 254.126C106.55 254.126 106.545 254.126 106.54 254.126C105.567 254.122 104.784 253.331 104.788 252.359C104.791 251.94 104.865 241.982 107.529 231.772C111.199 217.705 118.079 210.127 127.427 209.854C134.589 209.639 140.302 211.724 144.36 216.029C150.773 222.833 153.003 234.587 151.374 253.017C151.291 253.935 150.524 254.623 149.62 254.623Z" fill="#4C9B9B"/>
<path d="M82.3315 243.56L155.263 246.881L151.507 358.115L73.9518 354.168C70.4345 353.835 67.8439 350.724 68.1489 347.205L76.7505 248.446C77.0001 245.585 79.4613 243.429 82.3315 243.56Z" fill="#66BFC1"/>
<path d="M176.536 342.313L168.634 246.493C168.452 243.808 166.159 241.395 163.52 241.915L152.402 245.204C150.324 245.613 148.82 247.422 148.794 249.537L147.609 353.505C147.57 356.921 151.223 359.116 154.223 357.478L174.222 346.539C175.752 345.703 176.656 344.053 176.536 342.313Z" fill="#66BFC1"/>
<path d="M108.657 244.742L79.5569 244.423L86.7234 240.723L85.6464 238.717C85.4408 238.095 85.9214 237.46 86.5754 237.49L165.157 241.917C165.665 241.95 165.744 242.666 165.254 242.807L158.402 244.751L158.3 246.32C158.259 246.944 157.725 247.42 157.098 247.385L108.657 244.742Z" fill="#4C9B9B"/>
<path d="M158.631 244.634L157.751 244.664L161.013 339.44L161.893 339.409L158.631 244.634Z" fill="#4C9B9B"/>
<path d="M139.24 257.834C139.187 257.834 139.136 257.831 139.083 257.827C138.115 257.741 137.398 256.886 137.484 255.918C138.995 238.8 137.01 227.592 131.415 221.655C128.029 218.063 123.363 216.404 117.147 216.584C98.3166 217.13 97.9307 255.199 97.9307 255.583C97.926 256.553 97.1381 257.337 96.1698 257.337H96.1627C95.1898 257.332 94.4041 256.539 94.4087 255.566C94.411 255.148 94.4849 245.19 97.1495 234.98C100.819 220.913 107.699 213.333 117.047 213.062C124.205 212.85 129.922 214.932 133.98 219.237C140.393 226.041 142.624 237.795 140.994 256.227C140.911 257.145 140.144 257.834 139.24 257.834Z" fill="#4C9B9B"/>
<path d="M176.535 342.525L161.664 337.166L154.223 357.475L174.222 346.537C175.687 345.735 176.568 344.184 176.535 342.525Z" fill="#4C9B9B"/>
<path d="M161.664 337.166L158.299 246.322L154.223 357.475C154.223 357.475 161.218 341.834 161.44 339.5" fill="#4C9B9B"/>
<path d="M90.2185 290.904C94.4685 289.328 106.807 285.404 114.937 280.153C115.855 279.562 117.047 280.278 116.966 281.367C116.772 284.006 114.48 288.778 111.242 291.475C106.093 295.767 137.56 288.186 137.56 291.618C137.56 295.05 119.682 298.912 119.682 298.912C119.682 298.912 141.056 295.859 141.565 298.912C141.994 301.486 120.969 307.349 120.969 307.349C120.969 307.349 134.699 305.776 135.986 309.494C136.88 312.075 114.533 315.644 114.533 315.644C114.533 315.644 132.411 318.218 127.262 320.793C122.113 323.367 96.3681 318.218 87.7873 317.361C80.7942 316.66 84.2953 300.067 87.0084 293.927C87.6278 292.527 88.7811 291.436 90.2185 290.904Z" fill="#FBD1D9"/>
<path d="M65.4747 247.852C65.4747 247.852 61.2155 269.141 90.1309 274.937C95.5272 276.019 99.1393 281.133 98.4113 286.587L94.4895 316.009C93.5743 322.868 87.5681 327.876 80.6558 327.566C68.0169 327 49.1243 324.733 41.4471 316.506C29.4321 303.633 41.447 246.135 52.6023 229.831C63.7576 213.524 65.4747 247.852 65.4747 247.852Z" fill="#95E5E5"/>
<path d="M80.6558 329.191C80.4478 329.191 80.2352 329.149 80.0295 329.064C79.2021 328.717 78.8115 327.765 79.1582 326.937C87.1682 307.788 88.4971 275.201 88.5086 274.873C88.5433 273.976 89.3012 273.294 90.1932 273.313C91.0899 273.347 91.7879 274.101 91.7533 274.997C91.7024 276.356 90.3875 308.502 82.1533 328.19C81.8922 328.814 81.289 329.191 80.6558 329.191Z" fill="white"/>
<path d="M216.525 290.904C212.275 289.328 199.936 285.404 191.804 280.153C190.886 279.562 189.694 280.278 189.775 281.367C189.969 284.006 192.261 288.778 195.499 291.475C200.648 295.767 169.181 288.186 169.181 291.618C169.181 295.05 187.059 298.912 187.059 298.912C187.059 298.912 165.685 295.859 165.176 298.912C164.746 301.486 185.772 307.349 185.772 307.349C185.772 307.349 172.042 305.776 170.755 309.494C169.861 312.075 192.208 315.644 192.208 315.644C192.208 315.644 174.33 318.218 179.479 320.793C184.628 323.367 210.373 318.218 218.956 317.361C225.949 316.66 222.448 300.067 219.735 293.927C219.115 292.527 217.962 291.436 216.525 290.904Z" fill="#FBD1D9"/>
<path d="M241.269 247.852C241.269 247.852 245.526 269.141 216.613 274.937C211.217 276.019 207.605 281.133 208.333 286.587L212.257 316.009C213.172 322.868 219.178 327.876 226.091 327.566C238.73 327 257.622 324.733 265.299 316.506C277.314 303.633 265.299 246.135 254.144 229.831C242.987 213.524 241.269 247.852 241.269 247.852Z" fill="#95E5E5"/>
<path d="M226.087 329.191C226.295 329.191 226.508 329.149 226.714 329.064C227.541 328.717 227.932 327.765 227.585 326.937C219.575 307.788 218.246 275.201 218.235 274.873C218.2 273.976 217.442 273.294 216.55 273.313C215.653 273.347 214.955 274.101 214.99 274.997C215.041 276.356 216.353 308.502 224.59 328.19C224.849 328.814 225.452 329.191 226.087 329.191Z" fill="white"/>
<path d="M196.232 90.1182C192.8 84.1119 173.663 63.0354 127.623 76.578C95.8023 85.9376 105.053 106.369 105.053 125.255C105.148 131.73 106.054 144.321 111.635 145.049C111.635 145.049 113.274 144.395 113.599 143.084C113.731 142.562 113.964 139.322 114.2 135.622C122.393 136.53 161.25 139.542 172.743 116.554C172.743 116.554 177.626 129.371 189.967 132.357C190.626 138.294 192.243 144.543 196.126 145.049C196.126 145.049 197.762 144.395 198.09 143.084C198.254 142.423 198.587 137.441 198.874 132.659C203.454 109.075 199.583 95.9812 196.232 90.1182Z" fill="#2B3868"/>
<path d="M120.863 126.635C108.721 126.635 99.4997 124.448 99.0536 124.34C97.8334 124.044 97.0823 122.817 97.3758 121.597C97.6693 120.376 98.9011 119.628 100.119 119.919C100.6 120.034 148.537 131.162 167.166 101.19C167.829 100.123 169.23 99.7968 170.298 100.46C171.363 101.123 171.691 102.526 171.028 103.592C162.553 117.224 147.359 125.123 127.086 126.436C124.951 126.575 122.866 126.635 120.863 126.635Z" fill="#1B294F"/>
<path d="M200.048 126.35C199.923 126.35 199.798 126.341 199.671 126.318C183.078 123.559 177.45 105.743 177.219 104.987C176.852 103.786 177.527 102.517 178.728 102.15C179.928 101.784 181.199 102.457 181.566 103.656C181.615 103.816 186.632 119.542 200.415 121.835C201.654 122.04 202.49 123.212 202.285 124.451C202.104 125.562 201.141 126.35 200.048 126.35Z" fill="#1B294F"/>
<path d="M203.855 112.82C203.767 112.82 203.677 112.815 203.587 112.803C196.955 112.022 191.094 108.202 186.643 101.754C183.366 97.0076 181.995 92.508 181.938 92.3185C181.577 91.1168 182.259 89.8481 183.463 89.4876C184.665 89.127 185.931 89.8088 186.294 91.0082C186.342 91.1653 191.219 106.769 204.121 108.285C205.369 108.433 206.261 109.561 206.113 110.809C205.974 111.967 204.992 112.82 203.855 112.82Z" fill="#1B294F"/>
<path d="M122.039 114.065C118.332 114.065 114.337 113.675 110.057 112.769C108.83 112.508 108.044 111.301 108.303 110.074C108.562 108.847 109.77 108.061 110.997 108.32C142.531 114.992 157.359 91.5697 157.506 91.3317C158.165 90.2617 159.566 89.9289 160.633 90.5875C161.703 91.2462 162.036 92.6467 161.377 93.7167C161.209 93.9894 157.16 100.479 148.801 106.081C142.924 110.016 133.976 114.065 122.039 114.065Z" fill="#1B294F"/>
<defs>
<linearGradient id="paint0_linear_1_42871" x1="306.722" y1="235.982" x2="9.85791" y2="235.982" gradientUnits="userSpaceOnUse">
<stop stop-color="#FF2D08"/>
<stop offset="1" stop-color="#CF240A"/>
</linearGradient>
<linearGradient id="paint1_linear_1_42871" x1="151.838" y1="18.3511" x2="114.912" y2="249.576" gradientUnits="userSpaceOnUse">
<stop stop-color="#FF2D08"/>
<stop offset="1" stop-color="#CF240A"/>
</linearGradient>
</defs>
</svg>
