<svg width="367" height="408" viewBox="0 0 367 408" fill="none" xmlns="http://www.w3.org/2000/svg">
<g opacity="0.41">
<path d="M203.581 328.186C293.835 328.186 367 255.021 367 164.767C367 74.513 293.835 1.34784 203.581 1.34784C113.327 1.34784 40.1619 74.513 40.1619 164.767C40.1619 255.021 113.327 328.186 203.581 328.186Z" fill="url(#paint0_linear_1_40266)"/>
</g>
<g opacity="0.41">
<path d="M243.521 300.931C259.812 242.012 225.256 181.043 166.338 164.751C107.419 148.46 46.4493 183.016 30.1578 241.934C13.8663 300.853 48.4222 361.822 107.341 378.114C166.259 394.405 227.229 359.849 243.521 300.931Z" fill="url(#paint1_linear_1_40266)"/>
</g>
<path d="M327.761 143.613H61.8926V293.427H327.761V143.613Z" fill="#95E5E5"/>
<path d="M80.19 172.881H61.8926V295.125H80.19V172.881Z" fill="#66BFC1"/>
<path d="M327.76 172.881H309.463V295.125H327.76V172.881Z" fill="#66BFC1"/>
<g opacity="0.41">
<path d="M32.6805 59.4777C48.9714 59.4777 62.1778 46.2714 62.1778 29.9805C62.1778 13.6895 48.9714 0.483154 32.6805 0.483154C16.3896 0.483154 3.18324 13.6895 3.18324 29.9805C3.18324 46.2714 16.3896 59.4777 32.6805 59.4777Z" fill="url(#paint2_linear_1_40266)"/>
</g>
<path d="M69.7074 107.575L35.6527 158.325V168.295V171.649C35.6527 181.88 43.9453 190.173 54.1761 190.173H54.3343C64.5651 190.173 72.8577 181.88 72.8577 171.649V168.414V107.575H69.7074Z" fill="white"/>
<path d="M319.083 107.575H316.029V168.411V171.646C316.029 181.877 324.322 190.17 334.553 190.17H334.711C344.942 190.17 353.234 181.877 353.234 171.646V168.273V158.466L319.083 107.575Z" fill="white"/>
<path d="M310.359 116.76H79.294C73.9991 116.76 69.7073 112.469 69.7073 107.174V91.9108C69.7073 86.616 73.9991 82.3242 79.294 82.3242H310.359C315.654 82.3242 319.945 86.616 319.945 91.9108V107.174C319.945 112.466 315.654 116.76 310.359 116.76Z" fill="#2B3868"/>
<path d="M323.712 312.177H67.4329C62.138 312.177 57.8463 307.885 57.8463 302.59V295.648C57.8463 290.353 62.138 286.061 67.4329 286.061H323.715C329.009 286.061 333.301 290.353 333.301 295.648V302.59C333.298 307.882 329.007 312.177 323.712 312.177Z" fill="#2B3868"/>
<path d="M89.3808 190.173H89.2254C78.9946 190.173 70.702 181.88 70.702 171.649V107.001H107.907V171.649C107.904 181.877 99.6116 190.173 89.3808 190.173Z" fill="#2B3868"/>
<path d="M159.476 190.173H159.318C149.087 190.173 140.794 181.88 140.794 171.649V107.001H177.999V171.649C177.999 181.877 169.704 190.173 159.476 190.173Z" fill="#2B3868"/>
<path d="M229.569 190.173H229.414C219.183 190.173 210.89 181.88 210.89 171.649V107.001H248.095V171.649C248.092 181.877 239.8 190.173 229.569 190.173Z" fill="#2B3868"/>
<path d="M299.665 190.173H299.507C289.276 190.173 280.983 181.88 280.983 171.649V107.001H318.188V171.649C318.188 181.877 309.896 190.173 299.665 190.173Z" fill="#2B3868"/>
<path d="M124.43 190.173H124.272C114.041 190.173 105.749 181.88 105.749 171.649V107.001H142.954V171.649C142.954 181.877 134.658 190.173 124.43 190.173Z" fill="white"/>
<path d="M194.523 190.173H194.364C184.134 190.173 175.841 181.88 175.841 171.649V107.001H213.046V171.649C213.046 181.877 204.753 190.173 194.523 190.173Z" fill="white"/>
<path d="M264.618 190.173H264.46C254.229 190.173 245.937 181.88 245.937 171.649V107.001H283.142V171.649C283.142 181.877 274.846 190.173 264.618 190.173Z" fill="white"/>
<path d="M321.126 112.454H68.5261C66.0454 112.454 64.0365 110.443 64.0365 107.965V104.684C64.0365 102.204 66.0482 100.195 68.5261 100.195H321.126C323.607 100.195 325.616 102.206 325.616 104.684V107.965C325.619 110.443 323.607 112.454 321.126 112.454Z" fill="#66BFC1"/>
<path d="M68.5266 112.454H321.127C323.545 112.454 325.509 110.541 325.608 108.148H64.0455C64.1444 110.541 66.1108 112.454 68.5266 112.454Z" fill="#4C9B9B"/>
<path d="M35.6527 168.296V171.65C35.6527 181.88 43.9453 190.173 54.1761 190.173H54.3343C62.3754 190.173 69.2186 185.045 71.7784 177.882C71.0834 175.933 70.6991 173.836 70.6991 171.65V158.082H35.8166L35.6527 158.325V168.296Z" fill="#ECEAEB"/>
<path d="M318.188 171.65C318.188 173.836 317.807 175.936 317.109 177.882C319.669 185.045 326.512 190.173 334.553 190.173H334.711C344.942 190.173 353.234 181.88 353.234 171.65V168.276V158.469L352.975 158.082H318.185V171.65H318.188Z" fill="#ECEAEB"/>
<path d="M140.795 158.082H107.904H105.749V171.65C105.749 173.836 106.13 175.936 106.828 177.882C109.388 185.045 116.231 190.173 124.272 190.173H124.43C132.471 190.173 139.314 185.045 141.874 177.882C142.569 175.933 142.954 173.836 142.954 171.65V158.082H140.795Z" fill="#ECEAEB"/>
<path d="M210.89 158.082H178H175.844V171.65C175.844 173.836 176.225 175.936 176.923 177.882C179.483 185.045 186.326 190.173 194.367 190.173H194.525C202.566 190.173 209.41 185.045 211.969 177.882C212.665 175.933 213.049 173.836 213.049 171.65V158.082H210.89Z" fill="#ECEAEB"/>
<path d="M280.983 158.082H248.093H245.937V171.65C245.937 173.836 246.318 175.936 247.016 177.882C249.576 185.045 256.419 190.173 264.46 190.173H264.618C272.66 190.173 279.503 185.045 282.063 177.882C282.758 175.933 283.142 173.836 283.142 171.65V158.082H280.983Z" fill="#ECEAEB"/>
<path d="M171.484 218.772C170.911 218.772 170.413 218.342 170.346 217.757C168.724 203.961 170.131 195.1 174.779 189.873C177.706 186.582 181.91 184.912 187.27 184.912C194.232 184.912 199.521 190.427 202.569 200.864C204.793 208.479 205.067 215.958 205.076 216.271C205.095 216.904 204.601 217.435 203.968 217.458C203.324 217.489 202.804 216.983 202.781 216.35C202.77 216.059 201.629 187.209 187.27 187.209C182.529 187.209 179.005 188.579 176.497 191.402C172.374 196.038 171.108 204.574 172.629 217.492C172.702 218.122 172.253 218.693 171.623 218.766C171.575 218.769 171.529 218.772 171.484 218.772Z" fill="#F9C33D"/>
<path d="M221.986 209.145L167.105 213.242L172.366 296.976L230.72 292.309C233.364 291.981 235.249 289.582 234.938 286.935L226.298 212.706C226.046 210.555 224.145 208.984 221.986 209.145Z" fill="#FFCF4C"/>
<path d="M153.159 285.615L157.018 213.242C157.097 211.217 158.77 209.346 160.773 209.68L169.224 211.914C170.798 212.177 171.97 213.508 172.035 215.101L175.2 293.416C175.304 295.99 172.598 297.722 170.303 296.552L154.995 288.749C153.823 288.15 153.108 286.926 153.159 285.615Z" fill="#FFCF4C"/>
<path d="M202.174 210.609L224.094 209.733L218.615 207.103L219.381 205.568C219.522 205.097 219.146 204.627 218.655 204.664L159.542 209.716C159.16 209.75 159.115 210.292 159.488 210.388L164.695 211.702L164.805 212.883C164.851 213.352 165.263 213.7 165.732 213.66L202.174 210.609Z" fill="#F9C33D"/>
<path d="M164.404 211.674L164.161 283.134L164.735 283.136L164.978 211.676L164.404 211.674Z" fill="#F9C33D"/>
<path d="M179.376 220.964C178.802 220.964 178.305 220.535 178.237 219.95C176.613 206.153 178.023 197.29 182.67 192.066C185.598 188.774 189.802 187.104 195.159 187.104C202.121 187.104 207.41 192.62 210.458 203.054C212.682 210.668 212.956 218.147 212.965 218.461C212.984 219.094 212.49 219.625 211.857 219.647C211.213 219.673 210.693 219.173 210.67 218.54C210.662 218.249 209.518 189.399 195.159 189.399C190.418 189.399 186.895 190.769 184.386 193.592C180.263 198.228 178.997 206.764 180.518 219.681C180.591 220.311 180.142 220.882 179.512 220.956C179.466 220.961 179.421 220.964 179.376 220.964Z" fill="#F9C33D"/>
<path d="M153.165 285.774L164.254 281.411L170.306 296.552L154.998 288.749C153.871 288.175 153.173 287.025 153.165 285.774Z" fill="#F9C33D"/>
<path d="M164.802 212.886L170.303 296.552C170.303 296.552 163.364 283.375 163.144 281.62L164.802 212.886Z" fill="#F9C33D"/>
<path d="M164.647 234.218C164.602 234.218 164.557 234.215 164.512 234.21C163.882 234.136 163.432 233.565 163.506 232.935C164.814 221.809 163.732 214.468 160.197 210.493C158.058 208.089 155.049 206.919 150.995 206.919C138.727 206.919 137.744 231.718 137.735 231.969C137.713 232.602 137.193 233.099 136.549 233.077C135.916 233.057 135.418 232.526 135.441 231.89C135.45 231.616 135.687 225.129 137.617 218.526C140.273 209.428 144.901 204.622 150.995 204.622C155.677 204.622 159.35 206.083 161.912 208.965C165.964 213.519 167.193 221.221 165.783 233.198C165.718 233.789 165.221 234.218 164.647 234.218Z" fill="#4C9B9B"/>
<path d="M120.978 225.736L168.439 229.279L163.89 301.692L113.428 297.654C111.143 297.372 109.512 295.295 109.778 293.007L117.251 228.816C117.463 226.957 119.11 225.598 120.978 225.736Z" fill="#66BFC1"/>
<path d="M180.495 291.865L177.156 229.279C177.088 227.527 175.638 225.911 173.909 226.2L166.603 228.132C165.241 228.358 164.227 229.508 164.17 230.887L161.435 298.612C161.345 300.838 163.684 302.336 165.67 301.324L178.91 294.574C179.922 294.06 180.541 293.001 180.495 291.865Z" fill="#66BFC1"/>
<path d="M138.109 227.005L119.153 226.248L123.891 223.973L123.227 222.645C123.103 222.236 123.431 221.832 123.857 221.863L174.977 226.234C175.308 226.265 175.347 226.734 175.025 226.816L170.524 227.954L170.428 228.974C170.389 229.381 170.033 229.681 169.626 229.647L138.109 227.005Z" fill="#4C9B9B"/>
<path d="M170.689 227.925L170.116 227.928L170.45 289.748L171.023 289.745L170.689 227.925Z" fill="#4C9B9B"/>
<path d="M157.824 236.114C157.778 236.114 157.733 236.111 157.688 236.105C157.058 236.032 156.609 235.461 156.682 234.831C157.99 223.705 156.908 216.364 153.376 212.389C151.238 209.985 148.229 208.815 144.174 208.815C131.895 208.815 130.923 233.613 130.914 233.865C130.892 234.498 130.369 234.989 129.728 234.975C129.095 234.956 128.598 234.424 128.617 233.789C128.626 233.515 128.863 227.027 130.793 220.424C133.449 211.327 138.077 206.521 144.171 206.521C148.853 206.521 152.526 207.981 155.089 210.863C159.14 215.418 160.369 223.12 158.96 235.097C158.892 235.684 158.397 236.114 157.824 236.114Z" fill="#4C9B9B"/>
<path d="M180.489 292.003L170.9 288.232L165.667 301.324L178.907 294.575C179.879 294.08 180.481 293.086 180.489 292.003Z" fill="#4C9B9B"/>
<path d="M170.9 288.232L170.425 228.971L165.667 301.324C165.667 301.324 170.521 291.263 170.711 289.749" fill="#4C9B9B"/>
<path d="M225.684 249.003C225.11 249.003 224.613 248.574 224.545 247.989C223.135 236.009 224.367 228.31 228.416 223.756C230.979 220.874 234.652 219.413 239.333 219.413C245.431 219.413 250.056 224.222 252.712 233.32C254.641 239.923 254.876 246.41 254.887 246.684C254.907 247.317 254.413 247.848 253.78 247.868C253.135 247.893 252.616 247.393 252.593 246.76C252.585 246.509 251.601 221.71 239.333 221.71C235.282 221.71 232.27 222.88 230.131 225.284C226.596 229.259 225.514 236.6 226.825 247.726C226.899 248.356 226.449 248.927 225.819 249.001C225.774 249.001 225.729 249.003 225.684 249.003Z" fill="#FCAEAE"/>
<path d="M270.244 243.031L222.783 246.574L222.271 301.692L272.733 297.654C275.019 297.372 276.649 295.295 276.384 293.006L273.971 246.11C273.756 244.251 272.112 242.892 270.244 243.031Z" fill="#FFC2C2"/>
<path d="M205.666 291.865L211.207 246.41C211.275 244.658 212.724 243.042 214.453 243.33L220.994 245.124C222.356 245.35 223.37 246.503 223.427 247.879L224.729 298.612C224.82 300.838 222.48 302.336 220.494 301.324L207.254 294.574C206.24 294.06 205.621 293.001 205.666 291.865Z" fill="#FFC2C2"/>
<path d="M271.812 243.18L266.265 241.434L266.644 240.044C266.768 239.634 266.441 239.23 266.014 239.261L213.504 243.234C213.173 243.265 213.136 243.734 213.456 243.816L217.957 244.276L219.333 246.449C219.372 246.856 220.203 247.156 220.61 247.122L271.812 243.18Z" fill="#FCAEAE"/>
<path d="M217.459 244.271L215.151 289.74L215.723 289.769L218.032 244.3L217.459 244.271Z" fill="#FCAEAE"/>
<path d="M232.507 250.899C231.934 250.899 231.436 250.47 231.369 249.885C229.959 237.905 231.191 230.206 235.239 225.651C237.802 222.77 241.475 221.309 246.157 221.309C252.254 221.309 256.879 226.118 259.535 235.215C261.465 241.818 261.699 248.306 261.711 248.58C261.73 249.213 261.236 249.744 260.603 249.763C259.959 249.795 259.439 249.289 259.416 248.656C259.408 248.404 258.425 223.606 246.157 223.606C242.105 223.606 239.093 224.776 236.954 227.18C233.42 231.155 232.338 238.496 233.646 249.622C233.719 250.252 233.27 250.823 232.64 250.896C232.598 250.896 232.552 250.899 232.507 250.899Z" fill="#FCAEAE"/>
<path d="M205.669 292.003L215.258 288.232L220.491 301.324L207.251 294.575C206.282 294.08 205.68 293.086 205.669 292.003Z" fill="#FCAEAE"/>
<path d="M217.753 244.277L220.491 301.324C220.491 301.324 215.637 291.263 215.448 289.749L217.753 244.277Z" fill="#FCAEAE"/>
<path d="M138.354 254.649L140.335 271.372C140.527 272.994 142.298 273.907 143.731 273.124L152.823 268.148C154.289 267.346 154.442 265.298 153.108 264.289L139.515 253.985C139.004 253.598 138.278 254.013 138.354 254.649Z" fill="white"/>
<path d="M151.068 276.486C150.495 276.486 149.935 276.201 149.607 275.681L143.295 265.637C142.79 264.831 143.033 263.769 143.838 263.263C144.643 262.758 145.705 263.001 146.211 263.806L152.526 273.85C153.032 274.655 152.789 275.718 151.984 276.224C151.698 276.399 151.382 276.486 151.068 276.486Z" fill="white"/>
<path d="M135.045 263.269C134.864 263.269 134.681 263.213 134.525 263.094C132.697 261.701 131.519 259.681 131.208 257.401C130.9 255.123 131.496 252.86 132.889 251.029C134.282 249.199 136.305 248.02 138.583 247.712C140.863 247.404 143.123 248.001 144.954 249.393C146.785 250.786 147.963 252.809 148.271 255.087C148.336 255.559 148.005 255.991 147.533 256.056C147.064 256.124 146.629 255.79 146.564 255.318C146.318 253.496 145.375 251.877 143.911 250.764C142.448 249.651 140.637 249.17 138.814 249.419C136.992 249.665 135.373 250.608 134.26 252.072C133.146 253.536 132.669 255.347 132.915 257.169C133.161 258.991 134.104 260.61 135.568 261.724C135.946 262.012 136.02 262.551 135.732 262.93C135.562 263.15 135.305 263.269 135.045 263.269Z" fill="white"/>
<defs>
<linearGradient id="paint0_linear_1_40266" x1="367" y1="163.776" x2="40.1619" y2="163.776" gradientUnits="userSpaceOnUse">
<stop stop-color="#FF2D08"/>
<stop offset="1" stop-color="#CF240A"/>
</linearGradient>
<linearGradient id="paint1_linear_1_40266" x1="165.691" y1="164.572" x2="106.694" y2="377.935" gradientUnits="userSpaceOnUse">
<stop stop-color="#FF2D08"/>
<stop offset="1" stop-color="#CF240A"/>
</linearGradient>
<linearGradient id="paint2_linear_1_40266" x1="62.1778" y1="29.8017" x2="3.18324" y2="29.8017" gradientUnits="userSpaceOnUse">
<stop stop-color="#FF2D08"/>
<stop offset="1" stop-color="#CF240A"/>
</linearGradient>
</defs>
</svg>
