<svg width="21" height="21" viewBox="0 0 21 21" fill="none" xmlns="http://www.w3.org/2000/svg">
<path d="M7.85141 4.79242C8.25986 4.71597 8.66937 4.9199 8.84757 5.2885C8.89193 5.35538 8.92743 5.42754 8.95322 5.50322C9.06642 7.25058 9.18717 8.96833 9.30037 10.6861C9.29779 10.8646 9.32586 11.0424 9.38338 11.2118C9.51881 11.5451 9.85582 11.7566 10.2211 11.7375L15.7679 11.3821L15.8056 11.3969L15.9068 11.4042C16.1074 11.4298 16.2943 11.5214 16.4362 11.6654C16.6018 11.8334 16.6926 12.0591 16.6887 12.2928C16.47 15.4778 14.1348 18.1391 10.957 18.8247C7.77917 19.5103 4.5215 18.0557 2.96117 15.2544C2.50237 14.4476 2.21244 13.559 2.1084 12.6408C2.06805 12.3687 2.05038 12.0938 2.05557 11.8189C2.06609 8.43206 4.47742 5.50873 7.85141 4.79242ZM11.1493 2.32686C14.9583 2.44088 18.1417 5.20601 18.7186 8.9017C18.7223 8.92376 18.7223 8.94627 18.7186 8.96833L18.7176 9.07266C18.7051 9.21058 18.6484 9.34211 18.5544 9.44771C18.4368 9.57972 18.2705 9.66033 18.0922 9.67172L11.6927 10.0938L11.5872 10.0959C11.4125 10.0873 11.245 10.0194 11.1146 9.90194C10.958 9.761 10.8692 9.56183 10.8701 9.35335L10.4399 3.06727V2.96361C10.4477 2.78682 10.5269 2.62034 10.66 2.50089C10.7931 2.38144 10.9691 2.31883 11.1493 2.32686Z" fill="url(#paint0_linear_104_12216)"/>
<defs>
<linearGradient id="paint0_linear_104_12216" x1="18.7214" y1="10.609" x2="2.05469" y2="10.609" gradientUnits="userSpaceOnUse">
<stop stop-color="#FF2D08"/>
<stop offset="1" stop-color="#CF240A"/>
</linearGradient>
</defs>
</svg>
