<svg width="20" height="21" viewBox="0 0 20 21" fill="none" xmlns="http://www.w3.org/2000/svg">
<path d="M13.617 2.32617C16.442 2.32617 18.3337 4.30951 18.3337 7.25951V14.0687C18.3337 17.0095 16.442 18.9928 13.617 18.9928H6.39199C3.56699 18.9928 1.66699 17.0095 1.66699 14.0687V7.25951C1.66699 4.30951 3.56699 2.32617 6.39199 2.32617H13.617ZM13.4837 8.15951C13.2003 7.87617 12.7337 7.87617 12.4503 8.15951L9.00866 11.6012L7.55033 10.1428C7.26699 9.85951 6.80033 9.85951 6.51699 10.1428C6.23366 10.4262 6.23366 10.8845 6.51699 11.1762L8.50033 13.1512C8.64199 13.2928 8.82533 13.3595 9.00866 13.3595C9.20033 13.3595 9.38366 13.2928 9.52533 13.1512L13.4837 9.19284C13.767 8.90951 13.767 8.45117 13.4837 8.15951Z" fill="url(#paint0_linear_104_12226)"/>
<defs>
<linearGradient id="paint0_linear_104_12226" x1="18.3337" y1="10.609" x2="1.66699" y2="10.609" gradientUnits="userSpaceOnUse">
<stop stop-color="#FF2D08"/>
<stop offset="1" stop-color="#CF240A"/>
</linearGradient>
</defs>
</svg>
