<svg width="60" height="60" viewBox="0 0 60 60" fill="none" xmlns="http://www.w3.org/2000/svg">
<circle opacity="0.2" cx="30" cy="30" r="30" fill="url(#paint0_linear_127_26752)"/>
<circle cx="30" cy="30" r="21" fill="url(#paint1_linear_127_26752)"/>
<g clip-path="url(#clip0_127_26752)">
<path opacity="0.94" fill-rule="evenodd" clip-rule="evenodd" d="M33.5859 17.9766C34.0234 17.9766 34.461 17.9766 34.8984 17.9766C36.6262 18.3055 37.8528 19.2742 38.5781 20.8828C39.0556 22.287 38.9697 23.6542 38.3203 24.9844C39.2765 26.6607 39.7296 28.4654 39.6797 30.3984C40.8996 30.6339 41.6652 31.3527 41.9766 32.5547C41.9766 32.8984 41.9766 33.2422 41.9766 33.5859C41.8793 33.9467 41.7309 34.2905 41.5312 34.6172C40.781 35.625 40.0231 36.6249 39.2578 37.6172C38.8035 37.0301 38.3582 36.4363 37.9219 35.8359C37.8826 35.7653 37.8279 35.7419 37.7578 35.7656C37.3243 36.3399 36.8399 36.8712 36.3047 37.3594C36.5715 38.1595 36.6575 38.9798 36.5625 39.8203C36.4999 40.1016 36.3358 40.2969 36.0703 40.4062C35.632 40.4141 35.1945 40.4376 34.7578 40.4766C34.3302 41.2794 33.674 41.7795 32.7891 41.9766C32.4609 41.9766 32.1328 41.9766 31.8047 41.9766C30.9198 41.7795 30.2635 41.2794 29.8359 40.4766C28.383 40.4219 26.9299 40.4141 25.4766 40.4531C25.0579 41.2704 24.4017 41.7783 23.5078 41.9766C23.1797 41.9766 22.8516 41.9766 22.5234 41.9766C21.6396 41.7808 20.9834 41.2808 20.5547 40.4766C19.8677 40.4375 19.1802 40.4141 18.4922 40.4062C18.2336 40.3273 18.0618 40.1632 17.9766 39.9141C17.9766 39.4766 17.9766 39.039 17.9766 38.6016C18.1237 38.2829 18.3737 38.111 18.7266 38.0859C18.7187 35.4453 18.7266 32.8046 18.75 30.1641C18.8292 29.9285 18.9776 29.7488 19.1953 29.625C19.5726 29.5918 19.9398 29.5371 20.2969 29.4609C20.3827 27.8052 20.8593 26.274 21.7266 24.8672C21.1253 24.1027 20.93 23.2433 21.1406 22.2891C21.6319 20.8829 22.6241 20.2188 24.1172 20.2969C24.8143 20.3758 25.3846 20.6804 25.8281 21.2109C27.2167 20.5738 28.6777 20.2535 30.2109 20.25C30.9996 18.9888 32.1246 18.231 33.5859 17.9766ZM33.8203 18.7734C35.6032 18.7071 36.9078 19.4571 37.7344 21.0234C38.2606 22.2958 38.1825 23.5302 37.5 24.7266C36.4241 26.1307 35.3304 27.5212 34.2188 28.8984C33.125 27.4922 32.0312 26.0859 30.9375 24.6797C29.9888 22.7829 30.2779 21.1032 31.8047 19.6406C32.4038 19.173 33.0757 18.8839 33.8203 18.7734ZM33.9609 20.3203C35.3796 20.3096 36.2311 20.9971 36.5156 22.3828C36.5361 23.7374 35.8877 24.5733 34.5703 24.8906C33.1875 24.9605 32.3203 24.3277 31.9688 22.9922C31.8947 21.5437 32.5588 20.6531 33.9609 20.3203ZM23.4141 21.1172C24.7519 21.0565 25.5175 21.6893 25.7109 23.0156C25.6851 23.3745 25.5835 23.7105 25.4062 24.0234C24.8774 24.7555 24.3305 25.4743 23.7656 26.1797C23.2344 25.461 22.7031 24.7422 22.1719 24.0234C21.6559 23.0096 21.8356 22.1424 22.7109 21.4219C22.9391 21.2918 23.1735 21.1903 23.4141 21.1172ZM29.1328 21.1172C29.3516 21.1172 29.5703 21.1172 29.7891 21.1172C29.2905 22.8668 29.6108 24.4449 30.75 25.8516C31.9063 27.3203 33.0625 28.7891 34.2188 30.2578C35.4062 28.7578 36.5938 27.2578 37.7812 25.7578C38.5661 27.2055 38.9177 28.7523 38.8359 30.3984C37.5538 30.6415 36.796 31.4071 36.5625 32.6953C36.475 33.5735 36.7172 34.347 37.2891 35.0156C36.9256 35.5042 36.5272 35.9652 36.0938 36.3984C35.7668 35.1842 35.4542 33.9655 35.1562 32.7422C35.0323 32.2936 34.7432 32.0202 34.2891 31.9219C32.9923 31.8984 31.6954 31.8906 30.3984 31.8984C30.4063 31.3357 30.3984 30.7732 30.375 30.2109C30.2891 29.875 30.0781 29.664 29.7422 29.5781C26.8673 29.5547 23.9922 29.5469 21.1172 29.5547C21.1866 28.1365 21.5694 26.8083 22.2656 25.5703C22.7344 26.1953 23.2031 26.8203 23.6719 27.4453C23.7111 27.516 23.7658 27.5394 23.8359 27.5156C24.5298 26.5577 25.2407 25.6124 25.9688 24.6797C26.5427 23.8351 26.6599 22.9289 26.3203 21.9609C26.3359 21.9297 26.3516 21.8984 26.3672 21.8672C27.2572 21.4768 28.179 21.2268 29.1328 21.1172ZM23.6484 22.6641C23.9201 22.6201 24.092 22.7295 24.1641 22.9922C24.0428 23.3884 23.8162 23.4665 23.4844 23.2266C23.365 22.9847 23.4197 22.7972 23.6484 22.6641ZM19.5703 30.3984C20.5859 30.3984 21.6016 30.3984 22.6172 30.3984C22.6094 31.383 22.6172 32.3673 22.6406 33.3516C23.2813 33.0234 23.9219 32.6953 24.5625 32.3672C25.2031 32.6953 25.8437 33.0234 26.4844 33.3516C26.5078 32.3673 26.5156 31.383 26.5078 30.3984C27.5235 30.3984 28.539 30.3984 29.5547 30.3984C29.5547 32.961 29.5547 35.5234 29.5547 38.0859C28.1952 38.0938 26.8358 38.0859 25.4766 38.0625C24.7323 36.7932 23.6385 36.3244 22.1953 36.6562C21.4695 36.9056 20.9226 37.3665 20.5547 38.0391C20.228 38.0858 19.8999 38.1014 19.5703 38.0859C19.5703 35.5234 19.5703 32.961 19.5703 30.3984ZM23.4141 30.3984C24.1797 30.3984 24.9453 30.3984 25.7109 30.3984C25.7265 30.9306 25.7109 31.4618 25.6641 31.9922C25.3048 31.8008 24.9376 31.6289 24.5625 31.4766C24.1874 31.6289 23.8202 31.8008 23.4609 31.9922C23.4141 31.4618 23.3985 30.9306 23.4141 30.3984ZM39.0703 31.1484C40.326 31.1855 41.0292 31.8261 41.1797 33.0703C41.1654 33.44 41.0638 33.7838 40.875 34.1016C40.3581 34.8234 39.819 35.5265 39.2578 36.2109C38.7235 35.5337 38.2001 34.8462 37.6875 34.1484C37.0964 33.0001 37.3386 32.0705 38.4141 31.3594C38.6336 31.2736 38.8524 31.2033 39.0703 31.1484ZM30.3984 32.6953C31.6682 32.6727 32.9339 32.6962 34.1953 32.7656C34.3486 32.9472 34.4423 33.1581 34.4766 33.3984C33.8052 33.4375 33.1334 33.4609 32.4609 33.4688C32.1875 33.5547 32.0078 33.7344 31.9219 34.0078C31.8906 34.4297 31.8906 34.8516 31.9219 35.2734C32.0235 35.5 32.1875 35.664 32.4141 35.7656C33.3045 35.7891 34.1952 35.7969 35.0859 35.7891C35.2478 36.5539 35.4353 37.3117 35.6484 38.0625C35.3516 38.0938 35.0547 38.0938 34.7578 38.0625C34.0136 36.7932 32.9198 36.3244 31.4766 36.6562C31.0776 36.7893 30.726 37.0002 30.4219 37.2891C30.3984 35.7579 30.3906 34.2266 30.3984 32.6953ZM39.2109 32.6953C39.5548 32.7488 39.672 32.9363 39.5625 33.2578C39.3594 33.5078 39.1562 33.5078 38.9531 33.2578C38.8611 32.9781 38.947 32.7906 39.2109 32.6953ZM32.6953 34.2422C33.3518 34.2344 34.008 34.2422 34.6641 34.2656C34.7447 34.5023 34.8072 34.7445 34.8516 34.9922C34.1328 34.9922 33.414 34.9922 32.6953 34.9922C32.6953 34.7422 32.6953 34.4922 32.6953 34.2422ZM22.8984 37.3359C24.3748 37.4917 25.0232 38.3041 24.8438 39.7734C24.3618 40.987 23.4946 41.4011 22.2422 41.0156C21.3137 40.5098 20.9621 39.7364 21.1875 38.6953C21.4915 37.8984 22.0618 37.4453 22.8984 37.3359ZM32.1797 37.3359C33.2208 37.3695 33.8849 37.8852 34.1719 38.8828C34.2928 39.8521 33.9255 40.563 33.0703 41.0156C31.7393 41.4009 30.8565 40.94 30.4219 39.6328C30.3314 38.3437 30.9173 37.5781 32.1797 37.3359ZM18.7734 38.8828C19.2893 38.875 19.8049 38.8828 20.3203 38.9062C20.2578 39.1406 20.2578 39.375 20.3203 39.6094C19.8049 39.6328 19.2893 39.6406 18.7734 39.6328C18.7734 39.3828 18.7734 39.1328 18.7734 38.8828ZM22.9922 38.8828C23.3364 38.9683 23.438 39.1715 23.2969 39.4922C22.9714 39.724 22.7605 39.6459 22.6641 39.2578C22.676 39.0429 22.7854 38.918 22.9922 38.8828ZM25.7109 38.8828C27.0078 38.8828 28.3047 38.8828 29.6016 38.8828C29.5391 39.1328 29.5391 39.3828 29.6016 39.6328C28.3047 39.6328 27.0078 39.6328 25.7109 39.6328C25.7734 39.3828 25.7734 39.1328 25.7109 38.8828ZM32.2734 38.8828C32.6157 38.9669 32.7172 39.1701 32.5781 39.4922C32.2527 39.724 32.0417 39.6459 31.9453 39.2578C31.9893 39.0734 32.0987 38.9483 32.2734 38.8828ZM34.9922 38.8828C35.2422 38.8828 35.4922 38.8828 35.7422 38.8828C35.7422 39.1328 35.7422 39.3828 35.7422 39.6328C35.4902 39.6482 35.2402 39.6326 34.9922 39.5859C35.0521 39.3516 35.0521 39.1172 34.9922 38.8828Z" fill="white"/>
<path opacity="0.933" fill-rule="evenodd" clip-rule="evenodd" d="M33.6795 19.5236C35.4977 19.373 36.693 20.1542 37.2655 21.8674C37.5571 23.7453 36.8149 25.0031 35.0389 25.6408C33.6695 25.9396 32.5523 25.5412 31.6874 24.4455C30.9089 23.227 30.9089 22.0082 31.6874 20.7893C32.207 20.1352 32.8711 19.7133 33.6795 19.5236ZM33.9608 20.3205C32.5587 20.6533 31.8946 21.5439 31.9686 22.9924C32.3201 24.3279 33.1873 24.9607 34.5702 24.8908C35.8875 24.5735 36.536 23.7376 36.5155 22.383C36.231 20.9973 35.3795 20.3098 33.9608 20.3205Z" fill="white"/>
<path opacity="0.931" fill-rule="evenodd" clip-rule="evenodd" d="M23.5534 21.8204C24.537 21.8118 24.998 22.2962 24.9362 23.2736C24.7712 23.8453 24.3884 24.1578 23.7877 24.2111C22.8825 24.0894 22.4997 23.5737 22.6393 22.6642C22.8043 22.2256 23.109 21.9443 23.5534 21.8204ZM23.6471 22.6642C23.4184 22.7973 23.3637 22.9848 23.4831 23.2267C23.8149 23.4666 24.0415 23.3885 24.1627 22.9923C24.0907 22.7296 23.9188 22.6202 23.6471 22.6642Z" fill="white"/>
<path opacity="0.892" fill-rule="evenodd" clip-rule="evenodd" d="M27.2578 28.0078C27.5235 28.0078 27.789 28.0078 28.0547 28.0078C28.0547 28.2891 28.0547 28.5703 28.0547 28.8516C27.789 28.8516 27.5235 28.8516 27.2578 28.8516C27.2578 28.5703 27.2578 28.2891 27.2578 28.0078Z" fill="white"/>
<path opacity="0.892" fill-rule="evenodd" clip-rule="evenodd" d="M28.8047 28.0078C29.0703 28.0078 29.3359 28.0078 29.6016 28.0078C29.6016 28.2891 29.6016 28.5703 29.6016 28.8516C29.3359 28.8516 29.0703 28.8516 28.8047 28.8516C28.8047 28.5703 28.8047 28.2891 28.8047 28.0078Z" fill="white"/>
<path opacity="0.892" fill-rule="evenodd" clip-rule="evenodd" d="M30.3516 28.0078C30.6172 28.0078 30.8828 28.0078 31.1484 28.0078C31.1484 28.2891 31.1484 28.5703 31.1484 28.8516C30.8828 28.8516 30.6172 28.8516 30.3516 28.8516C30.3516 28.5703 30.3516 28.2891 30.3516 28.0078Z" fill="white"/>
<path opacity="0.934" fill-rule="evenodd" clip-rule="evenodd" d="M38.9763 31.8984C40.0353 31.845 40.5118 32.345 40.406 33.3984C40.0755 34.1843 39.5052 34.4265 38.695 34.125C38.0446 33.6588 37.9118 33.0729 38.2966 32.3671C38.483 32.1456 38.7096 31.9894 38.9763 31.8984ZM39.2106 32.6953C38.9467 32.7905 38.8608 32.978 38.9528 33.2578C39.1559 33.5077 39.3591 33.5077 39.5622 33.2578C39.6717 32.9363 39.5545 32.7488 39.2106 32.6953Z" fill="white"/>
<path opacity="0.931" fill-rule="evenodd" clip-rule="evenodd" d="M22.7579 38.0862C23.6102 38.043 24.0947 38.4414 24.211 39.2815C24.0105 40.2934 23.4167 40.6371 22.4298 40.3127C21.8242 39.8827 21.6758 39.328 21.9845 38.6487C22.1835 38.374 22.4413 38.1865 22.7579 38.0862ZM22.9923 38.8831C22.7855 38.9182 22.6761 39.0432 22.6642 39.2581C22.7606 39.6461 22.9715 39.7243 23.297 39.4924C23.4381 39.1717 23.3365 38.9686 22.9923 38.8831Z" fill="white"/>
<path opacity="0.93" fill-rule="evenodd" clip-rule="evenodd" d="M32.0394 38.0859C32.9996 38.0385 33.4762 38.4916 33.4691 39.4453C33.1957 40.3515 32.6098 40.6405 31.7113 40.3125C30.9797 39.722 30.9172 39.0658 31.5238 38.3437C31.6886 38.2347 31.8605 38.1487 32.0394 38.0859ZM32.2738 38.8828C32.099 38.9483 31.9896 39.0733 31.9457 39.2578C32.0421 39.6458 32.253 39.724 32.5785 39.4921C32.7176 39.17 32.616 38.9669 32.2738 38.8828Z" fill="white"/>
</g>
<defs>
<linearGradient id="paint0_linear_127_26752" x1="60" y1="29.8182" x2="1.20054e-08" y2="29.8182" gradientUnits="userSpaceOnUse">
<stop stop-color="#FF2D08"/>
<stop offset="1" stop-color="#CF240A"/>
</linearGradient>
<linearGradient id="paint1_linear_127_26752" x1="51" y1="29.8727" x2="9" y2="29.8727" gradientUnits="userSpaceOnUse">
<stop stop-color="#FF2D08"/>
<stop offset="1" stop-color="#CF240A"/>
</linearGradient>
<clipPath id="clip0_127_26752">
<rect width="24" height="24" fill="white" transform="translate(18 18)"/>
</clipPath>
</defs>
</svg>
