<svg width="29" height="29" viewBox="0 0 29 29" fill="none" xmlns="http://www.w3.org/2000/svg">
<path d="M12.0801 10.9643C11.7384 10.6226 11.1844 10.6226 10.8427 10.9643C10.501 11.306 10.501 11.86 10.8427 12.2017L13.1406 14.4997L10.8427 16.7976C10.501 17.1393 10.501 17.6933 10.8427 18.035C11.1844 18.3767 11.7384 18.3767 12.0801 18.035L14.3781 15.7371L16.676 18.035C17.0177 18.3767 17.5717 18.3767 17.9134 18.035C18.2551 17.6933 18.2551 17.1393 17.9134 16.7976L15.6155 14.4997L17.9134 12.2017C18.2551 11.86 18.2551 11.306 17.9134 10.9643C17.5717 10.6226 17.0177 10.6226 16.676 10.9643L14.3781 13.2622L12.0801 10.9643Z" fill="#FF4D4F"/>
<path fill-rule="evenodd" clip-rule="evenodd" d="M14.3781 1.95801C7.45152 1.95801 1.83643 7.5731 1.83643 14.4997C1.83643 21.4262 7.45152 27.0413 14.3781 27.0413C21.3047 27.0413 26.9198 21.4262 26.9198 14.4997C26.9198 7.5731 21.3047 1.95801 14.3781 1.95801ZM3.58643 14.4997C3.58643 8.5396 8.41802 3.70801 14.3781 3.70801C20.3382 3.70801 25.1698 8.5396 25.1698 14.4997C25.1698 20.4597 20.3382 25.2913 14.3781 25.2913C8.41802 25.2913 3.58643 20.4597 3.58643 14.4997Z" fill="#FF4D4F"/>
</svg>
