<svg width="96" height="96" viewBox="0 0 96 96" fill="none" xmlns="http://www.w3.org/2000/svg">
<rect width="96" height="96" rx="48" fill="url(#paint0_linear_1_52556)" fill-opacity="0.3"/>
<path d="M35.4023 26.1934C33.3809 26.5059 31.8574 27.8535 31.3594 29.7871C31.2715 30.0996 31.2031 30.4512 31.2031 30.5684C31.2031 30.6953 31.0566 30.8613 30.7832 31.0273C30.207 31.3984 29.123 32.4824 28.6543 33.1758C28.1074 33.9766 27.6289 35.0117 27.3848 35.9395C27.1504 36.8086 27.082 38.8398 27.2676 39.5527C27.3555 39.9336 27.3457 39.9727 26.9941 40.3633C26.5547 40.8711 26.3691 41.5254 26.4473 42.3945C26.5352 43.4883 27.209 44.2988 28.1758 44.4648L28.5957 44.5332L28.8105 45.2168C29.1035 46.125 29.2988 46.5645 29.709 47.209C30.1191 47.8535 31.1055 48.8984 31.5644 49.1816C31.8769 49.377 31.8867 49.4062 31.8867 50.0117C31.8867 50.4414 31.8476 50.6367 31.7695 50.6367C31.7012 50.6367 31.1641 51.1152 30.5684 51.7012L29.4941 52.7656L27.5019 53.625C26.3203 54.1328 25.2754 54.6504 24.9531 54.8945C23.9668 55.6172 23.2441 56.8574 23.0781 58.0977C23.0098 58.5957 23.0488 60.2559 23.2148 64.1035L23.4492 69.4062L23.7129 69.6406C24.0449 69.9238 24.2598 69.9336 24.6016 69.6699C24.8359 69.4844 24.8555 69.416 24.8555 68.6641C24.8555 68.2246 24.7676 65.8223 24.6504 63.332C24.543 60.832 24.4746 58.5664 24.5137 58.3027C24.543 58.0293 24.6504 57.6387 24.7383 57.4336L24.9141 57.043L25.8906 58.2148C27.8437 60.5293 27.7168 60.0605 27.7852 65.2656L27.834 69.5039L28.0684 69.6895C28.3809 69.9434 28.7227 69.9238 29.0156 69.6309L29.2598 69.3867L29.2207 65.1094C29.1816 60.4316 29.1914 60.5195 28.5664 59.3379C28.4004 59.0254 27.7363 58.1367 27.0918 57.3652L25.9297 55.959L26.3594 55.7441C26.5937 55.627 27.4141 55.2559 28.1855 54.9238C29.5625 54.3184 29.5723 54.3184 29.7285 54.5137C29.8164 54.6309 30.3633 55.4902 30.9394 56.4375C31.5254 57.3848 32.1113 58.2344 32.2578 58.332C32.4141 58.4297 32.707 58.498 33.0098 58.498C33.5371 58.498 33.7129 58.3906 34.9434 57.3652L35.3047 57.0625V63.0684C35.3047 67.0039 35.3437 69.1621 35.4023 69.3574C35.5 69.6309 35.8418 69.875 36.125 69.875C36.1934 69.875 36.3691 69.7871 36.5156 69.6699L36.7695 69.4746V63.2734C36.7695 59.8652 36.7988 57.082 36.8281 57.082C36.8574 57.082 37.1992 57.3555 37.5801 57.6777C38.5762 58.5371 39.0937 58.7129 39.6894 58.4004C40.0898 58.1953 40.3144 57.8926 41.457 56.0273C42.0234 55.1094 42.5215 54.3477 42.5605 54.3477C42.6875 54.3477 45.7832 55.7148 45.9883 55.8613C46.1543 55.9883 46.0957 56.0762 45.1094 57.2773C43.918 58.7031 43.3809 59.5332 43.1562 60.2559C42.8828 61.1543 42.8144 62.4141 42.8437 65.9199L42.873 69.4062L43.1465 69.6406C43.4883 69.9336 43.7226 69.9336 44.0644 69.6406L44.3379 69.4062L44.3867 65.168C44.4453 60.4707 44.4258 60.6074 45.1484 59.582C45.7051 58.7812 47.1504 57.0918 47.2285 57.1406C47.2676 57.1602 47.375 57.4141 47.4726 57.6875C47.6777 58.3125 47.6777 58.9082 47.4141 64.7773C47.2871 67.6777 47.2578 69.2793 47.3164 69.4355C47.4238 69.7188 47.8437 69.9141 48.166 69.8262C48.6641 69.6992 48.6738 69.6797 48.9082 64.1133C49.0547 60.7734 49.1035 58.6348 49.0547 58.166C48.8984 56.6719 47.9023 55.2168 46.5547 54.5137C46.1934 54.3184 45.1777 53.8594 44.2891 53.4688L42.6777 52.7754L41.6523 51.7695C41.0859 51.2129 40.5293 50.7051 40.4121 50.6465C40.2168 50.5488 40.1875 50.4512 40.1875 50.0117V49.4844L40.8613 48.9375C42.1504 47.9023 43.0976 46.3691 43.4492 44.748C43.498 44.5332 43.5664 44.4844 43.8008 44.4844C44.2012 44.4844 44.5039 44.3477 44.9336 43.9766C45.4609 43.5078 45.6855 42.9316 45.6855 42.043C45.6855 41.2129 45.5391 40.7832 45.0801 40.2656C44.7871 39.9238 44.7773 39.9141 44.8848 39.3477C45.0215 38.6055 44.9434 36.5938 44.748 35.8906C44.2012 33.9277 42.9609 32.1309 41.4375 31.0859C40.9394 30.7539 40.8711 30.666 40.8711 30.3828C40.8711 29.9238 40.6074 29.1035 40.2656 28.5078C39.3965 26.9551 37.1992 25.9102 35.4023 26.1934ZM37.4922 27.9121C38.1758 28.2246 38.7812 28.7812 39.0742 29.3672C39.2012 29.6211 39.3086 29.8457 39.3086 29.8652C39.3086 29.8848 38.9277 29.7969 38.459 29.6699C36.8672 29.25 34.9238 29.2695 33.4297 29.7383C33.1172 29.8359 32.8633 29.875 32.8633 29.8262C32.8633 29.7676 32.9512 29.5723 33.0488 29.3672C33.8398 27.8438 35.8809 27.1797 37.4922 27.9121ZM37.5312 30.9688C39.1719 31.3008 40.373 31.9551 41.5547 33.1562C42.8535 34.4844 43.5176 36.0957 43.498 37.9316C43.498 38.4492 43.4687 39.0449 43.4297 39.2598C43.3613 39.6113 43.332 39.6504 43.0293 39.6797C42.7851 39.709 42.6387 39.6504 42.4434 39.4746C41.9844 39.0449 41.7891 38.9961 40.2949 38.9668C36.6621 38.8887 33.9277 37.9414 32.2285 36.1836C31.6426 35.5781 31.3691 35.4512 30.998 35.5977C30.6953 35.7246 30.4707 36.1738 30.5586 36.457C30.666 36.7793 31.9258 37.9414 32.7559 38.4883C33.7812 39.1523 35.3047 39.748 36.75 40.0508C37.9609 40.2949 40.4023 40.5293 40.9297 40.4512C41.1934 40.4023 41.3398 40.4707 41.7988 40.832C42.3945 41.291 42.5508 41.3203 43.1562 41.1543C43.7031 41.0078 43.9863 41.1055 44.1621 41.5254C44.3281 41.9453 44.2695 42.5801 44.0254 42.8438C43.9375 42.9414 43.7422 43.0195 43.5859 43.0195C43.2051 43.0195 42.7266 43.2344 42.4531 43.5371C42.3262 43.6738 42.1211 44.1426 41.9941 44.5723C41.6426 45.7734 41.2226 46.4863 40.334 47.3652C39.4648 48.2441 38.7226 48.6836 37.6484 48.9863C36.8086 49.2109 35.4219 49.2305 34.6113 49.0254C32.4141 48.4492 30.7344 46.7891 30.1484 44.5918C30.041 44.2109 29.8848 43.791 29.7969 43.6445C29.6113 43.3613 28.9473 43.0293 28.5664 43.0195C28.0977 43.0098 27.8828 42.6875 27.8828 41.9941C27.8828 41.6426 27.9414 41.4961 28.1269 41.3008C28.4199 41.0078 28.6152 41.0469 29.1914 41.4668C29.6504 41.7988 29.9629 41.8184 30.373 41.5645C31.0664 41.125 31.7891 40.3047 31.7891 39.9727C31.7891 39.8652 31.6523 39.6504 31.4961 39.4844C31.1152 39.1133 30.8223 39.1621 30.2656 39.709C29.875 40.0898 29.8652 40.0996 29.582 39.9434C29.4258 39.8652 29.1816 39.748 29.0352 39.6992C28.7129 39.5918 28.6055 39.1035 28.625 37.6973C28.6543 36.0273 29.2793 34.5332 30.5 33.2344C32.3457 31.2812 34.9629 30.4414 37.5312 30.9688ZM34.2793 50.4414C34.8066 50.5781 35.3633 50.6367 36.0859 50.6367C36.8086 50.6367 37.3652 50.5781 37.8926 50.4414C38.3125 50.334 38.6738 50.2461 38.6934 50.2461C38.7031 50.2461 38.7226 50.5879 38.7226 51.0078V51.7598L37.4043 53.0781L36.0859 54.3965L34.7187 53.0293L33.3516 51.6621V50.959C33.3516 50.5684 33.3906 50.2461 33.4297 50.2461C33.4785 50.2461 33.8594 50.334 34.2793 50.4414ZM33.4883 53.8496C34.2891 54.6504 34.9238 55.3438 34.9043 55.4023C34.8457 55.5586 33.1269 56.9941 33.0293 56.9551C32.9902 56.9453 32.4726 56.1641 31.8965 55.2266L30.832 53.5176L31.3789 52.9512C31.6816 52.6484 31.9551 52.3945 31.9844 52.3945C32.0137 52.3945 32.6875 53.0488 33.4883 53.8496ZM40.7637 52.9219C41.0469 53.2148 41.2715 53.4883 41.2519 53.5469C41.1445 53.8105 39.1523 56.9844 39.084 56.9844C39.0449 56.9844 38.5859 56.623 38.0781 56.1836L37.1504 55.3828L38.6445 53.8887C39.4648 53.0684 40.1582 52.3945 40.1875 52.3945C40.2168 52.3945 40.4805 52.6289 40.7637 52.9219Z" fill="url(#paint1_linear_1_52556)"/>
<path d="M57.1309 26.2227C55.6758 26.3887 53.8105 27.082 52.7559 27.8438C52.4824 28.0488 52.0137 28.2637 51.7109 28.3418C50.1777 28.7422 49.1719 29.9824 48.9863 31.7207C48.8984 32.5605 49.0059 34.3477 49.2207 35.5977L49.3965 36.5742L49.0059 36.9453C48.7813 37.1406 48.5273 37.4824 48.4395 37.6973C48.2148 38.2148 48.2051 39.5137 48.4199 40.002C48.7324 40.7051 49.4941 41.2617 50.1289 41.2617C50.3926 41.2617 50.4316 41.3008 50.5879 41.8672C50.8223 42.7461 51.3496 43.791 51.9063 44.5234C52.3945 45.1582 52.3945 45.168 52.3945 45.8906C52.3945 46.5547 52.375 46.6328 52.1797 46.7402C52.0527 46.7988 51.4766 47.3262 50.8809 47.9023L49.8066 48.957L47.8535 49.709C44.9336 50.832 44.582 51.0371 44.582 51.6035C44.582 51.9453 44.9531 52.2969 45.3047 52.2969C45.4609 52.2969 45.7246 52.209 45.8906 52.1113C46.2227 51.9062 50.041 50.4023 50.0898 50.4512C50.1094 50.4707 50.793 51.4961 51.6133 52.7168C52.834 54.5625 53.1758 55.002 53.5371 55.2363C54.1035 55.5879 54.6504 55.666 55.2656 55.4805L55.7344 55.334L55.6855 55.8906C55.6563 56.1934 55.5098 59.3672 55.3535 62.9316L55.0801 69.4062L55.3535 69.6406C55.666 69.9043 55.793 69.9238 56.1543 69.7578C56.3105 69.6895 56.4375 69.5234 56.4961 69.2988C56.5645 69.0156 57.0918 57.834 57.082 56.7109V56.3984H57.8633C58.6055 56.3984 58.6445 56.4082 58.6445 56.6133C58.6445 56.7402 58.7813 59.6699 58.9277 63.1367L59.2109 69.4355L59.4746 69.6504C59.6113 69.7773 59.7871 69.875 59.8652 69.875C60.1484 69.875 60.4902 69.6406 60.5781 69.3965C60.6367 69.2305 60.5684 66.9062 60.3926 62.9902C60.2363 59.6016 60.1191 56.4961 60.1094 56.0762C60.1094 55.3242 60.1094 55.3145 60.3242 55.4316C60.6855 55.627 61.5742 55.5879 62.0137 55.3535C62.5508 55.0703 62.6387 54.9629 64.2109 52.5898C64.9824 51.4375 65.6172 50.4707 65.6367 50.4512C65.6855 50.4023 69.2988 51.7988 69.7969 52.0723C70.0508 52.209 70.3535 52.4238 70.4707 52.5508L70.6953 52.7852L69.1719 54.3281C67.5215 55.998 67.209 56.4375 66.9355 57.4922C66.7598 58.1367 66.75 58.6348 66.75 63.791V69.3965L66.9941 69.6309C67.2773 69.9238 67.6191 69.9434 67.9316 69.6895L68.166 69.5039L68.2148 63.7031L68.2637 57.9121L68.5762 57.2773C68.8203 56.7793 69.1719 56.3594 70.1582 55.3828L71.418 54.123L71.4863 54.4551C71.5254 54.6406 71.418 58.0391 71.252 61.9941C71.0566 66.7109 70.9883 69.2793 71.0469 69.4453C71.2324 69.9238 71.9844 69.9824 72.2676 69.543C72.4922 69.2109 73.0781 55.2168 72.9121 54.2109C72.6875 52.873 71.7793 51.5352 70.6465 50.8613C70.3535 50.6953 69.1719 50.1973 68.0195 49.7578L65.9199 48.957L64.7969 47.8438C64.1816 47.2285 63.6152 46.7305 63.5469 46.7305C63.4688 46.7305 63.4297 46.4961 63.4297 45.9004V45.0605L63.9082 44.4453C64.4551 43.7227 64.8359 42.9609 65.1387 41.9941L65.3535 41.3105L65.7734 41.2422C66.7598 41.0762 67.4238 40.2559 67.5117 39.1328C67.5605 38.3809 67.4336 37.8242 67.1016 37.3359C66.8867 37.0137 66.877 36.9551 66.9746 36.418C67.1504 35.3926 67.1113 32.9121 66.916 32.043C66.5156 30.373 65.9004 29.2695 64.7578 28.2051C63.0391 26.6035 60.1875 25.8613 57.1309 26.2227ZM60.8906 27.834C62.1113 28.1074 63.1465 28.6543 63.9082 29.416C64.6602 30.168 65.0703 30.8906 65.4023 32.0527C65.5977 32.707 65.627 33.0293 65.6172 34.377C65.6074 36.1641 65.5293 36.5059 65.1191 36.457C64.8945 36.4277 64.8066 36.3105 64.4551 35.5C63.9473 34.2988 63.918 34.2793 62.502 34.543C60.8906 34.8457 58.2344 34.8359 57.0332 34.543C55.8125 34.2305 54.8652 33.7422 54.0449 32.9805C53.5273 32.502 53.2832 32.3457 53.0684 32.3457C52.668 32.3457 52.3945 32.6289 52.3945 33.0488C52.3945 33.3516 52.4824 33.4785 53.1074 34.084C54.9434 35.8809 58.127 36.6328 61.8184 36.1348C63.1074 35.959 63.1367 35.959 63.1367 36.0859C63.1367 36.1445 63.293 36.5156 63.4785 36.9062C63.8887 37.7852 64.1816 37.9609 65.0996 37.9219C65.627 37.9023 65.7246 37.9316 65.8809 38.127C66.1934 38.5078 66.0957 39.4746 65.7344 39.7188C65.6758 39.7578 65.5195 39.7969 65.3828 39.7969C65.002 39.8066 64.3379 40.1387 64.1523 40.4219C64.0645 40.5684 63.9082 40.9883 63.8008 41.3691C63.0684 44.123 60.7051 45.9688 57.9121 45.9688C55.0605 45.9785 52.6387 44.0938 51.9453 41.3203C51.8574 40.959 51.6914 40.5586 51.584 40.4121C51.3496 40.1191 50.7051 39.8066 50.334 39.7969C49.8066 39.7969 49.5039 38.9863 49.7969 38.3027C49.9238 37.9805 49.9824 37.9414 50.3047 37.9414C50.5586 37.9414 50.7539 38.0195 50.998 38.2344C51.5938 38.7617 52.1895 38.5664 53.1563 37.5215C53.6445 36.9844 53.6934 36.6035 53.3223 36.2324C52.9805 35.8809 52.7461 35.9297 52.209 36.4277C51.9551 36.6719 51.7109 36.8672 51.6719 36.8672C51.6426 36.8672 51.4375 36.7598 51.2324 36.6328C50.8613 36.3984 50.8516 36.3594 50.6855 35.4805C50.4707 34.3281 50.3633 32.4922 50.4609 31.7598C50.6172 30.5781 51.252 29.8848 52.3457 29.6992C52.5703 29.6602 53.0781 29.3965 53.5176 29.1035C54.6699 28.3418 55.8809 27.873 57.1992 27.6875C58.0684 27.5605 60.0215 27.6484 60.8906 27.834ZM55.3438 47.0137C56.1543 47.3066 56.916 47.4336 57.9414 47.4238C59.2598 47.4238 60.2656 47.1699 61.3887 46.5742C61.6426 46.4473 61.8672 46.3398 61.9063 46.3398C61.9355 46.3398 61.9648 46.6426 61.9648 47.0039V47.6777L60.1973 49.2207C59.2305 50.0703 58.3027 50.8711 58.1465 50.998L57.8633 51.2422L55.8711 49.4941L53.8691 47.7559L53.8594 47.043V46.3398L54.3477 46.584C54.6113 46.7207 55.0605 46.916 55.3438 47.0137ZM54.6406 50.3633L56.7988 52.2383L55.9395 53.1074C55.4609 53.5762 55.002 54.0156 54.9141 54.0645C54.4941 54.2891 54.3086 54.0938 52.7754 51.7988L51.2813 49.5527L51.8086 49.0254C52.1016 48.7324 52.375 48.4883 52.4141 48.4883C52.4531 48.4883 53.459 49.3281 54.6406 50.3633ZM63.8887 48.9961C64.1719 49.2793 64.4063 49.543 64.4063 49.582C64.4063 49.6309 63.752 50.6465 62.9414 51.8574C61.4375 54.1133 61.252 54.3086 60.8223 54.0742C60.7246 54.0156 60.2656 53.5859 59.7969 53.1074L58.9473 52.248L61.1055 50.3633C62.2969 49.3379 63.293 48.4883 63.3223 48.4883C63.3516 48.4883 63.6055 48.7129 63.8887 48.9961ZM58.2246 53.5859C58.5078 53.8594 58.5469 53.957 58.5469 54.416V54.9336H57.8633H57.1797V54.4453C57.1797 54.0449 57.2285 53.9082 57.4824 53.6152C57.6484 53.4297 57.8145 53.2734 57.8438 53.2734C57.873 53.2734 58.0488 53.4102 58.2246 53.5859Z" fill="url(#paint2_linear_1_52556)"/>
<path d="M50.5391 58.5469C50.2754 58.8105 50.2851 59.3379 50.5488 59.582C50.7344 59.748 50.9199 59.7676 52.3945 59.7676C53.8691 59.7676 54.0547 59.748 54.2402 59.582C54.5039 59.3379 54.5137 58.8105 54.25 58.5469C54.0742 58.3711 53.9277 58.3516 52.3945 58.3516C50.8613 58.3516 50.7148 58.3711 50.5391 58.5469Z" fill="url(#paint3_linear_1_52556)"/>
<path d="M30.8809 61.6817C30.6074 61.8379 30.4902 62.2481 30.6172 62.5606C30.793 62.9707 31.1445 63.0586 32.4727 63.0195C33.5859 62.9903 33.6738 62.9707 33.8496 62.7559C34.1035 62.4434 34.084 62.043 33.8105 61.7891C33.6055 61.5938 33.4883 61.5742 32.3164 61.5742C31.623 61.5742 30.9785 61.6231 30.8809 61.6817Z" fill="url(#paint4_linear_1_52556)"/>
<defs>
<linearGradient id="paint0_linear_1_52556" x1="96" y1="47.7091" x2="1.92087e-08" y2="47.7091" gradientUnits="userSpaceOnUse">
<stop stop-color="#FEC208"/>
<stop offset="1" stop-color="#FFF10A"/>
</linearGradient>
<linearGradient id="paint1_linear_1_52556" x1="49.073" y1="48.1435" x2="23.0461" y2="48.1435" gradientUnits="userSpaceOnUse">
<stop stop-color="#FF2D08"/>
<stop offset="1" stop-color="#CF240A"/>
</linearGradient>
<linearGradient id="paint2_linear_1_52556" x1="72.9413" y1="48.1365" x2="44.582" y2="48.1365" gradientUnits="userSpaceOnUse">
<stop stop-color="#FF2D08"/>
<stop offset="1" stop-color="#CF240A"/>
</linearGradient>
<linearGradient id="paint3_linear_1_52556" x1="54.4429" y1="59.0639" x2="50.3461" y2="59.0639" gradientUnits="userSpaceOnUse">
<stop stop-color="#FF2D08"/>
<stop offset="1" stop-color="#CF240A"/>
</linearGradient>
<linearGradient id="paint4_linear_1_52556" x1="34.0284" y1="62.3055" x2="30.566" y2="62.3055" gradientUnits="userSpaceOnUse">
<stop stop-color="#FF2D08"/>
<stop offset="1" stop-color="#CF240A"/>
</linearGradient>
</defs>
</svg>
